%TF.GenerationSoftware,KiCad,Pcbnew,9.0.7*%
%TF.CreationDate,2026-04-15T17:52:05+09:00*%
%TF.ProjectId,pico_pico2_to_emuz80,7069636f-5f70-4696-936f-325f746f5f65,0.4*%
%TF.SameCoordinates,PX5d42830PY853a720*%
%TF.FileFunction,Copper,L2,Bot*%
%TF.FilePolarity,Positive*%
%FSLAX46Y46*%
G04 Gerber Fmt 4.6, Leading zero omitted, Abs format (unit mm)*
G04 Created by KiCad (PCBNEW 9.0.7) date 2026-04-15 17:52:05*
%MOMM*%
%LPD*%
G01*
G04 APERTURE LIST*
%TA.AperFunction,ComponentPad*%
%ADD10R,1.700000X1.700000*%
%TD*%
%TA.AperFunction,ComponentPad*%
%ADD11C,1.700000*%
%TD*%
%TA.AperFunction,ViaPad*%
%ADD12C,0.605000*%
%TD*%
%TA.AperFunction,Conductor*%
%ADD13C,0.600000*%
%TD*%
%TA.AperFunction,Conductor*%
%ADD14C,0.400000*%
%TD*%
%TA.AperFunction,Conductor*%
%ADD15C,0.200000*%
%TD*%
%TA.AperFunction,Conductor*%
%ADD16C,0.152400*%
%TD*%
%TA.AperFunction,Conductor*%
%ADD17C,1.000000*%
%TD*%
G04 APERTURE END LIST*
D10*
X3835000Y60930000D03*
D11*
X3835000Y58390000D03*
X3835000Y55850000D03*
X3835000Y53310000D03*
X3835000Y50770000D03*
X3835000Y48230000D03*
X3835000Y45690000D03*
X3835000Y43150000D03*
X3835000Y40610000D03*
X3835000Y38070000D03*
X3835000Y35530000D03*
X3835000Y32990000D03*
X3835000Y30450000D03*
X3835000Y27910000D03*
X3835000Y25370000D03*
X3835000Y22830000D03*
X3835000Y20290000D03*
X3835000Y17750000D03*
X3835000Y15210000D03*
X3835000Y12670000D03*
D10*
X21615000Y60930000D03*
D11*
X21615000Y58390000D03*
X21615000Y55850000D03*
X21615000Y53310000D03*
X21615000Y50770000D03*
X21615000Y48230000D03*
X21615000Y45690000D03*
X21615000Y43150000D03*
X21615000Y40610000D03*
X21615000Y38070000D03*
X21615000Y35530000D03*
X21615000Y32990000D03*
X21615000Y30450000D03*
X21615000Y27910000D03*
X21615000Y25370000D03*
X21615000Y22830000D03*
X21615000Y20290000D03*
X21615000Y17750000D03*
X21615000Y15210000D03*
X21615000Y12670000D03*
D10*
X16510000Y5080000D03*
D11*
X19050000Y5080000D03*
X21590000Y5080000D03*
X24130000Y5080000D03*
X26670000Y5080000D03*
X29210000Y5080000D03*
D10*
X10160000Y5080000D03*
D11*
X7620000Y5080000D03*
X5080000Y5080000D03*
X2540000Y5080000D03*
D10*
X26670000Y68580000D03*
D11*
X24130000Y68580000D03*
D10*
X27940000Y60960000D03*
D11*
X27940000Y58420000D03*
X27940000Y55880000D03*
X27940000Y53340000D03*
X27940000Y50800000D03*
X27940000Y48260000D03*
X27940000Y45720000D03*
X27940000Y43180000D03*
X27940000Y40640000D03*
X27940000Y38100000D03*
X27940000Y35560000D03*
X27940000Y33020000D03*
X27940000Y30480000D03*
X27940000Y27940000D03*
X27940000Y25400000D03*
X27940000Y22860000D03*
X27940000Y20320000D03*
X27940000Y17780000D03*
X27940000Y15240000D03*
X27940000Y12700000D03*
D10*
X7620000Y60960000D03*
D11*
X7620000Y58420000D03*
X7620000Y55880000D03*
X7620000Y53340000D03*
X7620000Y50800000D03*
X7620000Y48260000D03*
X7620000Y45720000D03*
X7620000Y43180000D03*
X7620000Y40640000D03*
X7620000Y38100000D03*
X7620000Y35560000D03*
X7620000Y33020000D03*
X7620000Y30480000D03*
X7620000Y27940000D03*
X7620000Y25400000D03*
X7620000Y22860000D03*
X7620000Y20320000D03*
X7620000Y17780000D03*
X7620000Y15240000D03*
X7620000Y12700000D03*
D12*
X19603000Y50770000D03*
X17211000Y8890000D03*
X5080000Y8890000D03*
X30343000Y21340000D03*
X22976000Y7472000D03*
X1303000Y39636000D03*
X16857000Y50881000D03*
X13232000Y59528000D03*
X18346000Y31973000D03*
X18411000Y54561000D03*
X13024000Y7244000D03*
X11249000Y19715000D03*
X16601000Y53165000D03*
X15488086Y52052084D03*
X17137000Y67359000D03*
X2501000Y8560000D03*
X14987000Y59527000D03*
X15332000Y45742000D03*
X11461002Y50862000D03*
X12148000Y10427000D03*
X30657000Y44488000D03*
X11756500Y52373500D03*
X23950000Y30450000D03*
X29307000Y9245000D03*
X16555000Y20017000D03*
X11553000Y30967000D03*
X11745000Y45480000D03*
X19050000Y12700000D03*
X24875000Y15210000D03*
X10555000Y60930000D03*
X26109000Y58361000D03*
X10160000Y35560000D03*
X14295000Y18148300D03*
X12119000Y51532000D03*
X5544000Y51432000D03*
X18133000Y40633000D03*
X18146000Y45621000D03*
X15598000Y12537000D03*
X9905500Y33365500D03*
X10497172Y26386500D03*
X15593000Y20928000D03*
X1473000Y29337000D03*
X16251001Y25118000D03*
X24402000Y46748000D03*
X14591495Y47224299D03*
X11153000Y38070000D03*
X11253303Y47703011D03*
X16252000Y13129000D03*
X23749000Y62230000D03*
X14957000Y20397000D03*
X14270977Y51274184D03*
X19399000Y51918300D03*
X12037000Y41484000D03*
X5530000Y41727000D03*
X30163000Y39529000D03*
X12355000Y39546000D03*
X24859000Y16836000D03*
X11694000Y15477000D03*
X12996000Y14638000D03*
X25534000Y14733000D03*
X13554225Y18360300D03*
X12984000Y21468000D03*
X19213500Y53843000D03*
X18761000Y47527000D03*
X14951000Y42598000D03*
X18737000Y42606000D03*
X5605000Y56977000D03*
X5531000Y42684000D03*
X12773000Y42251000D03*
X11701000Y25073000D03*
X14305000Y10553000D03*
X12346000Y15048000D03*
X25374000Y16081000D03*
X1166000Y45095000D03*
X15601000Y44293000D03*
X14301003Y36938000D03*
X24467000Y49366000D03*
X24491000Y52191000D03*
X25000000Y36895000D03*
X25723700Y38752000D03*
X11704000Y38881700D03*
X17484000Y47291000D03*
X14251000Y45869500D03*
X14120000Y43344000D03*
X17494000Y43340000D03*
X14975000Y10004000D03*
X25783000Y13825600D03*
X13645000Y13959300D03*
X16243000Y42016000D03*
X16124000Y44843000D03*
X1179000Y47139000D03*
X12347000Y19036300D03*
X24913000Y22850000D03*
X24940000Y19976000D03*
X16895603Y25758000D03*
X16910000Y31978000D03*
X10159000Y9910000D03*
X24321000Y53310000D03*
X9360000Y55781000D03*
X17112000Y56311300D03*
X13343000Y40944000D03*
X13624321Y51673732D03*
X13626553Y47168964D03*
X14711003Y53346001D03*
X14060000Y57929000D03*
X12789918Y46823895D03*
X12763000Y43180000D03*
X12763000Y51951500D03*
D13*
X21615000Y50770000D02*
X19603000Y50770000D01*
X5080000Y8890000D02*
X17211000Y8890000D01*
X25400000Y8890000D02*
X29210000Y5080000D01*
X17211000Y8890000D02*
X25400000Y8890000D01*
D14*
X11249000Y19715000D02*
X15299000Y19715000D01*
D15*
X13232000Y59528000D02*
X14986000Y59528000D01*
D14*
X3835000Y17750000D02*
X5178000Y19093000D01*
D15*
X13498000Y45480000D02*
X13811000Y45167000D01*
D14*
X21615000Y30450000D02*
X20092000Y31973000D01*
X27383000Y44488000D02*
X30657000Y44488000D01*
D15*
X13392000Y52252000D02*
X15288170Y52252000D01*
D14*
X21615000Y55850000D02*
X20326000Y54561000D01*
D15*
X11912000Y52529000D02*
X13115000Y52529000D01*
D14*
X15583000Y19999000D02*
X16537000Y19999000D01*
X5178000Y19093000D02*
X10627000Y19093000D01*
X15299000Y19715000D02*
X15583000Y19999000D01*
X20326000Y54561000D02*
X18411000Y54561000D01*
D15*
X15288170Y52252000D02*
X15488086Y52052084D01*
X11745000Y45480000D02*
X13498000Y45480000D01*
D14*
X26045000Y43150000D02*
X27383000Y44488000D01*
X9673000Y30967000D02*
X11553000Y30967000D01*
X10627000Y19093000D02*
X11249000Y19715000D01*
D15*
X13811000Y45167000D02*
X14757000Y45167000D01*
X11756500Y52373500D02*
X11912000Y52529000D01*
X14986000Y59528000D02*
X14987000Y59527000D01*
X13115000Y52529000D02*
X13392000Y52252000D01*
D14*
X20092000Y31973000D02*
X18346000Y31973000D01*
X21615000Y43150000D02*
X26045000Y43150000D01*
X7620000Y33020000D02*
X9673000Y30967000D01*
D15*
X14757000Y45167000D02*
X15332000Y45742000D01*
D16*
X19080000Y12670000D02*
X21615000Y12670000D01*
X19050000Y12700000D02*
X19080000Y12670000D01*
X21615000Y15210000D02*
X24875000Y15210000D01*
D17*
X26080000Y58390000D02*
X26109000Y58361000D01*
X10160000Y35560000D02*
X7620000Y35560000D01*
X21615000Y58390000D02*
X26080000Y58390000D01*
X21615000Y60930000D02*
X10555000Y60930000D01*
D16*
X21585000Y45720000D02*
X21615000Y45690000D01*
X7620000Y17780000D02*
X13926700Y17780000D01*
X13926700Y17780000D02*
X14295000Y18148300D01*
X6039000Y51927000D02*
X5544000Y51432000D01*
X12119000Y51532000D02*
X11886300Y51764700D01*
X11179875Y51764700D02*
X10947175Y51532000D01*
X8255000Y51927000D02*
X6039000Y51927000D01*
X11886300Y51764700D02*
X11179875Y51764700D01*
X8650000Y51532000D02*
X8255000Y51927000D01*
X10947175Y51532000D02*
X8650000Y51532000D01*
X7620000Y48260000D02*
X9324052Y48260000D01*
X9324052Y48260000D02*
X10747252Y46836800D01*
X11978963Y46836800D02*
X12543963Y46271800D01*
X13191800Y46271800D02*
X13327000Y46407000D01*
X18156000Y40610000D02*
X21615000Y40610000D01*
X12543963Y46271800D02*
X13191800Y46271800D01*
X17360000Y46407000D02*
X18146000Y45621000D01*
X10747252Y46836800D02*
X11978963Y46836800D01*
X13327000Y46407000D02*
X17360000Y46407000D01*
X15592000Y12531000D02*
X7789000Y12531000D01*
X7789000Y12531000D02*
X7620000Y12700000D01*
X21615000Y27910000D02*
X21335000Y27910000D01*
X17662000Y32040000D02*
X17032000Y32670000D01*
X17662000Y31583000D02*
X17662000Y32040000D01*
X21335000Y27910000D02*
X17662000Y31583000D01*
X10601000Y32670000D02*
X9905500Y33365500D01*
X17032000Y32670000D02*
X10601000Y32670000D01*
X3835000Y27910000D02*
X4911000Y26834000D01*
X10049672Y26834000D02*
X10497172Y26386500D01*
X4911000Y26834000D02*
X10049672Y26834000D01*
X9552000Y20928000D02*
X15593000Y20928000D01*
X7620000Y22860000D02*
X9552000Y20928000D01*
X6223000Y29337000D02*
X1473000Y29337000D01*
X7620000Y27940000D02*
X6223000Y29337000D01*
X7623000Y25403000D02*
X7620000Y25400000D01*
X11071173Y25403000D02*
X7623000Y25403000D01*
X11419873Y25751700D02*
X11071173Y25403000D01*
X16251001Y25118000D02*
X15617301Y25751700D01*
X15617301Y25751700D02*
X11419873Y25751700D01*
X24402000Y46748000D02*
X24345800Y46804200D01*
X17464052Y46734000D02*
X15081794Y46734000D01*
X20514432Y46399432D02*
X17798620Y46399432D01*
X20919200Y46804200D02*
X20514432Y46399432D01*
X17798620Y46399432D02*
X17464052Y46734000D01*
X15081794Y46734000D02*
X14591495Y47224299D01*
X24345800Y46804200D02*
X20919200Y46804200D01*
X7620000Y50800000D02*
X10716989Y47703011D01*
X21615000Y38070000D02*
X11153000Y38070000D01*
X10716989Y47703011D02*
X11253303Y47703011D01*
X7620000Y15240000D02*
X9731000Y13129000D01*
X9731000Y13129000D02*
X16252000Y13129000D01*
X7620000Y60960000D02*
X8890000Y62230000D01*
X8890000Y62230000D02*
X23749000Y62230000D01*
X14880000Y20320000D02*
X14957000Y20397000D01*
X7620000Y20320000D02*
X14880000Y20320000D01*
X19247300Y52070000D02*
X16256479Y52070000D01*
X15460663Y51274184D02*
X14270977Y51274184D01*
X16256479Y52070000D02*
X15460663Y51274184D01*
X19399000Y51918300D02*
X19247300Y52070000D01*
X11794000Y41727000D02*
X5530000Y41727000D01*
X12037000Y41484000D02*
X11794000Y41727000D01*
X4899000Y39546000D02*
X12355000Y39546000D01*
X14080000Y39546000D02*
X14091000Y39535000D01*
X12355000Y39546000D02*
X14080000Y39546000D01*
X14091000Y39535000D02*
X14097000Y39529000D01*
X3835000Y40610000D02*
X4899000Y39546000D01*
X14097000Y39529000D02*
X30163000Y39529000D01*
X12843800Y16626800D02*
X24649800Y16626800D01*
X11694000Y15477000D02*
X12843800Y16626800D01*
X24649800Y16626800D02*
X24859000Y16836000D01*
X20992000Y14063000D02*
X24864000Y14063000D01*
X12996000Y14638000D02*
X20417000Y14638000D01*
X24864000Y14063000D02*
X25534000Y14733000D01*
X20417000Y14638000D02*
X20992000Y14063000D01*
X21022052Y18681000D02*
X13874925Y18681000D01*
X13874925Y18681000D02*
X13554225Y18360300D01*
X27940000Y17780000D02*
X26890400Y18829600D01*
X26890400Y18829600D02*
X21170652Y18829600D01*
X21170652Y18829600D02*
X21022052Y18681000D01*
X26792000Y21468000D02*
X12984000Y21468000D01*
X27940000Y20320000D02*
X26792000Y21468000D01*
X20569000Y47527000D02*
X20987000Y47109000D01*
X20987000Y47109000D02*
X22255000Y47109000D01*
X17196400Y54419600D02*
X17773000Y53843000D01*
X18761000Y47527000D02*
X20569000Y47527000D01*
X22255000Y47109000D02*
X23406000Y48260000D01*
X17773000Y53843000D02*
X19213500Y53843000D01*
X14951000Y42598000D02*
X18729000Y42598000D01*
X3835000Y53310000D02*
X4944600Y54419600D01*
X4944600Y54419600D02*
X17196400Y54419600D01*
X23406000Y48260000D02*
X27940000Y48260000D01*
X27940000Y55880000D02*
X27933000Y55873000D01*
X22296000Y56977000D02*
X5605000Y56977000D01*
X12622400Y42100400D02*
X6114600Y42100400D01*
X23400000Y55873000D02*
X22296000Y56977000D01*
X12773000Y42251000D02*
X12622400Y42100400D01*
X6114600Y42100400D02*
X5531000Y42684000D01*
X27933000Y55873000D02*
X23400000Y55873000D01*
X26803000Y24263000D02*
X16247000Y24263000D01*
X15437000Y25073000D02*
X11701000Y25073000D01*
X27940000Y25400000D02*
X26803000Y24263000D01*
X16247000Y24263000D02*
X15437000Y25073000D01*
X27940000Y14569000D02*
X23924000Y10553000D01*
X23924000Y10553000D02*
X14305000Y10553000D01*
X27940000Y15240000D02*
X27940000Y14569000D01*
X12346000Y15048000D02*
X13379000Y16081000D01*
X13379000Y16081000D02*
X19981000Y16081000D01*
X20222000Y16322000D02*
X23107000Y16322000D01*
X23348000Y16081000D02*
X25374000Y16081000D01*
X19981000Y16081000D02*
X20222000Y16322000D01*
X23107000Y16322000D02*
X23348000Y16081000D01*
X25374000Y16081000D02*
X25377000Y16084000D01*
X15601000Y44293000D02*
X26513000Y44293000D01*
X1650600Y44610400D02*
X1666600Y44610400D01*
X26513000Y44293000D02*
X27940000Y45720000D01*
X1666600Y44610400D02*
X1984000Y44293000D01*
X1984000Y44293000D02*
X15601000Y44293000D01*
X1166000Y45095000D02*
X1650600Y44610400D01*
X14500177Y52597000D02*
X20801215Y52597000D01*
X25000000Y36895000D02*
X24957000Y36938000D01*
X5296800Y52231800D02*
X8217800Y52231800D01*
X27940000Y50800000D02*
X26506000Y49366000D01*
X8217800Y52231800D02*
X8893000Y52907000D01*
X14190177Y52907000D02*
X14500177Y52597000D01*
X3835000Y50770000D02*
X5296800Y52231800D01*
X26506000Y49366000D02*
X24467000Y49366000D01*
X8893000Y52907000D02*
X14190177Y52907000D01*
X21207215Y52191000D02*
X24491000Y52191000D01*
X20801215Y52597000D02*
X21207215Y52191000D01*
X24957000Y36938000D02*
X14301003Y36938000D01*
X24745000Y39211000D02*
X25204000Y38752000D01*
X3835000Y38070000D02*
X4976000Y39211000D01*
X9631000Y38894000D02*
X11691700Y38894000D01*
X25204000Y38752000D02*
X25723700Y38752000D01*
X4976000Y39211000D02*
X9314000Y39211000D01*
X20694700Y38881700D02*
X21024000Y39211000D01*
X11704000Y38881700D02*
X20694700Y38881700D01*
X11691700Y38894000D02*
X11704000Y38881700D01*
X21024000Y39211000D02*
X24745000Y39211000D01*
X9314000Y39211000D02*
X9631000Y38894000D01*
X21681385Y49309600D02*
X19502600Y49309600D01*
X4913000Y47152000D02*
X9990000Y47152000D01*
X9990000Y47152000D02*
X10610000Y46532000D01*
X23002000Y50713000D02*
X23002000Y50630215D01*
X3835000Y48230000D02*
X4913000Y47152000D01*
X14153500Y45967000D02*
X14251000Y45869500D01*
X27940000Y53340000D02*
X25313000Y50713000D01*
X23002000Y50630215D02*
X21681385Y49309600D01*
X17490000Y43344000D02*
X17494000Y43340000D01*
X14120000Y43344000D02*
X17490000Y43344000D01*
X10610000Y46532000D02*
X11852711Y46532000D01*
X11852711Y46532000D02*
X12417711Y45967000D01*
X25313000Y50713000D02*
X23002000Y50713000D01*
X12417711Y45967000D02*
X14153500Y45967000D01*
X19502600Y49309600D02*
X17484000Y47291000D01*
X25244000Y10004000D02*
X14975000Y10004000D01*
X27940000Y12700000D02*
X25244000Y10004000D01*
X13846100Y13758200D02*
X25715600Y13758200D01*
X25715600Y13758200D02*
X25783000Y13825600D01*
X25637000Y13827000D02*
X25638400Y13825600D01*
X25638400Y13825600D02*
X25783000Y13825600D01*
X13645000Y13959300D02*
X13846100Y13758200D01*
X10491000Y44694000D02*
X15224000Y44694000D01*
X1470800Y46847200D02*
X8337800Y46847200D01*
X15224000Y44694000D02*
X15373000Y44843000D01*
X26776000Y42016000D02*
X16243000Y42016000D01*
X15373000Y44843000D02*
X16124000Y44843000D01*
X8337800Y46847200D02*
X10491000Y44694000D01*
X27940000Y43180000D02*
X26776000Y42016000D01*
X1179000Y47139000D02*
X1470800Y46847200D01*
X24149000Y19185000D02*
X21095000Y19185000D01*
X24940000Y19976000D02*
X24149000Y19185000D01*
X12349700Y19039000D02*
X12347000Y19036300D01*
X24923000Y22860000D02*
X27940000Y22860000D01*
X21095000Y19185000D02*
X20949000Y19039000D01*
X24913000Y22850000D02*
X24923000Y22860000D01*
X20949000Y19039000D02*
X12349700Y19039000D01*
X11293621Y26056500D02*
X10944921Y25707800D01*
X16597103Y26056500D02*
X11293621Y26056500D01*
X16910000Y31978000D02*
X16895603Y31963603D01*
X4994200Y26529200D02*
X3835000Y25370000D01*
X9214800Y26529200D02*
X4994200Y26529200D01*
X16895603Y31963603D02*
X16895603Y25758000D01*
X10944921Y25707800D02*
X10036200Y25707800D01*
X10036200Y25707800D02*
X9214800Y26529200D01*
X16895603Y25758000D02*
X16597103Y26056500D01*
X10159000Y9910000D02*
X6595000Y9910000D01*
X6595000Y9910000D02*
X3835000Y12670000D01*
X21615000Y53310000D02*
X24321000Y53310000D01*
X9890300Y56311300D02*
X9360000Y55781000D01*
X17112000Y56311300D02*
X9890300Y56311300D01*
X13449000Y51498411D02*
X13624321Y51673732D01*
X13039000Y40640000D02*
X13343000Y40944000D01*
X13449000Y47346517D02*
X13449000Y51498411D01*
X13626553Y47168964D02*
X13449000Y47346517D01*
X7620000Y40640000D02*
X13039000Y40640000D01*
X7620000Y53340000D02*
X14705002Y53340000D01*
X14705002Y53340000D02*
X14711003Y53346001D01*
X13569000Y58420000D02*
X14060000Y57929000D01*
X7620000Y58420000D02*
X13569000Y58420000D01*
X12763000Y46850813D02*
X12763000Y51951500D01*
X12789918Y46823895D02*
X12763000Y46850813D01*
X12763000Y43180000D02*
X7620000Y43180000D01*
%TA.AperFunction,Conductor*%
G36*
X31392539Y70799815D02*
G01*
X31438294Y70747011D01*
X31449500Y70695500D01*
X31449500Y424500D01*
X31429815Y357461D01*
X31377011Y311706D01*
X31325500Y300500D01*
X424500Y300500D01*
X357461Y320185D01*
X311706Y372989D01*
X300500Y424500D01*
X300500Y5186247D01*
X1190000Y5186247D01*
X1190000Y4973754D01*
X1223242Y4763873D01*
X1223242Y4763870D01*
X1288904Y4561783D01*
X1385375Y4372450D01*
X1424728Y4318284D01*
X2057037Y4950592D01*
X2074075Y4887007D01*
X2139901Y4772993D01*
X2232993Y4679901D01*
X2347007Y4614075D01*
X2410590Y4597038D01*
X1778282Y3964731D01*
X1778282Y3964730D01*
X1832449Y3925376D01*
X2021782Y3828905D01*
X2223870Y3763243D01*
X2433754Y3730000D01*
X2646246Y3730000D01*
X2856127Y3763243D01*
X2856130Y3763243D01*
X3058217Y3828905D01*
X3247554Y3925378D01*
X3301716Y3964730D01*
X3301717Y3964730D01*
X2669408Y4597038D01*
X2732993Y4614075D01*
X2847007Y4679901D01*
X2940099Y4772993D01*
X3005925Y4887007D01*
X3022962Y4950591D01*
X3655270Y4318283D01*
X3655270Y4318284D01*
X3694622Y4372445D01*
X3699232Y4381493D01*
X3747205Y4432291D01*
X3815025Y4449088D01*
X3881161Y4426553D01*
X3920204Y4381496D01*
X3924949Y4372183D01*
X4049890Y4200214D01*
X4200213Y4049891D01*
X4372179Y3924952D01*
X4372181Y3924951D01*
X4372184Y3924949D01*
X4561588Y3828443D01*
X4763757Y3762754D01*
X4973713Y3729500D01*
X4973714Y3729500D01*
X5186286Y3729500D01*
X5186287Y3729500D01*
X5396243Y3762754D01*
X5598412Y3828443D01*
X5787816Y3924949D01*
X5874138Y3987665D01*
X5959786Y4049891D01*
X5959788Y4049894D01*
X5959792Y4049896D01*
X6110104Y4200208D01*
X6110106Y4200212D01*
X6110109Y4200214D01*
X6235048Y4372180D01*
X6235050Y4372183D01*
X6235051Y4372184D01*
X6239514Y4380946D01*
X6287488Y4431741D01*
X6355308Y4448537D01*
X6421444Y4426001D01*
X6460486Y4380944D01*
X6464951Y4372180D01*
X6589890Y4200214D01*
X6740213Y4049891D01*
X6912179Y3924952D01*
X6912181Y3924951D01*
X6912184Y3924949D01*
X7101588Y3828443D01*
X7303757Y3762754D01*
X7513713Y3729500D01*
X7513714Y3729500D01*
X7726286Y3729500D01*
X7726287Y3729500D01*
X7936243Y3762754D01*
X8138412Y3828443D01*
X8327816Y3924949D01*
X8414471Y3987907D01*
X8499784Y4049890D01*
X8499784Y4049891D01*
X8499792Y4049896D01*
X8613329Y4163434D01*
X8674648Y4196916D01*
X8744340Y4191932D01*
X8800274Y4150061D01*
X8817189Y4119083D01*
X8866202Y3987672D01*
X8866206Y3987665D01*
X8952452Y3872456D01*
X8952455Y3872453D01*
X9067664Y3786207D01*
X9067671Y3786203D01*
X9202517Y3735909D01*
X9202516Y3735909D01*
X9209444Y3735165D01*
X9262127Y3729500D01*
X11057872Y3729501D01*
X11117483Y3735909D01*
X11252331Y3786204D01*
X11367546Y3872454D01*
X11453796Y3987669D01*
X11504091Y4122517D01*
X11510500Y4182127D01*
X11510499Y5080000D01*
X11510499Y5977871D01*
X11510498Y5977877D01*
X11504091Y6037484D01*
X11453797Y6172329D01*
X11453793Y6172336D01*
X11367547Y6287545D01*
X11367544Y6287548D01*
X11252335Y6373794D01*
X11252328Y6373798D01*
X11117482Y6424092D01*
X11117483Y6424092D01*
X11057883Y6430499D01*
X11057881Y6430500D01*
X11057873Y6430500D01*
X11057864Y6430500D01*
X9262129Y6430500D01*
X9262123Y6430499D01*
X9202516Y6424092D01*
X9067671Y6373798D01*
X9067664Y6373794D01*
X8952455Y6287548D01*
X8952452Y6287545D01*
X8866206Y6172336D01*
X8866203Y6172331D01*
X8817189Y6040917D01*
X8775317Y5984984D01*
X8709853Y5960567D01*
X8641580Y5975419D01*
X8613326Y5996570D01*
X8499786Y6110110D01*
X8327820Y6235049D01*
X8138414Y6331556D01*
X8138413Y6331557D01*
X8138412Y6331557D01*
X7936243Y6397246D01*
X7936241Y6397247D01*
X7936240Y6397247D01*
X7774957Y6422792D01*
X7726287Y6430500D01*
X7513713Y6430500D01*
X7465042Y6422792D01*
X7303760Y6397247D01*
X7101585Y6331556D01*
X6912179Y6235049D01*
X6740213Y6110110D01*
X6589890Y5959787D01*
X6464949Y5787818D01*
X6460484Y5779054D01*
X6412509Y5728258D01*
X6344688Y5711464D01*
X6278553Y5734002D01*
X6239516Y5779054D01*
X6235050Y5787818D01*
X6110109Y5959787D01*
X5959786Y6110110D01*
X5787820Y6235049D01*
X5598414Y6331556D01*
X5598413Y6331557D01*
X5598412Y6331557D01*
X5396243Y6397246D01*
X5396241Y6397247D01*
X5396240Y6397247D01*
X5234957Y6422792D01*
X5186287Y6430500D01*
X4973713Y6430500D01*
X4925042Y6422792D01*
X4763760Y6397247D01*
X4561585Y6331556D01*
X4372179Y6235049D01*
X4200213Y6110110D01*
X4049890Y5959787D01*
X3924949Y5787818D01*
X3920202Y5778501D01*
X3872227Y5727707D01*
X3804405Y5710913D01*
X3738271Y5733452D01*
X3699234Y5778505D01*
X3694626Y5787548D01*
X3655270Y5841718D01*
X3655269Y5841718D01*
X3022962Y5209410D01*
X3005925Y5272993D01*
X2940099Y5387007D01*
X2847007Y5480099D01*
X2732993Y5545925D01*
X2669409Y5562963D01*
X3301716Y6195272D01*
X3247550Y6234625D01*
X3058217Y6331096D01*
X2856129Y6396758D01*
X2646246Y6430000D01*
X2433754Y6430000D01*
X2223872Y6396758D01*
X2223869Y6396758D01*
X2021782Y6331096D01*
X1832439Y6234620D01*
X1778282Y6195273D01*
X1778282Y6195272D01*
X2410591Y5562963D01*
X2347007Y5545925D01*
X2232993Y5480099D01*
X2139901Y5387007D01*
X2074075Y5272993D01*
X2057037Y5209409D01*
X1424728Y5841718D01*
X1424727Y5841718D01*
X1385380Y5787561D01*
X1288904Y5598218D01*
X1223242Y5396131D01*
X1223242Y5396128D01*
X1190000Y5186247D01*
X300500Y5186247D01*
X300500Y44536178D01*
X320185Y44603217D01*
X372989Y44648972D01*
X442147Y44658916D01*
X505703Y44629891D01*
X527603Y44605067D01*
X542267Y44583120D01*
X542271Y44583115D01*
X654114Y44471272D01*
X654118Y44471269D01*
X785630Y44383395D01*
X785636Y44383392D01*
X785637Y44383391D01*
X931774Y44322859D01*
X931778Y44322859D01*
X931779Y44322858D01*
X1086908Y44292000D01*
X1086911Y44292000D01*
X1102061Y44292000D01*
X1128416Y44284262D01*
X1155533Y44279878D01*
X1164184Y44273759D01*
X1169100Y44272315D01*
X1184887Y44260281D01*
X1187375Y44258048D01*
X1296498Y44148925D01*
X1331417Y44128765D01*
X1341043Y44120125D01*
X1342071Y44118462D01*
X1345898Y44115525D01*
X1522525Y43938898D01*
X1629898Y43831525D01*
X1761402Y43755601D01*
X1908076Y43716300D01*
X2428856Y43716300D01*
X2495895Y43696615D01*
X2541650Y43643811D01*
X2551594Y43574653D01*
X2546787Y43553982D01*
X2518242Y43466131D01*
X2518242Y43466128D01*
X2485000Y43256247D01*
X2485000Y43043754D01*
X2518242Y42833873D01*
X2518242Y42833870D01*
X2583904Y42631783D01*
X2680375Y42442450D01*
X2719728Y42388284D01*
X3352036Y43020593D01*
X3369075Y42957007D01*
X3434901Y42842993D01*
X3527993Y42749901D01*
X3642007Y42684075D01*
X3705589Y42667038D01*
X3073282Y42034731D01*
X3073282Y42034730D01*
X3127452Y41995374D01*
X3127451Y41995374D01*
X3136495Y41990766D01*
X3187292Y41942792D01*
X3204087Y41874971D01*
X3181550Y41808836D01*
X3136499Y41769798D01*
X3127182Y41765051D01*
X2955213Y41640110D01*
X2804890Y41489787D01*
X2679951Y41317821D01*
X2583444Y41128415D01*
X2517753Y40926240D01*
X2484500Y40716287D01*
X2484500Y40503714D01*
X2513002Y40323756D01*
X2517754Y40293757D01*
X2573695Y40121588D01*
X2583444Y40091586D01*
X2679951Y39902180D01*
X2804890Y39730214D01*
X2955213Y39579891D01*
X3127182Y39454950D01*
X3135946Y39450484D01*
X3186742Y39402509D01*
X3203536Y39334688D01*
X3180998Y39268553D01*
X3135946Y39229516D01*
X3127182Y39225051D01*
X2955213Y39100110D01*
X2804890Y38949787D01*
X2679951Y38777821D01*
X2583444Y38588415D01*
X2583443Y38588413D01*
X2583443Y38588412D01*
X2574800Y38561811D01*
X2517753Y38386240D01*
X2484500Y38176287D01*
X2484500Y37963714D01*
X2517753Y37753761D01*
X2517753Y37753759D01*
X2517754Y37753757D01*
X2581322Y37558115D01*
X2583444Y37551586D01*
X2679951Y37362180D01*
X2804890Y37190214D01*
X2955213Y37039891D01*
X3127182Y36914950D01*
X3135946Y36910484D01*
X3186742Y36862509D01*
X3203536Y36794688D01*
X3180998Y36728553D01*
X3135946Y36689516D01*
X3127182Y36685051D01*
X2955213Y36560110D01*
X2804890Y36409787D01*
X2679951Y36237821D01*
X2583444Y36048415D01*
X2517753Y35846240D01*
X2484500Y35636287D01*
X2484500Y35423714D01*
X2509136Y35268165D01*
X2517754Y35213757D01*
X2573695Y35041588D01*
X2583444Y35011586D01*
X2679951Y34822180D01*
X2804890Y34650214D01*
X2955213Y34499891D01*
X3127182Y34374950D01*
X3135946Y34370484D01*
X3186742Y34322509D01*
X3203536Y34254688D01*
X3180998Y34188553D01*
X3135946Y34149516D01*
X3127182Y34145051D01*
X2955213Y34020110D01*
X2804890Y33869787D01*
X2679951Y33697821D01*
X2583444Y33508415D01*
X2583443Y33508413D01*
X2583443Y33508412D01*
X2572618Y33475096D01*
X2517753Y33306240D01*
X2484500Y33096287D01*
X2484500Y32883714D01*
X2512984Y32703870D01*
X2517754Y32673757D01*
X2573695Y32501588D01*
X2583444Y32471586D01*
X2679951Y32282180D01*
X2804890Y32110214D01*
X2955213Y31959891D01*
X3127179Y31834952D01*
X3127181Y31834951D01*
X3127184Y31834949D01*
X3136493Y31830206D01*
X3187290Y31782234D01*
X3204087Y31714413D01*
X3181552Y31648278D01*
X3136505Y31609240D01*
X3127446Y31604624D01*
X3127440Y31604620D01*
X3073282Y31565273D01*
X3073282Y31565272D01*
X3705591Y30932963D01*
X3642007Y30915925D01*
X3527993Y30850099D01*
X3434901Y30757007D01*
X3369075Y30642993D01*
X3352037Y30579409D01*
X2719728Y31211718D01*
X2719727Y31211718D01*
X2680380Y31157561D01*
X2583904Y30968218D01*
X2518242Y30766131D01*
X2518242Y30766128D01*
X2485000Y30556247D01*
X2485000Y30343754D01*
X2518242Y30133873D01*
X2518242Y30133870D01*
X2537040Y30076018D01*
X2539035Y30006177D01*
X2502955Y29946344D01*
X2440254Y29915516D01*
X2419109Y29913700D01*
X2083276Y29913700D01*
X2016237Y29933385D01*
X1995595Y29950019D01*
X1984885Y29960729D01*
X1984881Y29960732D01*
X1853369Y30048606D01*
X1853360Y30048611D01*
X1707226Y30109141D01*
X1707220Y30109143D01*
X1552091Y30140000D01*
X1552089Y30140000D01*
X1393911Y30140000D01*
X1393909Y30140000D01*
X1238779Y30109143D01*
X1238773Y30109141D01*
X1092639Y30048611D01*
X1092630Y30048606D01*
X961118Y29960732D01*
X961114Y29960729D01*
X849271Y29848886D01*
X849268Y29848882D01*
X761394Y29717370D01*
X761389Y29717361D01*
X700859Y29571227D01*
X700857Y29571221D01*
X670000Y29416092D01*
X670000Y29416089D01*
X670000Y29257911D01*
X670000Y29257909D01*
X669999Y29257909D01*
X700857Y29102780D01*
X700859Y29102774D01*
X761389Y28956640D01*
X761394Y28956631D01*
X849268Y28825119D01*
X849271Y28825115D01*
X961114Y28713272D01*
X961118Y28713269D01*
X1092630Y28625395D01*
X1092639Y28625390D01*
X1125744Y28611678D01*
X1238774Y28564859D01*
X1238778Y28564859D01*
X1238779Y28564858D01*
X1393908Y28534000D01*
X1393911Y28534000D01*
X1552091Y28534000D01*
X1656459Y28554761D01*
X1707226Y28564859D01*
X1853363Y28625391D01*
X1984882Y28713269D01*
X1985028Y28713415D01*
X1995595Y28723981D01*
X2056918Y28757466D01*
X2083276Y28760300D01*
X2550198Y28760300D01*
X2617237Y28740615D01*
X2662992Y28687811D01*
X2672936Y28618653D01*
X2660683Y28580005D01*
X2583444Y28428415D01*
X2517753Y28226240D01*
X2484500Y28016287D01*
X2484500Y27803713D01*
X2517754Y27593757D01*
X2573695Y27421588D01*
X2583444Y27391586D01*
X2679951Y27202180D01*
X2804890Y27030214D01*
X2955213Y26879891D01*
X3127182Y26754950D01*
X3135946Y26750484D01*
X3186742Y26702509D01*
X3203536Y26634688D01*
X3180998Y26568553D01*
X3135946Y26529516D01*
X3127182Y26525051D01*
X2955213Y26400110D01*
X2804890Y26249787D01*
X2679951Y26077821D01*
X2583444Y25888415D01*
X2517753Y25686240D01*
X2484500Y25476287D01*
X2484500Y25263714D01*
X2517753Y25053761D01*
X2517753Y25053759D01*
X2517754Y25053757D01*
X2573695Y24881588D01*
X2583444Y24851586D01*
X2679951Y24662180D01*
X2804890Y24490214D01*
X2955213Y24339891D01*
X3127182Y24214950D01*
X3135946Y24210484D01*
X3186742Y24162509D01*
X3203536Y24094688D01*
X3180998Y24028553D01*
X3135946Y23989516D01*
X3127182Y23985051D01*
X2955213Y23860110D01*
X2804890Y23709787D01*
X2679951Y23537821D01*
X2583444Y23348415D01*
X2517753Y23146240D01*
X2484500Y22936287D01*
X2484500Y22723713D01*
X2517754Y22513757D01*
X2573695Y22341588D01*
X2583444Y22311586D01*
X2679951Y22122180D01*
X2804890Y21950214D01*
X2955213Y21799891D01*
X3127182Y21674950D01*
X3135946Y21670484D01*
X3186742Y21622509D01*
X3203536Y21554688D01*
X3180998Y21488553D01*
X3135946Y21449516D01*
X3127182Y21445051D01*
X2955213Y21320110D01*
X2804890Y21169787D01*
X2679951Y20997821D01*
X2583444Y20808415D01*
X2517753Y20606240D01*
X2484500Y20396287D01*
X2484500Y20183714D01*
X2517753Y19973761D01*
X2517753Y19973759D01*
X2517754Y19973757D01*
X2573695Y19801588D01*
X2583444Y19771586D01*
X2679951Y19582180D01*
X2804890Y19410214D01*
X2955213Y19259891D01*
X3127179Y19134952D01*
X3127181Y19134951D01*
X3127184Y19134949D01*
X3136493Y19130206D01*
X3187290Y19082234D01*
X3204087Y19014413D01*
X3181552Y18948278D01*
X3136505Y18909240D01*
X3127446Y18904624D01*
X3127440Y18904620D01*
X3073282Y18865273D01*
X3073282Y18865272D01*
X3705591Y18232963D01*
X3642007Y18215925D01*
X3527993Y18150099D01*
X3434901Y18057007D01*
X3369075Y17942993D01*
X3352037Y17879409D01*
X2719728Y18511718D01*
X2719727Y18511718D01*
X2680380Y18457561D01*
X2583904Y18268218D01*
X2518242Y18066131D01*
X2518242Y18066128D01*
X2485000Y17856247D01*
X2485000Y17643754D01*
X2518242Y17433873D01*
X2518242Y17433870D01*
X2583904Y17231783D01*
X2680375Y17042450D01*
X2719728Y16988284D01*
X3352037Y17620592D01*
X3369075Y17557007D01*
X3434901Y17442993D01*
X3527993Y17349901D01*
X3642007Y17284075D01*
X3705590Y17267038D01*
X3073282Y16634731D01*
X3073282Y16634730D01*
X3127452Y16595374D01*
X3127451Y16595374D01*
X3136495Y16590766D01*
X3187292Y16542792D01*
X3204087Y16474971D01*
X3181550Y16408836D01*
X3136499Y16369798D01*
X3127182Y16365051D01*
X2955213Y16240110D01*
X2804890Y16089787D01*
X2679951Y15917821D01*
X2583444Y15728415D01*
X2517753Y15526240D01*
X2484500Y15316287D01*
X2484500Y15103714D01*
X2506117Y14967226D01*
X2517754Y14893757D01*
X2579131Y14704858D01*
X2583444Y14691586D01*
X2679951Y14502180D01*
X2804890Y14330214D01*
X2955213Y14179891D01*
X3127182Y14054950D01*
X3135946Y14050484D01*
X3186742Y14002509D01*
X3203536Y13934688D01*
X3180998Y13868553D01*
X3135946Y13829516D01*
X3127182Y13825051D01*
X2955213Y13700110D01*
X2804890Y13549787D01*
X2679951Y13377821D01*
X2583444Y13188415D01*
X2517753Y12986240D01*
X2484500Y12776287D01*
X2484500Y12563714D01*
X2517262Y12356859D01*
X2517754Y12353757D01*
X2581804Y12156631D01*
X2583444Y12151586D01*
X2679951Y11962180D01*
X2804890Y11790214D01*
X2955213Y11639891D01*
X3127179Y11514952D01*
X3127181Y11514951D01*
X3127184Y11514949D01*
X3316588Y11418443D01*
X3518757Y11352754D01*
X3728713Y11319500D01*
X3728714Y11319500D01*
X3941286Y11319500D01*
X3941287Y11319500D01*
X4151243Y11352754D01*
X4218929Y11374748D01*
X4288767Y11376743D01*
X4344926Y11344497D01*
X5787242Y9902181D01*
X5820727Y9840858D01*
X5815743Y9771166D01*
X5773871Y9715233D01*
X5708407Y9690816D01*
X5699561Y9690500D01*
X5183871Y9690500D01*
X5159677Y9692883D01*
X5159089Y9693000D01*
X5000911Y9693000D01*
X5000909Y9693000D01*
X4845779Y9662143D01*
X4845773Y9662141D01*
X4699639Y9601611D01*
X4699630Y9601606D01*
X4568118Y9513732D01*
X4568114Y9513729D01*
X4456271Y9401886D01*
X4456268Y9401882D01*
X4368394Y9270370D01*
X4368389Y9270361D01*
X4307859Y9124227D01*
X4307857Y9124221D01*
X4277000Y8969092D01*
X4277000Y8969089D01*
X4277000Y8810911D01*
X4277000Y8810909D01*
X4276999Y8810909D01*
X4307857Y8655780D01*
X4307859Y8655774D01*
X4368389Y8509640D01*
X4368394Y8509631D01*
X4456268Y8378119D01*
X4456271Y8378115D01*
X4568114Y8266272D01*
X4568118Y8266269D01*
X4699630Y8178395D01*
X4699636Y8178392D01*
X4699637Y8178391D01*
X4845774Y8117859D01*
X4845778Y8117859D01*
X4845779Y8117858D01*
X5000908Y8087000D01*
X5000911Y8087000D01*
X5159089Y8087000D01*
X5159677Y8087118D01*
X5183871Y8089500D01*
X17119343Y8089500D01*
X17131911Y8087000D01*
X17290089Y8087000D01*
X17302657Y8089500D01*
X25017060Y8089500D01*
X25084099Y8069815D01*
X25104741Y8053181D01*
X26532954Y6624968D01*
X26566439Y6563645D01*
X26561455Y6493953D01*
X26519583Y6438020D01*
X26464672Y6414814D01*
X26353759Y6397247D01*
X26151585Y6331556D01*
X25962179Y6235049D01*
X25790213Y6110110D01*
X25639890Y5959787D01*
X25514949Y5787818D01*
X25510484Y5779054D01*
X25462509Y5728258D01*
X25394688Y5711464D01*
X25328553Y5734002D01*
X25289516Y5779054D01*
X25285050Y5787818D01*
X25160109Y5959787D01*
X25009786Y6110110D01*
X24837820Y6235049D01*
X24648414Y6331556D01*
X24648413Y6331557D01*
X24648412Y6331557D01*
X24446243Y6397246D01*
X24446241Y6397247D01*
X24446240Y6397247D01*
X24284957Y6422792D01*
X24236287Y6430500D01*
X24023713Y6430500D01*
X23975042Y6422792D01*
X23813760Y6397247D01*
X23611585Y6331556D01*
X23422179Y6235049D01*
X23250213Y6110110D01*
X23099890Y5959787D01*
X22974949Y5787818D01*
X22970484Y5779054D01*
X22922509Y5728258D01*
X22854688Y5711464D01*
X22788553Y5734002D01*
X22749516Y5779054D01*
X22745050Y5787818D01*
X22620109Y5959787D01*
X22469786Y6110110D01*
X22297820Y6235049D01*
X22108414Y6331556D01*
X22108413Y6331557D01*
X22108412Y6331557D01*
X21906243Y6397246D01*
X21906241Y6397247D01*
X21906240Y6397247D01*
X21744957Y6422792D01*
X21696287Y6430500D01*
X21483713Y6430500D01*
X21435042Y6422792D01*
X21273760Y6397247D01*
X21071585Y6331556D01*
X20882179Y6235049D01*
X20710213Y6110110D01*
X20559890Y5959787D01*
X20434949Y5787818D01*
X20430484Y5779054D01*
X20382509Y5728258D01*
X20314688Y5711464D01*
X20248553Y5734002D01*
X20209516Y5779054D01*
X20205050Y5787818D01*
X20080109Y5959787D01*
X19929786Y6110110D01*
X19757820Y6235049D01*
X19568414Y6331556D01*
X19568413Y6331557D01*
X19568412Y6331557D01*
X19366243Y6397246D01*
X19366241Y6397247D01*
X19366240Y6397247D01*
X19204957Y6422792D01*
X19156287Y6430500D01*
X18943713Y6430500D01*
X18895042Y6422792D01*
X18733760Y6397247D01*
X18531585Y6331556D01*
X18342179Y6235049D01*
X18170215Y6110111D01*
X18056285Y5996181D01*
X17994962Y5962697D01*
X17925270Y5967681D01*
X17869337Y6009553D01*
X17852422Y6040530D01*
X17803354Y6172087D01*
X17803350Y6172094D01*
X17717190Y6287188D01*
X17717187Y6287191D01*
X17602093Y6373351D01*
X17602086Y6373355D01*
X17467379Y6423597D01*
X17467372Y6423599D01*
X17407844Y6430000D01*
X16760000Y6430000D01*
X16760000Y5513012D01*
X16702993Y5545925D01*
X16575826Y5580000D01*
X16444174Y5580000D01*
X16317007Y5545925D01*
X16260000Y5513012D01*
X16260000Y6430000D01*
X15612155Y6430000D01*
X15552627Y6423599D01*
X15552620Y6423597D01*
X15417913Y6373355D01*
X15417906Y6373351D01*
X15302812Y6287191D01*
X15302809Y6287188D01*
X15216649Y6172094D01*
X15216645Y6172087D01*
X15166403Y6037380D01*
X15166401Y6037373D01*
X15160000Y5977845D01*
X15160000Y5330000D01*
X16076988Y5330000D01*
X16044075Y5272993D01*
X16010000Y5145826D01*
X16010000Y5014174D01*
X16044075Y4887007D01*
X16076988Y4830000D01*
X15160000Y4830000D01*
X15160000Y4182156D01*
X15166401Y4122628D01*
X15166403Y4122621D01*
X15216645Y3987914D01*
X15216649Y3987907D01*
X15302809Y3872813D01*
X15302812Y3872810D01*
X15417906Y3786650D01*
X15417913Y3786646D01*
X15552620Y3736404D01*
X15552627Y3736402D01*
X15612155Y3730001D01*
X15612172Y3730000D01*
X16260000Y3730000D01*
X16260000Y4646988D01*
X16317007Y4614075D01*
X16444174Y4580000D01*
X16575826Y4580000D01*
X16702993Y4614075D01*
X16760000Y4646988D01*
X16760000Y3730000D01*
X17407828Y3730000D01*
X17407844Y3730001D01*
X17467372Y3736402D01*
X17467379Y3736404D01*
X17602086Y3786646D01*
X17602093Y3786650D01*
X17717187Y3872810D01*
X17717190Y3872813D01*
X17803350Y3987907D01*
X17803354Y3987914D01*
X17852422Y4119471D01*
X17894293Y4175405D01*
X17959757Y4199822D01*
X18028030Y4184970D01*
X18056285Y4163819D01*
X18170213Y4049891D01*
X18342179Y3924952D01*
X18342181Y3924951D01*
X18342184Y3924949D01*
X18531588Y3828443D01*
X18733757Y3762754D01*
X18943713Y3729500D01*
X18943714Y3729500D01*
X19156286Y3729500D01*
X19156287Y3729500D01*
X19366243Y3762754D01*
X19568412Y3828443D01*
X19757816Y3924949D01*
X19844138Y3987665D01*
X19929786Y4049891D01*
X19929788Y4049894D01*
X19929792Y4049896D01*
X20080104Y4200208D01*
X20080106Y4200212D01*
X20080109Y4200214D01*
X20205048Y4372180D01*
X20205050Y4372183D01*
X20205051Y4372184D01*
X20209514Y4380946D01*
X20257488Y4431741D01*
X20325308Y4448537D01*
X20391444Y4426001D01*
X20430486Y4380944D01*
X20434951Y4372180D01*
X20559890Y4200214D01*
X20710213Y4049891D01*
X20882179Y3924952D01*
X20882181Y3924951D01*
X20882184Y3924949D01*
X21071588Y3828443D01*
X21273757Y3762754D01*
X21483713Y3729500D01*
X21483714Y3729500D01*
X21696286Y3729500D01*
X21696287Y3729500D01*
X21906243Y3762754D01*
X22108412Y3828443D01*
X22297816Y3924949D01*
X22384138Y3987665D01*
X22469786Y4049891D01*
X22469788Y4049894D01*
X22469792Y4049896D01*
X22620104Y4200208D01*
X22620106Y4200212D01*
X22620109Y4200214D01*
X22745048Y4372180D01*
X22745050Y4372183D01*
X22745051Y4372184D01*
X22749514Y4380946D01*
X22797488Y4431741D01*
X22865308Y4448537D01*
X22931444Y4426001D01*
X22970486Y4380944D01*
X22974951Y4372180D01*
X23099890Y4200214D01*
X23250213Y4049891D01*
X23422179Y3924952D01*
X23422181Y3924951D01*
X23422184Y3924949D01*
X23611588Y3828443D01*
X23813757Y3762754D01*
X24023713Y3729500D01*
X24023714Y3729500D01*
X24236286Y3729500D01*
X24236287Y3729500D01*
X24446243Y3762754D01*
X24648412Y3828443D01*
X24837816Y3924949D01*
X24924138Y3987665D01*
X25009786Y4049891D01*
X25009788Y4049894D01*
X25009792Y4049896D01*
X25160104Y4200208D01*
X25160106Y4200212D01*
X25160109Y4200214D01*
X25285048Y4372180D01*
X25285050Y4372183D01*
X25285051Y4372184D01*
X25289514Y4380946D01*
X25337488Y4431741D01*
X25405308Y4448537D01*
X25471444Y4426001D01*
X25510486Y4380944D01*
X25514951Y4372180D01*
X25639890Y4200214D01*
X25790213Y4049891D01*
X25962179Y3924952D01*
X25962181Y3924951D01*
X25962184Y3924949D01*
X26151588Y3828443D01*
X26353757Y3762754D01*
X26563713Y3729500D01*
X26563714Y3729500D01*
X26776286Y3729500D01*
X26776287Y3729500D01*
X26986243Y3762754D01*
X27188412Y3828443D01*
X27377816Y3924949D01*
X27464138Y3987665D01*
X27549786Y4049891D01*
X27549788Y4049894D01*
X27549792Y4049896D01*
X27700104Y4200208D01*
X27700106Y4200212D01*
X27700109Y4200214D01*
X27825048Y4372180D01*
X27825050Y4372183D01*
X27825051Y4372184D01*
X27829514Y4380946D01*
X27877488Y4431741D01*
X27945308Y4448537D01*
X28011444Y4426001D01*
X28050486Y4380944D01*
X28054951Y4372180D01*
X28179890Y4200214D01*
X28330213Y4049891D01*
X28502179Y3924952D01*
X28502181Y3924951D01*
X28502184Y3924949D01*
X28691588Y3828443D01*
X28893757Y3762754D01*
X29103713Y3729500D01*
X29103714Y3729500D01*
X29316286Y3729500D01*
X29316287Y3729500D01*
X29526243Y3762754D01*
X29728412Y3828443D01*
X29917816Y3924949D01*
X30004138Y3987665D01*
X30089786Y4049891D01*
X30089788Y4049894D01*
X30089792Y4049896D01*
X30240104Y4200208D01*
X30240106Y4200212D01*
X30240109Y4200214D01*
X30365048Y4372180D01*
X30365050Y4372183D01*
X30365051Y4372184D01*
X30461557Y4561588D01*
X30527246Y4763757D01*
X30560500Y4973713D01*
X30560500Y5186287D01*
X30527246Y5396243D01*
X30461557Y5598412D01*
X30365051Y5787816D01*
X30365049Y5787819D01*
X30365048Y5787821D01*
X30240109Y5959787D01*
X30089786Y6110110D01*
X29917820Y6235049D01*
X29728414Y6331556D01*
X29728413Y6331557D01*
X29728412Y6331557D01*
X29526243Y6397246D01*
X29526241Y6397247D01*
X29526240Y6397247D01*
X29364957Y6422792D01*
X29316287Y6430500D01*
X29103713Y6430500D01*
X29103711Y6430500D01*
X29069310Y6425052D01*
X29000016Y6434008D01*
X28962233Y6459845D01*
X25910292Y9511787D01*
X25910288Y9511790D01*
X25830351Y9565203D01*
X25785546Y9618816D01*
X25776839Y9688141D01*
X25806994Y9751168D01*
X25811542Y9755967D01*
X27430074Y11374499D01*
X27491395Y11407982D01*
X27556070Y11404748D01*
X27623757Y11382754D01*
X27833713Y11349500D01*
X27833714Y11349500D01*
X28046286Y11349500D01*
X28046287Y11349500D01*
X28256243Y11382754D01*
X28458412Y11448443D01*
X28647816Y11544949D01*
X28669789Y11560914D01*
X28819786Y11669891D01*
X28819788Y11669894D01*
X28819792Y11669896D01*
X28970104Y11820208D01*
X28970106Y11820212D01*
X28970109Y11820214D01*
X29079086Y11970211D01*
X29095051Y11992184D01*
X29191557Y12181588D01*
X29257246Y12383757D01*
X29290500Y12593713D01*
X29290500Y12806287D01*
X29257246Y13016243D01*
X29191557Y13218412D01*
X29095051Y13407816D01*
X29095049Y13407819D01*
X29095048Y13407821D01*
X28970109Y13579787D01*
X28819786Y13730110D01*
X28647820Y13855049D01*
X28647115Y13855409D01*
X28639054Y13859515D01*
X28588259Y13907488D01*
X28571463Y13975308D01*
X28593999Y14041444D01*
X28639054Y14080485D01*
X28647816Y14084949D01*
X28735355Y14148549D01*
X28819786Y14209891D01*
X28819788Y14209894D01*
X28819792Y14209896D01*
X28970104Y14360208D01*
X28970106Y14360212D01*
X28970109Y14360214D01*
X29095048Y14532180D01*
X29095047Y14532180D01*
X29095051Y14532184D01*
X29191557Y14721588D01*
X29257246Y14923757D01*
X29290500Y15133713D01*
X29290500Y15346287D01*
X29257246Y15556243D01*
X29191557Y15758412D01*
X29095051Y15947816D01*
X29095049Y15947819D01*
X29095048Y15947821D01*
X28970109Y16119787D01*
X28819786Y16270110D01*
X28647820Y16395049D01*
X28647115Y16395409D01*
X28639054Y16399515D01*
X28588259Y16447488D01*
X28571463Y16515308D01*
X28593999Y16581444D01*
X28639054Y16620485D01*
X28647816Y16624949D01*
X28757625Y16704729D01*
X28819786Y16749891D01*
X28819788Y16749894D01*
X28819792Y16749896D01*
X28970104Y16900208D01*
X28970106Y16900212D01*
X28970109Y16900214D01*
X29095048Y17072180D01*
X29095050Y17072183D01*
X29095051Y17072184D01*
X29191557Y17261588D01*
X29257246Y17463757D01*
X29290500Y17673713D01*
X29290500Y17886287D01*
X29257246Y18096243D01*
X29191557Y18298412D01*
X29095051Y18487816D01*
X29095049Y18487819D01*
X29095048Y18487821D01*
X28970109Y18659787D01*
X28819786Y18810110D01*
X28647820Y18935049D01*
X28647115Y18935409D01*
X28639054Y18939515D01*
X28588259Y18987488D01*
X28571463Y19055308D01*
X28593999Y19121444D01*
X28639054Y19160485D01*
X28647816Y19164949D01*
X28669789Y19180914D01*
X28819786Y19289891D01*
X28819788Y19289894D01*
X28819792Y19289896D01*
X28970104Y19440208D01*
X28970106Y19440212D01*
X28970109Y19440214D01*
X29095048Y19612180D01*
X29095047Y19612180D01*
X29095051Y19612184D01*
X29191557Y19801588D01*
X29257246Y20003757D01*
X29290500Y20213713D01*
X29290500Y20426287D01*
X29257246Y20636243D01*
X29191557Y20838412D01*
X29095051Y21027816D01*
X29095049Y21027819D01*
X29095048Y21027821D01*
X28970109Y21199787D01*
X28819786Y21350110D01*
X28647820Y21475049D01*
X28647115Y21475409D01*
X28639054Y21479515D01*
X28588259Y21527488D01*
X28571463Y21595308D01*
X28593999Y21661444D01*
X28639054Y21700485D01*
X28647816Y21704949D01*
X28669789Y21720914D01*
X28819786Y21829891D01*
X28819788Y21829894D01*
X28819792Y21829896D01*
X28970104Y21980208D01*
X28970106Y21980212D01*
X28970109Y21980214D01*
X29095048Y22152180D01*
X29095047Y22152180D01*
X29095051Y22152184D01*
X29191557Y22341588D01*
X29257246Y22543757D01*
X29290500Y22753713D01*
X29290500Y22966287D01*
X29257246Y23176243D01*
X29191557Y23378412D01*
X29095051Y23567816D01*
X29095049Y23567819D01*
X29095048Y23567821D01*
X28970109Y23739787D01*
X28819786Y23890110D01*
X28647820Y24015049D01*
X28647115Y24015409D01*
X28639054Y24019515D01*
X28588259Y24067488D01*
X28571463Y24135308D01*
X28593999Y24201444D01*
X28639054Y24240485D01*
X28647816Y24244949D01*
X28724770Y24300859D01*
X28819786Y24369891D01*
X28819788Y24369894D01*
X28819792Y24369896D01*
X28970104Y24520208D01*
X28970106Y24520212D01*
X28970109Y24520214D01*
X29095048Y24692180D01*
X29095047Y24692180D01*
X29095051Y24692184D01*
X29191557Y24881588D01*
X29257246Y25083757D01*
X29290500Y25293713D01*
X29290500Y25506287D01*
X29257246Y25716243D01*
X29191557Y25918412D01*
X29095051Y26107816D01*
X29095049Y26107819D01*
X29095048Y26107821D01*
X28970109Y26279787D01*
X28819786Y26430110D01*
X28647820Y26555049D01*
X28647115Y26555409D01*
X28639054Y26559515D01*
X28588259Y26607488D01*
X28571463Y26675308D01*
X28593999Y26741444D01*
X28639054Y26780485D01*
X28647816Y26784949D01*
X28669789Y26800914D01*
X28819786Y26909891D01*
X28819788Y26909894D01*
X28819792Y26909896D01*
X28970104Y27060208D01*
X28970106Y27060212D01*
X28970109Y27060214D01*
X29095048Y27232180D01*
X29095047Y27232180D01*
X29095051Y27232184D01*
X29191557Y27421588D01*
X29257246Y27623757D01*
X29290500Y27833713D01*
X29290500Y28046287D01*
X29257246Y28256243D01*
X29191557Y28458412D01*
X29095051Y28647816D01*
X29095049Y28647819D01*
X29095048Y28647821D01*
X28970109Y28819787D01*
X28819786Y28970110D01*
X28647820Y29095049D01*
X28647115Y29095409D01*
X28639054Y29099515D01*
X28588259Y29147488D01*
X28571463Y29215308D01*
X28593999Y29281444D01*
X28639054Y29320485D01*
X28647816Y29324949D01*
X28669789Y29340914D01*
X28819786Y29449891D01*
X28819788Y29449894D01*
X28819792Y29449896D01*
X28970104Y29600208D01*
X28970106Y29600212D01*
X28970109Y29600214D01*
X29095048Y29772180D01*
X29095047Y29772180D01*
X29095051Y29772184D01*
X29191557Y29961588D01*
X29257246Y30163757D01*
X29290500Y30373713D01*
X29290500Y30586287D01*
X29257246Y30796243D01*
X29191557Y30998412D01*
X29095051Y31187816D01*
X29095049Y31187819D01*
X29095048Y31187821D01*
X28970109Y31359787D01*
X28819786Y31510110D01*
X28647820Y31635049D01*
X28647115Y31635409D01*
X28639054Y31639515D01*
X28588259Y31687488D01*
X28571463Y31755308D01*
X28593999Y31821444D01*
X28639054Y31860485D01*
X28647816Y31864949D01*
X28702572Y31904731D01*
X28819786Y31989891D01*
X28819788Y31989894D01*
X28819792Y31989896D01*
X28970104Y32140208D01*
X28970106Y32140212D01*
X28970109Y32140214D01*
X29095048Y32312180D01*
X29095047Y32312180D01*
X29095051Y32312184D01*
X29191557Y32501588D01*
X29257246Y32703757D01*
X29290500Y32913713D01*
X29290500Y33126287D01*
X29257246Y33336243D01*
X29191557Y33538412D01*
X29095051Y33727816D01*
X29095049Y33727819D01*
X29095048Y33727821D01*
X28970109Y33899787D01*
X28819786Y34050110D01*
X28647820Y34175049D01*
X28639600Y34179237D01*
X28639054Y34179515D01*
X28588259Y34227488D01*
X28571463Y34295308D01*
X28593999Y34361444D01*
X28639054Y34400485D01*
X28647816Y34404949D01*
X28669789Y34420914D01*
X28819786Y34529891D01*
X28819788Y34529894D01*
X28819792Y34529896D01*
X28970104Y34680208D01*
X28970106Y34680212D01*
X28970109Y34680214D01*
X29095048Y34852180D01*
X29095047Y34852180D01*
X29095051Y34852184D01*
X29191557Y35041588D01*
X29257246Y35243757D01*
X29290500Y35453713D01*
X29290500Y35666287D01*
X29257246Y35876243D01*
X29191557Y36078412D01*
X29095051Y36267816D01*
X29095049Y36267819D01*
X29095048Y36267821D01*
X28970109Y36439787D01*
X28819786Y36590110D01*
X28647817Y36715051D01*
X28638504Y36719796D01*
X28587707Y36767770D01*
X28570912Y36835591D01*
X28593449Y36901726D01*
X28638507Y36940768D01*
X28647555Y36945378D01*
X28701716Y36984730D01*
X28701717Y36984730D01*
X28069408Y37617038D01*
X28132993Y37634075D01*
X28247007Y37699901D01*
X28340099Y37792993D01*
X28405925Y37907007D01*
X28422962Y37970591D01*
X29055270Y37338283D01*
X29055270Y37338284D01*
X29094622Y37392446D01*
X29191095Y37581783D01*
X29256757Y37783870D01*
X29256757Y37783873D01*
X29290000Y37993754D01*
X29290000Y38206247D01*
X29256757Y38416128D01*
X29256757Y38416131D01*
X29191095Y38618218D01*
X29112736Y38772005D01*
X29099840Y38840674D01*
X29126116Y38905414D01*
X29183222Y38945672D01*
X29223221Y38952300D01*
X29552724Y38952300D01*
X29619763Y38932615D01*
X29640405Y38915981D01*
X29651114Y38905272D01*
X29651118Y38905269D01*
X29782630Y38817395D01*
X29782636Y38817392D01*
X29782637Y38817391D01*
X29928774Y38756859D01*
X29928778Y38756859D01*
X29928779Y38756858D01*
X30083908Y38726000D01*
X30083911Y38726000D01*
X30242091Y38726000D01*
X30346459Y38746761D01*
X30397226Y38756859D01*
X30543363Y38817391D01*
X30674882Y38905269D01*
X30786731Y39017118D01*
X30874609Y39148637D01*
X30935141Y39294774D01*
X30966000Y39449911D01*
X30966000Y39608089D01*
X30966000Y39608092D01*
X30935142Y39763221D01*
X30935141Y39763222D01*
X30935141Y39763226D01*
X30874609Y39909363D01*
X30874608Y39909364D01*
X30874605Y39909370D01*
X30786731Y40040882D01*
X30786728Y40040886D01*
X30674885Y40152729D01*
X30674881Y40152732D01*
X30543369Y40240606D01*
X30543360Y40240611D01*
X30397226Y40301141D01*
X30397220Y40301143D01*
X30242091Y40332000D01*
X30242089Y40332000D01*
X30083911Y40332000D01*
X30083909Y40332000D01*
X29928779Y40301143D01*
X29928773Y40301141D01*
X29782639Y40240611D01*
X29782630Y40240606D01*
X29651118Y40152732D01*
X29651114Y40152729D01*
X29640405Y40142019D01*
X29613477Y40127316D01*
X29587659Y40110723D01*
X29581458Y40109832D01*
X29579082Y40108534D01*
X29552724Y40105700D01*
X29357066Y40105700D01*
X29290027Y40125385D01*
X29244272Y40178189D01*
X29234328Y40247347D01*
X29239135Y40268018D01*
X29242103Y40277153D01*
X29257246Y40323757D01*
X29290500Y40533713D01*
X29290500Y40746287D01*
X29257246Y40956243D01*
X29191557Y41158412D01*
X29095051Y41347816D01*
X29095049Y41347819D01*
X29095048Y41347821D01*
X28970109Y41519787D01*
X28819786Y41670110D01*
X28647820Y41795049D01*
X28647115Y41795409D01*
X28639054Y41799515D01*
X28588259Y41847488D01*
X28571463Y41915308D01*
X28593999Y41981444D01*
X28639054Y42020485D01*
X28647816Y42024949D01*
X28669789Y42040914D01*
X28819786Y42149891D01*
X28819788Y42149894D01*
X28819792Y42149896D01*
X28970104Y42300208D01*
X28970106Y42300212D01*
X28970109Y42300214D01*
X29095048Y42472180D01*
X29095047Y42472180D01*
X29095051Y42472184D01*
X29191557Y42661588D01*
X29257246Y42863757D01*
X29290500Y43073713D01*
X29290500Y43286287D01*
X29257246Y43496243D01*
X29191557Y43698412D01*
X29095051Y43887816D01*
X29095049Y43887819D01*
X29095048Y43887821D01*
X28970109Y44059787D01*
X28819786Y44210110D01*
X28647820Y44335049D01*
X28647115Y44335409D01*
X28639054Y44339515D01*
X28588259Y44387488D01*
X28571463Y44455308D01*
X28593999Y44521444D01*
X28639054Y44560485D01*
X28647816Y44564949D01*
X28763465Y44648972D01*
X28819786Y44689891D01*
X28819788Y44689894D01*
X28819792Y44689896D01*
X28970104Y44840208D01*
X28970106Y44840212D01*
X28970109Y44840214D01*
X29095048Y45012180D01*
X29095047Y45012180D01*
X29095051Y45012184D01*
X29191557Y45201588D01*
X29257246Y45403757D01*
X29290500Y45613713D01*
X29290500Y45826287D01*
X29257246Y46036243D01*
X29191557Y46238412D01*
X29095051Y46427816D01*
X29095049Y46427819D01*
X29095048Y46427821D01*
X28970109Y46599787D01*
X28819786Y46750110D01*
X28647820Y46875049D01*
X28647115Y46875409D01*
X28639054Y46879515D01*
X28588259Y46927488D01*
X28571463Y46995308D01*
X28593999Y47061444D01*
X28639054Y47100485D01*
X28647816Y47104949D01*
X28680043Y47128363D01*
X28819786Y47229891D01*
X28819788Y47229894D01*
X28819792Y47229896D01*
X28970104Y47380208D01*
X28970106Y47380212D01*
X28970109Y47380214D01*
X29095048Y47552180D01*
X29095050Y47552183D01*
X29095051Y47552184D01*
X29191557Y47741588D01*
X29257246Y47943757D01*
X29290500Y48153713D01*
X29290500Y48366287D01*
X29257246Y48576243D01*
X29191557Y48778412D01*
X29095051Y48967816D01*
X29095049Y48967819D01*
X29095048Y48967821D01*
X28970109Y49139787D01*
X28819786Y49290110D01*
X28647820Y49415049D01*
X28647115Y49415409D01*
X28639054Y49419515D01*
X28588259Y49467488D01*
X28571463Y49535308D01*
X28593999Y49601444D01*
X28639054Y49640485D01*
X28647816Y49644949D01*
X28669789Y49660914D01*
X28819786Y49769891D01*
X28819788Y49769894D01*
X28819792Y49769896D01*
X28970104Y49920208D01*
X28970106Y49920212D01*
X28970109Y49920214D01*
X29095048Y50092180D01*
X29095047Y50092180D01*
X29095051Y50092184D01*
X29191557Y50281588D01*
X29257246Y50483757D01*
X29290500Y50693713D01*
X29290500Y50906287D01*
X29257246Y51116243D01*
X29191557Y51318412D01*
X29095051Y51507816D01*
X29095049Y51507819D01*
X29095048Y51507821D01*
X28970109Y51679787D01*
X28819786Y51830110D01*
X28647820Y51955049D01*
X28644434Y51956774D01*
X28639054Y51959515D01*
X28588259Y52007488D01*
X28571463Y52075308D01*
X28593999Y52141444D01*
X28639054Y52180485D01*
X28647816Y52184949D01*
X28704559Y52226175D01*
X28819786Y52309891D01*
X28819788Y52309894D01*
X28819792Y52309896D01*
X28970104Y52460208D01*
X28970106Y52460212D01*
X28970109Y52460214D01*
X29095048Y52632180D01*
X29095047Y52632180D01*
X29095051Y52632184D01*
X29191557Y52821588D01*
X29257246Y53023757D01*
X29290500Y53233713D01*
X29290500Y53446287D01*
X29257246Y53656243D01*
X29191557Y53858412D01*
X29095051Y54047816D01*
X29095049Y54047819D01*
X29095048Y54047821D01*
X28970109Y54219787D01*
X28819786Y54370110D01*
X28647820Y54495049D01*
X28647115Y54495409D01*
X28639054Y54499515D01*
X28588259Y54547488D01*
X28571463Y54615308D01*
X28593999Y54681444D01*
X28639054Y54720485D01*
X28647816Y54724949D01*
X28669789Y54740914D01*
X28819786Y54849891D01*
X28819788Y54849894D01*
X28819792Y54849896D01*
X28970104Y55000208D01*
X28970106Y55000212D01*
X28970109Y55000214D01*
X29095048Y55172180D01*
X29095049Y55172181D01*
X29095051Y55172184D01*
X29191557Y55361588D01*
X29257246Y55563757D01*
X29290500Y55773713D01*
X29290500Y55986287D01*
X29257246Y56196243D01*
X29191557Y56398412D01*
X29095051Y56587816D01*
X29095049Y56587819D01*
X29095048Y56587821D01*
X28970109Y56759787D01*
X28819786Y56910110D01*
X28647820Y57035049D01*
X28647115Y57035409D01*
X28639054Y57039515D01*
X28588259Y57087488D01*
X28571463Y57155308D01*
X28593999Y57221444D01*
X28639054Y57260485D01*
X28647816Y57264949D01*
X28775014Y57357363D01*
X28819786Y57389891D01*
X28819788Y57389894D01*
X28819792Y57389896D01*
X28970104Y57540208D01*
X28970106Y57540212D01*
X28970109Y57540214D01*
X29095048Y57712180D01*
X29095047Y57712180D01*
X29095051Y57712184D01*
X29191557Y57901588D01*
X29257246Y58103757D01*
X29290500Y58313713D01*
X29290500Y58526287D01*
X29257246Y58736243D01*
X29191557Y58938412D01*
X29095051Y59127816D01*
X29095049Y59127819D01*
X29095048Y59127821D01*
X28970109Y59299787D01*
X28856569Y59413327D01*
X28823084Y59474650D01*
X28828068Y59544342D01*
X28869940Y59600275D01*
X28900915Y59617190D01*
X29032331Y59666204D01*
X29147546Y59752454D01*
X29233796Y59867669D01*
X29284091Y60002517D01*
X29290500Y60062127D01*
X29290499Y61857872D01*
X29284091Y61917483D01*
X29254890Y61995774D01*
X29233797Y62052329D01*
X29233793Y62052336D01*
X29147547Y62167545D01*
X29147544Y62167548D01*
X29032335Y62253794D01*
X29032328Y62253798D01*
X28897482Y62304092D01*
X28897483Y62304092D01*
X28837883Y62310499D01*
X28837881Y62310500D01*
X28837873Y62310500D01*
X28837864Y62310500D01*
X27042129Y62310500D01*
X27042123Y62310499D01*
X26982516Y62304092D01*
X26847671Y62253798D01*
X26847664Y62253794D01*
X26732455Y62167548D01*
X26732452Y62167545D01*
X26646206Y62052336D01*
X26646202Y62052329D01*
X26595908Y61917483D01*
X26589501Y61857884D01*
X26589501Y61857877D01*
X26589500Y61857865D01*
X26589500Y60062130D01*
X26589501Y60062124D01*
X26595908Y60002517D01*
X26646202Y59867672D01*
X26646206Y59867665D01*
X26732452Y59752456D01*
X26732455Y59752453D01*
X26847664Y59666207D01*
X26847671Y59666203D01*
X26979082Y59617190D01*
X27035016Y59575319D01*
X27059433Y59509855D01*
X27044582Y59441582D01*
X27023431Y59413327D01*
X26909892Y59299788D01*
X26852308Y59220530D01*
X26796978Y59177865D01*
X26727364Y59171886D01*
X26683099Y59190314D01*
X26553920Y59276629D01*
X26553911Y59276634D01*
X26481315Y59306704D01*
X26425165Y59329962D01*
X26371836Y59352051D01*
X26371832Y59352052D01*
X26371828Y59352054D01*
X26275188Y59371276D01*
X26178544Y59390500D01*
X26178541Y59390500D01*
X22735860Y59390500D01*
X22668821Y59410185D01*
X22623066Y59462989D01*
X22613122Y59532147D01*
X22642147Y59595703D01*
X22692527Y59630682D01*
X22707328Y59636203D01*
X22707327Y59636203D01*
X22707331Y59636204D01*
X22822546Y59722454D01*
X22908796Y59837669D01*
X22959091Y59972517D01*
X22965500Y60032127D01*
X22965499Y61529301D01*
X22968049Y61537986D01*
X22966761Y61546947D01*
X22977739Y61570988D01*
X22985184Y61596339D01*
X22992024Y61602267D01*
X22995786Y61610503D01*
X23018018Y61624791D01*
X23037987Y61642094D01*
X23048502Y61644382D01*
X23054564Y61648277D01*
X23089499Y61653300D01*
X23138724Y61653300D01*
X23205763Y61633615D01*
X23226405Y61616981D01*
X23237114Y61606272D01*
X23237118Y61606269D01*
X23368630Y61518395D01*
X23368639Y61518390D01*
X23393711Y61508005D01*
X23514774Y61457859D01*
X23514778Y61457859D01*
X23514779Y61457858D01*
X23669908Y61427000D01*
X23669911Y61427000D01*
X23828091Y61427000D01*
X23932459Y61447761D01*
X23983226Y61457859D01*
X24129363Y61518391D01*
X24260882Y61606269D01*
X24372731Y61718118D01*
X24460609Y61849637D01*
X24521141Y61995774D01*
X24532392Y62052336D01*
X24552000Y62150909D01*
X24552000Y62309092D01*
X24521142Y62464221D01*
X24521141Y62464222D01*
X24521141Y62464226D01*
X24460609Y62610363D01*
X24460608Y62610364D01*
X24460605Y62610370D01*
X24372731Y62741882D01*
X24372728Y62741886D01*
X24260885Y62853729D01*
X24260881Y62853732D01*
X24129369Y62941606D01*
X24129360Y62941611D01*
X23983226Y63002141D01*
X23983220Y63002143D01*
X23828091Y63033000D01*
X23828089Y63033000D01*
X23669911Y63033000D01*
X23669909Y63033000D01*
X23514779Y63002143D01*
X23514773Y63002141D01*
X23368639Y62941611D01*
X23368630Y62941606D01*
X23237118Y62853732D01*
X23237114Y62853729D01*
X23226405Y62843019D01*
X23165082Y62809534D01*
X23138724Y62806700D01*
X8965924Y62806700D01*
X8814076Y62806700D01*
X8667402Y62767399D01*
X8667401Y62767399D01*
X8667399Y62767398D01*
X8667398Y62767398D01*
X8535901Y62691478D01*
X8535895Y62691473D01*
X8191241Y62346819D01*
X8129918Y62313334D01*
X8103560Y62310500D01*
X6722129Y62310500D01*
X6722123Y62310499D01*
X6662516Y62304092D01*
X6527671Y62253798D01*
X6527664Y62253794D01*
X6412455Y62167548D01*
X6412452Y62167545D01*
X6326206Y62052336D01*
X6326202Y62052329D01*
X6275908Y61917483D01*
X6269501Y61857884D01*
X6269501Y61857877D01*
X6269500Y61857865D01*
X6269500Y60062130D01*
X6269501Y60062124D01*
X6275908Y60002517D01*
X6326202Y59867672D01*
X6326206Y59867665D01*
X6412452Y59752456D01*
X6412455Y59752453D01*
X6527664Y59666207D01*
X6527671Y59666203D01*
X6659082Y59617190D01*
X6715016Y59575319D01*
X6739433Y59509855D01*
X6724582Y59441582D01*
X6703431Y59413327D01*
X6589889Y59299785D01*
X6464951Y59127821D01*
X6368444Y58938415D01*
X6302753Y58736240D01*
X6273688Y58552731D01*
X6269500Y58526287D01*
X6269500Y58313713D01*
X6302754Y58103757D01*
X6368443Y57901588D01*
X6446118Y57749141D01*
X6453836Y57733995D01*
X6454344Y57731290D01*
X6456145Y57729211D01*
X6460753Y57697162D01*
X6466732Y57665326D01*
X6465697Y57662777D01*
X6466089Y57660053D01*
X6452635Y57630595D01*
X6440456Y57600585D01*
X6438206Y57599000D01*
X6437064Y57596497D01*
X6409820Y57578989D01*
X6383349Y57560328D01*
X6379892Y57559756D01*
X6378286Y57558723D01*
X6343351Y57553700D01*
X6215276Y57553700D01*
X6148237Y57573385D01*
X6127595Y57590019D01*
X6116885Y57600729D01*
X6116881Y57600732D01*
X5985369Y57688606D01*
X5985360Y57688611D01*
X5839226Y57749141D01*
X5839220Y57749143D01*
X5684091Y57780000D01*
X5684089Y57780000D01*
X5525911Y57780000D01*
X5525909Y57780000D01*
X5370779Y57749143D01*
X5370769Y57749140D01*
X5241977Y57695793D01*
X5172507Y57688324D01*
X5110028Y57719600D01*
X5074377Y57779689D01*
X5076871Y57849514D01*
X5084040Y57866650D01*
X5086557Y57871588D01*
X5152246Y58073757D01*
X5185500Y58283713D01*
X5185500Y58496287D01*
X5152246Y58706243D01*
X5086557Y58908412D01*
X4990051Y59097816D01*
X4990049Y59097819D01*
X4990048Y59097821D01*
X4865109Y59269787D01*
X4751569Y59383327D01*
X4718084Y59444650D01*
X4723068Y59514342D01*
X4764940Y59570275D01*
X4795915Y59587190D01*
X4927331Y59636204D01*
X5042546Y59722454D01*
X5128796Y59837669D01*
X5179091Y59972517D01*
X5185500Y60032127D01*
X5185499Y61827872D01*
X5179091Y61887483D01*
X5167901Y61917484D01*
X5128797Y62022329D01*
X5128793Y62022336D01*
X5042547Y62137545D01*
X5042544Y62137548D01*
X4927335Y62223794D01*
X4927328Y62223798D01*
X4792482Y62274092D01*
X4792483Y62274092D01*
X4732883Y62280499D01*
X4732881Y62280500D01*
X4732873Y62280500D01*
X4732864Y62280500D01*
X2937129Y62280500D01*
X2937123Y62280499D01*
X2877516Y62274092D01*
X2742671Y62223798D01*
X2742664Y62223794D01*
X2627455Y62137548D01*
X2627452Y62137545D01*
X2541206Y62022336D01*
X2541202Y62022329D01*
X2490908Y61887483D01*
X2486839Y61849631D01*
X2484501Y61827877D01*
X2484500Y61827865D01*
X2484500Y60032130D01*
X2484501Y60032124D01*
X2490908Y59972517D01*
X2541202Y59837672D01*
X2541206Y59837665D01*
X2627452Y59722456D01*
X2627455Y59722453D01*
X2742664Y59636207D01*
X2742671Y59636203D01*
X2874082Y59587190D01*
X2930016Y59545319D01*
X2954433Y59479855D01*
X2939582Y59411582D01*
X2918431Y59383327D01*
X2804889Y59269785D01*
X2679951Y59097821D01*
X2583444Y58908415D01*
X2517753Y58706240D01*
X2484500Y58496287D01*
X2484500Y58283713D01*
X2517754Y58073757D01*
X2573695Y57901588D01*
X2583444Y57871586D01*
X2679951Y57682180D01*
X2804890Y57510214D01*
X2955213Y57359891D01*
X3127179Y57234952D01*
X3127181Y57234951D01*
X3127184Y57234949D01*
X3136493Y57230206D01*
X3187290Y57182234D01*
X3204087Y57114413D01*
X3181552Y57048278D01*
X3136505Y57009240D01*
X3127446Y57004624D01*
X3127440Y57004620D01*
X3073282Y56965273D01*
X3073282Y56965272D01*
X3705591Y56332963D01*
X3642007Y56315925D01*
X3527993Y56250099D01*
X3434901Y56157007D01*
X3369075Y56042993D01*
X3352037Y55979409D01*
X2719728Y56611718D01*
X2719727Y56611718D01*
X2680380Y56557561D01*
X2583904Y56368218D01*
X2518242Y56166131D01*
X2518242Y56166128D01*
X2485000Y55956247D01*
X2485000Y55743754D01*
X2518242Y55533873D01*
X2518242Y55533870D01*
X2583904Y55331783D01*
X2680375Y55142450D01*
X2719728Y55088284D01*
X3352037Y55720592D01*
X3369075Y55657007D01*
X3434901Y55542993D01*
X3527993Y55449901D01*
X3642007Y55384075D01*
X3705589Y55367038D01*
X3073282Y54734731D01*
X3073282Y54734730D01*
X3127452Y54695374D01*
X3127451Y54695374D01*
X3136495Y54690766D01*
X3187292Y54642792D01*
X3204087Y54574971D01*
X3181550Y54508836D01*
X3136499Y54469798D01*
X3127182Y54465051D01*
X2955213Y54340110D01*
X2804890Y54189787D01*
X2679951Y54017821D01*
X2583444Y53828415D01*
X2517753Y53626240D01*
X2485895Y53425093D01*
X2484500Y53416287D01*
X2484500Y53203713D01*
X2485336Y53198433D01*
X2513002Y53023756D01*
X2517754Y52993757D01*
X2575923Y52814731D01*
X2583444Y52791586D01*
X2679951Y52602180D01*
X2804890Y52430214D01*
X2955213Y52279891D01*
X3127182Y52154950D01*
X3135946Y52150484D01*
X3186742Y52102509D01*
X3203536Y52034688D01*
X3180998Y51968553D01*
X3135946Y51929516D01*
X3127182Y51925051D01*
X2955213Y51800110D01*
X2804890Y51649787D01*
X2679951Y51477821D01*
X2583444Y51288415D01*
X2517753Y51086240D01*
X2487993Y50898339D01*
X2484500Y50876287D01*
X2484500Y50663713D01*
X2485111Y50659858D01*
X2514993Y50471184D01*
X2517754Y50453757D01*
X2581322Y50258115D01*
X2583444Y50251586D01*
X2679951Y50062180D01*
X2804890Y49890214D01*
X2955213Y49739891D01*
X3127182Y49614950D01*
X3135946Y49610484D01*
X3186742Y49562509D01*
X3203536Y49494688D01*
X3180998Y49428553D01*
X3135946Y49389516D01*
X3127182Y49385051D01*
X2955213Y49260110D01*
X2804890Y49109787D01*
X2679951Y48937821D01*
X2583444Y48748415D01*
X2517753Y48546240D01*
X2484500Y48336287D01*
X2484500Y48123713D01*
X2490889Y48083374D01*
X2517599Y47914731D01*
X2517754Y47913757D01*
X2575452Y47736181D01*
X2583444Y47711586D01*
X2638162Y47604195D01*
X2651058Y47535525D01*
X2624781Y47470785D01*
X2567675Y47430528D01*
X2527677Y47423900D01*
X2013005Y47423900D01*
X1945966Y47443585D01*
X1900211Y47496389D01*
X1898443Y47500449D01*
X1890609Y47519363D01*
X1890605Y47519370D01*
X1802731Y47650882D01*
X1802728Y47650886D01*
X1690885Y47762729D01*
X1690881Y47762732D01*
X1559369Y47850606D01*
X1559360Y47850611D01*
X1413226Y47911141D01*
X1413220Y47911143D01*
X1258091Y47942000D01*
X1258089Y47942000D01*
X1099911Y47942000D01*
X1099909Y47942000D01*
X944779Y47911143D01*
X944773Y47911141D01*
X798639Y47850611D01*
X798630Y47850606D01*
X667118Y47762732D01*
X667114Y47762729D01*
X555271Y47650886D01*
X555268Y47650882D01*
X527602Y47609476D01*
X473990Y47564671D01*
X404665Y47555964D01*
X341637Y47586118D01*
X304918Y47645561D01*
X300500Y47678367D01*
X300500Y68686287D01*
X22779500Y68686287D01*
X22779500Y68473714D01*
X22812753Y68263761D01*
X22878444Y68061586D01*
X22974951Y67872180D01*
X23099890Y67700214D01*
X23250213Y67549891D01*
X23422179Y67424952D01*
X23422181Y67424951D01*
X23422184Y67424949D01*
X23611588Y67328443D01*
X23813757Y67262754D01*
X24023713Y67229500D01*
X24023714Y67229500D01*
X24236286Y67229500D01*
X24236287Y67229500D01*
X24446243Y67262754D01*
X24648412Y67328443D01*
X24837816Y67424949D01*
X25009792Y67549896D01*
X25123329Y67663434D01*
X25184648Y67696916D01*
X25254340Y67691932D01*
X25310274Y67650061D01*
X25327189Y67619083D01*
X25376202Y67487672D01*
X25376206Y67487665D01*
X25462452Y67372456D01*
X25462455Y67372453D01*
X25577664Y67286207D01*
X25577671Y67286203D01*
X25712517Y67235909D01*
X25712516Y67235909D01*
X25719444Y67235165D01*
X25772127Y67229500D01*
X27567872Y67229501D01*
X27627483Y67235909D01*
X27762331Y67286204D01*
X27877546Y67372454D01*
X27963796Y67487669D01*
X28014091Y67622517D01*
X28020500Y67682127D01*
X28020499Y69477872D01*
X28014091Y69537483D01*
X28012810Y69540917D01*
X27963797Y69672329D01*
X27963793Y69672336D01*
X27877547Y69787545D01*
X27877544Y69787548D01*
X27762335Y69873794D01*
X27762328Y69873798D01*
X27627482Y69924092D01*
X27627483Y69924092D01*
X27567883Y69930499D01*
X27567881Y69930500D01*
X27567873Y69930500D01*
X27567864Y69930500D01*
X25772129Y69930500D01*
X25772123Y69930499D01*
X25712516Y69924092D01*
X25577671Y69873798D01*
X25577664Y69873794D01*
X25462455Y69787548D01*
X25462452Y69787545D01*
X25376206Y69672336D01*
X25376203Y69672331D01*
X25327189Y69540917D01*
X25285317Y69484984D01*
X25219853Y69460567D01*
X25151580Y69475419D01*
X25123326Y69496570D01*
X25009786Y69610110D01*
X24837820Y69735049D01*
X24648414Y69831556D01*
X24648413Y69831557D01*
X24648412Y69831557D01*
X24446243Y69897246D01*
X24446241Y69897247D01*
X24446240Y69897247D01*
X24284957Y69922792D01*
X24236287Y69930500D01*
X24023713Y69930500D01*
X23975042Y69922792D01*
X23813760Y69897247D01*
X23611585Y69831556D01*
X23422179Y69735049D01*
X23250213Y69610110D01*
X23099890Y69459787D01*
X22974951Y69287821D01*
X22878444Y69098415D01*
X22812753Y68896240D01*
X22779500Y68686287D01*
X300500Y68686287D01*
X300500Y70695500D01*
X320185Y70762539D01*
X372989Y70808294D01*
X424500Y70819500D01*
X31325500Y70819500D01*
X31392539Y70799815D01*
G37*
%TD.AperFunction*%
%TA.AperFunction,Conductor*%
G36*
X6275887Y25932815D02*
G01*
X6321642Y25880011D01*
X6331586Y25810853D01*
X6326781Y25790192D01*
X6302754Y25716243D01*
X6302753Y25716240D01*
X6302753Y25716238D01*
X6269500Y25506287D01*
X6269500Y25293714D01*
X6294753Y25134269D01*
X6302754Y25083757D01*
X6352015Y24932147D01*
X6368444Y24881586D01*
X6464951Y24692180D01*
X6589890Y24520214D01*
X6740213Y24369891D01*
X6912182Y24244950D01*
X6920946Y24240484D01*
X6971742Y24192509D01*
X6988536Y24124688D01*
X6965998Y24058553D01*
X6920946Y24019516D01*
X6912182Y24015051D01*
X6740213Y23890110D01*
X6589890Y23739787D01*
X6464951Y23567821D01*
X6368444Y23378415D01*
X6302753Y23176240D01*
X6269500Y22966287D01*
X6269500Y22753714D01*
X6291347Y22615774D01*
X6302754Y22543757D01*
X6348227Y22403805D01*
X6368444Y22341586D01*
X6464951Y22152180D01*
X6589890Y21980214D01*
X6740213Y21829891D01*
X6912182Y21704950D01*
X6920946Y21700484D01*
X6971742Y21652509D01*
X6988536Y21584688D01*
X6965998Y21518553D01*
X6920946Y21479516D01*
X6912182Y21475051D01*
X6740213Y21350110D01*
X6589890Y21199787D01*
X6464951Y21027821D01*
X6368444Y20838415D01*
X6302753Y20636240D01*
X6269500Y20426287D01*
X6269500Y20213714D01*
X6300715Y20016627D01*
X6302754Y20003757D01*
X6360062Y19827381D01*
X6368444Y19801586D01*
X6464951Y19612180D01*
X6589890Y19440214D01*
X6740213Y19289891D01*
X6912182Y19164950D01*
X6920946Y19160484D01*
X6971742Y19112509D01*
X6988536Y19044688D01*
X6965998Y18978553D01*
X6920946Y18939516D01*
X6912182Y18935051D01*
X6740213Y18810110D01*
X6589890Y18659787D01*
X6464951Y18487821D01*
X6368444Y18298415D01*
X6302753Y18096240D01*
X6292549Y18031811D01*
X6269500Y17886287D01*
X6269500Y17673713D01*
X6279534Y17610356D01*
X6289473Y17547606D01*
X6302754Y17463757D01*
X6361136Y17284075D01*
X6368444Y17261586D01*
X6464951Y17072180D01*
X6589890Y16900214D01*
X6740213Y16749891D01*
X6912182Y16624950D01*
X6920946Y16620484D01*
X6971742Y16572509D01*
X6988536Y16504688D01*
X6965998Y16438553D01*
X6920946Y16399516D01*
X6912182Y16395051D01*
X6740213Y16270110D01*
X6589890Y16119787D01*
X6464951Y15947821D01*
X6368444Y15758415D01*
X6302753Y15556240D01*
X6285073Y15444609D01*
X6269500Y15346287D01*
X6269500Y15133713D01*
X6302754Y14923757D01*
X6354210Y14765391D01*
X6368444Y14721586D01*
X6464951Y14532180D01*
X6589890Y14360214D01*
X6740213Y14209891D01*
X6912182Y14084950D01*
X6920946Y14080484D01*
X6971742Y14032509D01*
X6988536Y13964688D01*
X6965998Y13898553D01*
X6920946Y13859516D01*
X6912182Y13855051D01*
X6740213Y13730110D01*
X6589890Y13579787D01*
X6464951Y13407821D01*
X6368444Y13218415D01*
X6302753Y13016240D01*
X6269500Y12806287D01*
X6269500Y12593714D01*
X6295586Y12429010D01*
X6302754Y12383757D01*
X6366322Y12188115D01*
X6368444Y12181586D01*
X6464951Y11992180D01*
X6589890Y11820214D01*
X6740213Y11669891D01*
X6912179Y11544952D01*
X6912181Y11544951D01*
X6912184Y11544949D01*
X7101588Y11448443D01*
X7303757Y11382754D01*
X7513713Y11349500D01*
X7513714Y11349500D01*
X7726286Y11349500D01*
X7726287Y11349500D01*
X7936243Y11382754D01*
X8138412Y11448443D01*
X8327816Y11544949D01*
X8349789Y11560914D01*
X8499786Y11669891D01*
X8499788Y11669894D01*
X8499792Y11669896D01*
X8650104Y11820208D01*
X8710389Y11903185D01*
X8765719Y11945851D01*
X8810708Y11954300D01*
X14993724Y11954300D01*
X15060763Y11934615D01*
X15081405Y11917981D01*
X15086114Y11913272D01*
X15086118Y11913269D01*
X15217630Y11825395D01*
X15217636Y11825392D01*
X15217637Y11825391D01*
X15363774Y11764859D01*
X15363778Y11764859D01*
X15363779Y11764858D01*
X15518908Y11734000D01*
X15518911Y11734000D01*
X15677091Y11734000D01*
X15781459Y11754761D01*
X15832226Y11764859D01*
X15978363Y11825391D01*
X16109882Y11913269D01*
X16221731Y12025118D01*
X16309609Y12156637D01*
X16358769Y12275322D01*
X16402607Y12329720D01*
X16449134Y12349481D01*
X16486226Y12356859D01*
X16632363Y12417391D01*
X16763882Y12505269D01*
X16875731Y12617118D01*
X16963609Y12748637D01*
X17024141Y12894774D01*
X17047071Y13010048D01*
X17055000Y13049909D01*
X17055000Y13057500D01*
X17074685Y13124539D01*
X17127489Y13170294D01*
X17179000Y13181500D01*
X18194704Y13181500D01*
X18261743Y13161815D01*
X18307498Y13109011D01*
X18317442Y13039853D01*
X18309265Y13010048D01*
X18277860Y12934231D01*
X18277857Y12934221D01*
X18247000Y12779092D01*
X18247000Y12779089D01*
X18247000Y12620911D01*
X18247000Y12620909D01*
X18246999Y12620909D01*
X18277857Y12465780D01*
X18277859Y12465774D01*
X18338389Y12319640D01*
X18338394Y12319631D01*
X18426268Y12188119D01*
X18426271Y12188115D01*
X18538114Y12076272D01*
X18538118Y12076269D01*
X18669630Y11988395D01*
X18669636Y11988392D01*
X18669637Y11988391D01*
X18815774Y11927859D01*
X18815778Y11927859D01*
X18815779Y11927858D01*
X18970908Y11897000D01*
X18970911Y11897000D01*
X19129091Y11897000D01*
X19234566Y11917981D01*
X19284226Y11927859D01*
X19430363Y11988391D01*
X19436040Y11992184D01*
X19556095Y12072402D01*
X19622773Y12093280D01*
X19624986Y12093300D01*
X20317155Y12093300D01*
X20384194Y12073615D01*
X20427639Y12025595D01*
X20427884Y12025115D01*
X20459949Y11962183D01*
X20584890Y11790214D01*
X20735213Y11639891D01*
X20907179Y11514952D01*
X20907181Y11514951D01*
X20907184Y11514949D01*
X21096588Y11418443D01*
X21240662Y11371631D01*
X21298337Y11332193D01*
X21325535Y11267835D01*
X21313620Y11198988D01*
X21266376Y11147513D01*
X21202343Y11129700D01*
X14915276Y11129700D01*
X14848237Y11149385D01*
X14827595Y11166019D01*
X14816885Y11176729D01*
X14816881Y11176732D01*
X14685369Y11264606D01*
X14685360Y11264611D01*
X14539226Y11325141D01*
X14539220Y11325143D01*
X14384091Y11356000D01*
X14384089Y11356000D01*
X14225911Y11356000D01*
X14225909Y11356000D01*
X14070779Y11325143D01*
X14070773Y11325141D01*
X13924639Y11264611D01*
X13924630Y11264606D01*
X13793118Y11176732D01*
X13793114Y11176729D01*
X13681271Y11064886D01*
X13681268Y11064882D01*
X13593394Y10933370D01*
X13593389Y10933361D01*
X13532859Y10787227D01*
X13532857Y10787221D01*
X13502000Y10632092D01*
X13502000Y10632089D01*
X13502000Y10473911D01*
X13502000Y10473909D01*
X13501999Y10473909D01*
X13532857Y10318780D01*
X13532859Y10318774D01*
X13593389Y10172640D01*
X13593394Y10172631D01*
X13681268Y10041119D01*
X13681271Y10041115D01*
X13793114Y9929272D01*
X13810579Y9917602D01*
X13855383Y9863989D01*
X13864090Y9794664D01*
X13833935Y9731637D01*
X13774492Y9694918D01*
X13741687Y9690500D01*
X11084984Y9690500D01*
X11017945Y9710185D01*
X10972190Y9762989D01*
X10961581Y9826650D01*
X10962000Y9830906D01*
X10962000Y9989092D01*
X10931142Y10144221D01*
X10931141Y10144222D01*
X10931141Y10144226D01*
X10870609Y10290363D01*
X10870608Y10290364D01*
X10870605Y10290370D01*
X10782731Y10421882D01*
X10782728Y10421886D01*
X10670885Y10533729D01*
X10670881Y10533732D01*
X10539369Y10621606D01*
X10539360Y10621611D01*
X10393226Y10682141D01*
X10393220Y10682143D01*
X10238091Y10713000D01*
X10238089Y10713000D01*
X10079911Y10713000D01*
X10079909Y10713000D01*
X9924779Y10682143D01*
X9924773Y10682141D01*
X9778639Y10621611D01*
X9778630Y10621606D01*
X9647118Y10533732D01*
X9647114Y10533729D01*
X9636405Y10523019D01*
X9575082Y10489534D01*
X9548724Y10486700D01*
X6885239Y10486700D01*
X6818200Y10506385D01*
X6797558Y10523019D01*
X5160503Y12160074D01*
X5127018Y12221397D01*
X5130252Y12286071D01*
X5152246Y12353757D01*
X5185500Y12563713D01*
X5185500Y12776287D01*
X5152246Y12986243D01*
X5086557Y13188412D01*
X4990051Y13377816D01*
X4990049Y13377819D01*
X4990048Y13377821D01*
X4865109Y13549787D01*
X4714786Y13700110D01*
X4542820Y13825049D01*
X4542115Y13825409D01*
X4534054Y13829515D01*
X4483259Y13877488D01*
X4466463Y13945308D01*
X4488999Y14011444D01*
X4534054Y14050485D01*
X4542816Y14054949D01*
X4640770Y14126116D01*
X4714786Y14179891D01*
X4714788Y14179894D01*
X4714792Y14179896D01*
X4865104Y14330208D01*
X4865106Y14330212D01*
X4865109Y14330214D01*
X4974086Y14480211D01*
X4990051Y14502184D01*
X5086557Y14691588D01*
X5152246Y14893757D01*
X5185500Y15103713D01*
X5185500Y15316287D01*
X5152246Y15526243D01*
X5086557Y15728412D01*
X4990051Y15917816D01*
X4990049Y15917819D01*
X4990048Y15917821D01*
X4865109Y16089787D01*
X4714786Y16240110D01*
X4542817Y16365051D01*
X4533504Y16369796D01*
X4482707Y16417770D01*
X4465912Y16485591D01*
X4488449Y16551726D01*
X4533507Y16590768D01*
X4542555Y16595378D01*
X4596716Y16634730D01*
X4596717Y16634730D01*
X3964408Y17267038D01*
X4027993Y17284075D01*
X4142007Y17349901D01*
X4235099Y17442993D01*
X4300925Y17557007D01*
X4317962Y17620592D01*
X4950270Y16988283D01*
X4950270Y16988284D01*
X4989622Y17042446D01*
X5086095Y17231783D01*
X5151757Y17433870D01*
X5151757Y17433873D01*
X5185000Y17643754D01*
X5185000Y17856247D01*
X5151757Y18066128D01*
X5151757Y18066131D01*
X5086095Y18268218D01*
X4989624Y18457551D01*
X4950270Y18511718D01*
X4950269Y18511718D01*
X4317962Y17879410D01*
X4300925Y17942993D01*
X4235099Y18057007D01*
X4142007Y18150099D01*
X4027993Y18215925D01*
X3964409Y18232963D01*
X4596716Y18865272D01*
X4542547Y18904627D01*
X4542547Y18904628D01*
X4533500Y18909237D01*
X4482706Y18957212D01*
X4465912Y19025034D01*
X4488451Y19091168D01*
X4533508Y19130207D01*
X4542816Y19134949D01*
X4622007Y19192485D01*
X4714786Y19259891D01*
X4714788Y19259894D01*
X4714792Y19259896D01*
X4865104Y19410208D01*
X4865106Y19410212D01*
X4865109Y19410214D01*
X4990048Y19582180D01*
X4990047Y19582180D01*
X4990051Y19582184D01*
X5086557Y19771588D01*
X5152246Y19973757D01*
X5185500Y20183713D01*
X5185500Y20396287D01*
X5152246Y20606243D01*
X5086557Y20808412D01*
X4990051Y20997816D01*
X4990049Y20997819D01*
X4990048Y20997821D01*
X4865109Y21169787D01*
X4714786Y21320110D01*
X4542820Y21445049D01*
X4542115Y21445409D01*
X4534054Y21449515D01*
X4483259Y21497488D01*
X4466463Y21565308D01*
X4488999Y21631444D01*
X4534054Y21670485D01*
X4542816Y21674949D01*
X4584112Y21704952D01*
X4714786Y21799891D01*
X4714788Y21799894D01*
X4714792Y21799896D01*
X4865104Y21950208D01*
X4865106Y21950212D01*
X4865109Y21950214D01*
X4990048Y22122180D01*
X4990047Y22122180D01*
X4990051Y22122184D01*
X5086557Y22311588D01*
X5152246Y22513757D01*
X5185500Y22723713D01*
X5185500Y22936287D01*
X5152246Y23146243D01*
X5086557Y23348412D01*
X4990051Y23537816D01*
X4990049Y23537819D01*
X4990048Y23537821D01*
X4865109Y23709787D01*
X4714786Y23860110D01*
X4542820Y23985049D01*
X4542115Y23985409D01*
X4534054Y23989515D01*
X4483259Y24037488D01*
X4466463Y24105308D01*
X4488999Y24171444D01*
X4534054Y24210485D01*
X4542816Y24214949D01*
X4618588Y24270000D01*
X4714786Y24339891D01*
X4714788Y24339894D01*
X4714792Y24339896D01*
X4865104Y24490208D01*
X4865106Y24490212D01*
X4865109Y24490214D01*
X4990048Y24662180D01*
X4990047Y24662180D01*
X4990051Y24662184D01*
X5086557Y24851588D01*
X5152246Y25053757D01*
X5185500Y25263713D01*
X5185500Y25476287D01*
X5152246Y25686243D01*
X5130252Y25753930D01*
X5129818Y25769143D01*
X5124500Y25783403D01*
X5128841Y25803357D01*
X5128258Y25823768D01*
X5136346Y25837855D01*
X5139353Y25851676D01*
X5160500Y25879925D01*
X5196761Y25916184D01*
X5258085Y25949667D01*
X5284440Y25952500D01*
X6208848Y25952500D01*
X6275887Y25932815D01*
G37*
%TD.AperFunction*%
%TA.AperFunction,Conductor*%
G36*
X11688694Y19723615D02*
G01*
X11734449Y19670811D01*
X11744393Y19601653D01*
X11724757Y19550409D01*
X11635394Y19416670D01*
X11635389Y19416661D01*
X11574859Y19270527D01*
X11574857Y19270521D01*
X11544000Y19115392D01*
X11544000Y18957212D01*
X11543999Y18957209D01*
X11574857Y18802080D01*
X11574859Y18802074D01*
X11635389Y18655940D01*
X11635394Y18655931D01*
X11706449Y18549591D01*
X11727327Y18482914D01*
X11708843Y18415534D01*
X11656864Y18368843D01*
X11603347Y18356700D01*
X8917845Y18356700D01*
X8850806Y18376385D01*
X8807360Y18424406D01*
X8775050Y18487818D01*
X8650109Y18659787D01*
X8499786Y18810110D01*
X8327820Y18935049D01*
X8327115Y18935409D01*
X8319054Y18939515D01*
X8268259Y18987488D01*
X8251463Y19055308D01*
X8273999Y19121444D01*
X8319054Y19160485D01*
X8327816Y19164949D01*
X8349789Y19180914D01*
X8499786Y19289891D01*
X8499788Y19289894D01*
X8499792Y19289896D01*
X8650104Y19440208D01*
X8650106Y19440212D01*
X8650109Y19440214D01*
X8775048Y19612180D01*
X8775051Y19612184D01*
X8807360Y19675595D01*
X8855334Y19726391D01*
X8917845Y19743300D01*
X11621655Y19743300D01*
X11688694Y19723615D01*
G37*
%TD.AperFunction*%
%TA.AperFunction,Conductor*%
G36*
X20286743Y20871615D02*
G01*
X20332498Y20818811D01*
X20342442Y20749653D01*
X20337636Y20728988D01*
X20316585Y20664198D01*
X20297753Y20606240D01*
X20264500Y20396287D01*
X20264500Y20183714D01*
X20297753Y19973761D01*
X20297753Y19973759D01*
X20297754Y19973757D01*
X20353696Y19801586D01*
X20361354Y19778018D01*
X20363349Y19708177D01*
X20327269Y19648344D01*
X20264568Y19617516D01*
X20243423Y19615700D01*
X15610676Y19615700D01*
X15543637Y19635385D01*
X15497882Y19688189D01*
X15487938Y19757347D01*
X15516963Y19820903D01*
X15522995Y19827381D01*
X15580728Y19885115D01*
X15580731Y19885118D01*
X15668609Y20016637D01*
X15691848Y20072744D01*
X15735686Y20127145D01*
X15782214Y20146906D01*
X15827226Y20155859D01*
X15973363Y20216391D01*
X16104882Y20304269D01*
X16216731Y20416118D01*
X16304609Y20547637D01*
X16365141Y20693774D01*
X16372144Y20728982D01*
X16384579Y20791492D01*
X16416964Y20853403D01*
X16477680Y20887977D01*
X16506196Y20891300D01*
X20219704Y20891300D01*
X20286743Y20871615D01*
G37*
%TD.AperFunction*%
%TA.AperFunction,Conductor*%
G36*
X24521800Y38614615D02*
G01*
X24542442Y38597981D01*
X24742525Y38397898D01*
X24849898Y38290525D01*
X24849899Y38290524D01*
X24849901Y38290523D01*
X24915650Y38252563D01*
X24981402Y38214601D01*
X25128076Y38175300D01*
X25128087Y38175300D01*
X25128614Y38175230D01*
X25129037Y38175043D01*
X25135926Y38173197D01*
X25135638Y38172123D01*
X25192512Y38146966D01*
X25200115Y38139971D01*
X25211814Y38128272D01*
X25211818Y38128269D01*
X25343330Y38040395D01*
X25343336Y38040392D01*
X25343337Y38040391D01*
X25489474Y37979859D01*
X25489478Y37979859D01*
X25489479Y37979858D01*
X25644608Y37949000D01*
X25644611Y37949000D01*
X25802791Y37949000D01*
X25907159Y37969761D01*
X25957926Y37979859D01*
X26104063Y38040391D01*
X26235582Y38128269D01*
X26347431Y38240118D01*
X26362897Y38263266D01*
X26416509Y38308070D01*
X26485834Y38316778D01*
X26548862Y38286624D01*
X26585581Y38227182D01*
X26590000Y38194375D01*
X26590000Y37993754D01*
X26623242Y37783873D01*
X26623242Y37783870D01*
X26688904Y37581783D01*
X26785375Y37392450D01*
X26824728Y37338284D01*
X27457036Y37970593D01*
X27474075Y37907007D01*
X27539901Y37792993D01*
X27632993Y37699901D01*
X27747007Y37634075D01*
X27810590Y37617038D01*
X27178282Y36984731D01*
X27178282Y36984730D01*
X27232452Y36945374D01*
X27232451Y36945374D01*
X27241495Y36940766D01*
X27292292Y36892792D01*
X27309087Y36824971D01*
X27286550Y36758836D01*
X27241499Y36719798D01*
X27232182Y36715051D01*
X27060213Y36590110D01*
X26909890Y36439787D01*
X26784951Y36267821D01*
X26688444Y36078415D01*
X26622753Y35876240D01*
X26589500Y35666287D01*
X26589500Y35453714D01*
X26618888Y35268161D01*
X26622754Y35243757D01*
X26673982Y35086093D01*
X26688444Y35041586D01*
X26784951Y34852180D01*
X26909890Y34680214D01*
X27060213Y34529891D01*
X27232182Y34404950D01*
X27240946Y34400484D01*
X27291742Y34352509D01*
X27308536Y34284688D01*
X27285998Y34218553D01*
X27240946Y34179516D01*
X27232182Y34175051D01*
X27060213Y34050110D01*
X26909890Y33899787D01*
X26784951Y33727821D01*
X26688444Y33538415D01*
X26622753Y33336240D01*
X26589500Y33126287D01*
X26589500Y32913714D01*
X26622735Y32703873D01*
X26622754Y32703757D01*
X26680452Y32526181D01*
X26688444Y32501586D01*
X26784951Y32312180D01*
X26909890Y32140214D01*
X27060213Y31989891D01*
X27232182Y31864950D01*
X27240946Y31860484D01*
X27291742Y31812509D01*
X27308536Y31744688D01*
X27285998Y31678553D01*
X27240946Y31639516D01*
X27232182Y31635051D01*
X27060213Y31510110D01*
X26909890Y31359787D01*
X26784951Y31187821D01*
X26688444Y30998415D01*
X26622753Y30796240D01*
X26589500Y30586287D01*
X26589500Y30373714D01*
X26622753Y30163761D01*
X26622753Y30163759D01*
X26622754Y30163757D01*
X26681136Y29984075D01*
X26688444Y29961586D01*
X26784951Y29772180D01*
X26909890Y29600214D01*
X27060213Y29449891D01*
X27232182Y29324950D01*
X27240946Y29320484D01*
X27291742Y29272509D01*
X27308536Y29204688D01*
X27285998Y29138553D01*
X27240946Y29099516D01*
X27232182Y29095051D01*
X27060213Y28970110D01*
X26909890Y28819787D01*
X26784951Y28647821D01*
X26688444Y28458415D01*
X26622753Y28256240D01*
X26602435Y28127954D01*
X26589500Y28046287D01*
X26589500Y27833713D01*
X26622754Y27623757D01*
X26632500Y27593761D01*
X26688444Y27421586D01*
X26784951Y27232180D01*
X26909890Y27060214D01*
X27060213Y26909891D01*
X27232182Y26784950D01*
X27240946Y26780484D01*
X27291742Y26732509D01*
X27308536Y26664688D01*
X27285998Y26598553D01*
X27240946Y26559516D01*
X27232182Y26555051D01*
X27060213Y26430110D01*
X26909890Y26279787D01*
X26784951Y26107821D01*
X26688444Y25918415D01*
X26622753Y25716240D01*
X26592271Y25523780D01*
X26589500Y25506287D01*
X26589500Y25293713D01*
X26594252Y25263713D01*
X26622754Y25083756D01*
X26622754Y25083753D01*
X26644745Y25016073D01*
X26645179Y25000863D01*
X26650498Y24986605D01*
X26646156Y24966647D01*
X26646740Y24946232D01*
X26638652Y24932147D01*
X26635648Y24918332D01*
X26614498Y24890077D01*
X26600444Y24876022D01*
X26539122Y24842535D01*
X26512760Y24839700D01*
X23033366Y24839700D01*
X22966327Y24859385D01*
X22920572Y24912189D01*
X22910628Y24981347D01*
X22915435Y25002017D01*
X22929369Y25044903D01*
X22932246Y25053757D01*
X22965500Y25263713D01*
X22965500Y25476287D01*
X22932246Y25686243D01*
X22866557Y25888412D01*
X22770051Y26077816D01*
X22770049Y26077819D01*
X22770048Y26077821D01*
X22645109Y26249787D01*
X22494786Y26400110D01*
X22322820Y26525049D01*
X22322115Y26525409D01*
X22314054Y26529515D01*
X22263259Y26577488D01*
X22246463Y26645308D01*
X22268999Y26711444D01*
X22314054Y26750485D01*
X22322816Y26754949D01*
X22364112Y26784952D01*
X22494786Y26879891D01*
X22494788Y26879894D01*
X22494792Y26879896D01*
X22645104Y27030208D01*
X22645106Y27030212D01*
X22645109Y27030214D01*
X22770048Y27202180D01*
X22770047Y27202180D01*
X22770051Y27202184D01*
X22866557Y27391588D01*
X22932246Y27593757D01*
X22965500Y27803713D01*
X22965500Y28016287D01*
X22932246Y28226243D01*
X22866557Y28428412D01*
X22770051Y28617816D01*
X22770049Y28617819D01*
X22770048Y28617821D01*
X22645109Y28789787D01*
X22494786Y28940110D01*
X22322817Y29065051D01*
X22313504Y29069796D01*
X22262707Y29117770D01*
X22245912Y29185591D01*
X22268449Y29251726D01*
X22313507Y29290768D01*
X22322555Y29295378D01*
X22376716Y29334730D01*
X22376717Y29334730D01*
X21744408Y29967038D01*
X21807993Y29984075D01*
X21922007Y30049901D01*
X22015099Y30142993D01*
X22080925Y30257007D01*
X22097962Y30320592D01*
X22730270Y29688283D01*
X22730270Y29688284D01*
X22769622Y29742446D01*
X22866095Y29931783D01*
X22931757Y30133870D01*
X22931757Y30133873D01*
X22965000Y30343754D01*
X22965000Y30556247D01*
X22931757Y30766128D01*
X22931757Y30766131D01*
X22866095Y30968218D01*
X22769624Y31157551D01*
X22730270Y31211718D01*
X22730269Y31211718D01*
X22097962Y30579410D01*
X22080925Y30642993D01*
X22015099Y30757007D01*
X21922007Y30850099D01*
X21807993Y30915925D01*
X21744409Y30932963D01*
X22376716Y31565272D01*
X22322547Y31604627D01*
X22322547Y31604628D01*
X22313500Y31609237D01*
X22262706Y31657212D01*
X22245912Y31725034D01*
X22268451Y31791168D01*
X22313508Y31830207D01*
X22322816Y31834949D01*
X22418862Y31904730D01*
X22494786Y31959891D01*
X22494788Y31959894D01*
X22494792Y31959896D01*
X22645104Y32110208D01*
X22645106Y32110212D01*
X22645109Y32110214D01*
X22770048Y32282180D01*
X22770047Y32282180D01*
X22770051Y32282184D01*
X22866557Y32471588D01*
X22932246Y32673757D01*
X22965500Y32883713D01*
X22965500Y33096287D01*
X22932246Y33306243D01*
X22866557Y33508412D01*
X22770051Y33697816D01*
X22770049Y33697819D01*
X22770048Y33697821D01*
X22645109Y33869787D01*
X22494786Y34020110D01*
X22322820Y34145049D01*
X22322115Y34145409D01*
X22314054Y34149515D01*
X22263259Y34197488D01*
X22246463Y34265308D01*
X22268999Y34331444D01*
X22314054Y34370485D01*
X22322816Y34374949D01*
X22364112Y34404952D01*
X22494786Y34499891D01*
X22494788Y34499894D01*
X22494792Y34499896D01*
X22645104Y34650208D01*
X22645106Y34650212D01*
X22645109Y34650214D01*
X22770048Y34822180D01*
X22770047Y34822180D01*
X22770051Y34822184D01*
X22866557Y35011588D01*
X22932246Y35213757D01*
X22965500Y35423713D01*
X22965500Y35636287D01*
X22932246Y35846243D01*
X22866557Y36048412D01*
X22822438Y36135000D01*
X22798998Y36181005D01*
X22786102Y36249675D01*
X22812379Y36314415D01*
X22869485Y36354672D01*
X22909483Y36361300D01*
X24346725Y36361300D01*
X24413764Y36341615D01*
X24434407Y36324980D01*
X24488114Y36271272D01*
X24488118Y36271269D01*
X24619630Y36183395D01*
X24619636Y36183392D01*
X24619637Y36183391D01*
X24765774Y36122859D01*
X24765778Y36122859D01*
X24765779Y36122858D01*
X24920908Y36092000D01*
X24920911Y36092000D01*
X25079091Y36092000D01*
X25183459Y36112761D01*
X25234226Y36122859D01*
X25380363Y36183391D01*
X25511882Y36271269D01*
X25623731Y36383118D01*
X25711609Y36514637D01*
X25772141Y36660774D01*
X25793424Y36767770D01*
X25803000Y36815909D01*
X25803000Y36974092D01*
X25772142Y37129221D01*
X25772141Y37129222D01*
X25772141Y37129226D01*
X25711609Y37275363D01*
X25711608Y37275364D01*
X25711605Y37275370D01*
X25623731Y37406882D01*
X25623728Y37406886D01*
X25511885Y37518729D01*
X25511881Y37518732D01*
X25380369Y37606606D01*
X25380360Y37606611D01*
X25234226Y37667141D01*
X25234220Y37667143D01*
X25079091Y37698000D01*
X25079089Y37698000D01*
X24920911Y37698000D01*
X24920909Y37698000D01*
X24765779Y37667143D01*
X24765773Y37667141D01*
X24619639Y37606611D01*
X24619630Y37606606D01*
X24513361Y37535598D01*
X24446684Y37514720D01*
X24444470Y37514700D01*
X23025243Y37514700D01*
X22958204Y37534385D01*
X22912449Y37587189D01*
X22902505Y37656347D01*
X22907312Y37677018D01*
X22914747Y37699901D01*
X22932246Y37753757D01*
X22965500Y37963713D01*
X22965500Y38176287D01*
X22932246Y38386243D01*
X22904386Y38471985D01*
X22902392Y38541823D01*
X22938472Y38601656D01*
X23001173Y38632484D01*
X23022318Y38634300D01*
X24454761Y38634300D01*
X24521800Y38614615D01*
G37*
%TD.AperFunction*%
%TA.AperFunction,Conductor*%
G36*
X9175203Y33005153D02*
G01*
X9197102Y32980331D01*
X9281768Y32853618D01*
X9393614Y32741772D01*
X9393618Y32741769D01*
X9525130Y32653895D01*
X9525136Y32653892D01*
X9525137Y32653891D01*
X9671274Y32593359D01*
X9671278Y32593359D01*
X9671279Y32593358D01*
X9826408Y32562500D01*
X9826411Y32562500D01*
X9841561Y32562500D01*
X9908600Y32542815D01*
X9929242Y32526181D01*
X10139525Y32315898D01*
X10246898Y32208525D01*
X10378402Y32132601D01*
X10525076Y32093300D01*
X15983000Y32093300D01*
X16050039Y32073615D01*
X16095794Y32020811D01*
X16107000Y31969300D01*
X16107000Y31898911D01*
X16107000Y31898909D01*
X16106999Y31898909D01*
X16137857Y31743780D01*
X16137859Y31743774D01*
X16198389Y31597640D01*
X16198394Y31597631D01*
X16286268Y31466119D01*
X16290134Y31461408D01*
X16288071Y31459716D01*
X16316048Y31408577D01*
X16318903Y31382122D01*
X16318903Y26757200D01*
X16299218Y26690161D01*
X16246414Y26644406D01*
X16194903Y26633200D01*
X11347000Y26633200D01*
X11279961Y26652885D01*
X11234206Y26705689D01*
X11232439Y26709748D01*
X11208784Y26766857D01*
X11208777Y26766870D01*
X11120903Y26898382D01*
X11120900Y26898386D01*
X11009057Y27010229D01*
X11009053Y27010232D01*
X10877541Y27098106D01*
X10877532Y27098111D01*
X10731398Y27158641D01*
X10731392Y27158643D01*
X10576263Y27189500D01*
X10576261Y27189500D01*
X10561111Y27189500D01*
X10494072Y27209185D01*
X10473430Y27225819D01*
X10403776Y27295473D01*
X10403770Y27295478D01*
X10272272Y27371398D01*
X10272271Y27371399D01*
X10272270Y27371399D01*
X10125596Y27410700D01*
X10125595Y27410700D01*
X9038690Y27410700D01*
X8971651Y27430385D01*
X8925896Y27483189D01*
X8915952Y27552347D01*
X8920756Y27573007D01*
X8937246Y27623757D01*
X8970500Y27833713D01*
X8970500Y28046287D01*
X8937246Y28256243D01*
X8871557Y28458412D01*
X8775051Y28647816D01*
X8775049Y28647819D01*
X8775048Y28647821D01*
X8650109Y28819787D01*
X8499786Y28970110D01*
X8327820Y29095049D01*
X8327115Y29095409D01*
X8319054Y29099515D01*
X8268259Y29147488D01*
X8251463Y29215308D01*
X8273999Y29281444D01*
X8319054Y29320485D01*
X8327816Y29324949D01*
X8349789Y29340914D01*
X8499786Y29449891D01*
X8499788Y29449894D01*
X8499792Y29449896D01*
X8650104Y29600208D01*
X8650106Y29600212D01*
X8650109Y29600214D01*
X8775048Y29772180D01*
X8775047Y29772180D01*
X8775051Y29772184D01*
X8871557Y29961588D01*
X8937246Y30163757D01*
X8970500Y30373713D01*
X8970500Y30586287D01*
X8937246Y30796243D01*
X8871557Y30998412D01*
X8775051Y31187816D01*
X8775049Y31187819D01*
X8775048Y31187821D01*
X8650109Y31359787D01*
X8499786Y31510110D01*
X8327817Y31635051D01*
X8318504Y31639796D01*
X8267707Y31687770D01*
X8250912Y31755591D01*
X8273449Y31821726D01*
X8318507Y31860768D01*
X8327555Y31865378D01*
X8381716Y31904730D01*
X8381717Y31904730D01*
X7749408Y32537038D01*
X7812993Y32554075D01*
X7927007Y32619901D01*
X8020099Y32712993D01*
X8085925Y32827007D01*
X8102962Y32890592D01*
X8735270Y32258283D01*
X8735270Y32258284D01*
X8774622Y32312446D01*
X8871095Y32501783D01*
X8936757Y32703870D01*
X8936757Y32703873D01*
X8970000Y32913756D01*
X8970383Y32918616D01*
X8972068Y32918484D01*
X8989685Y32978479D01*
X9042489Y33024234D01*
X9111647Y33034178D01*
X9175203Y33005153D01*
G37*
%TD.AperFunction*%
%TA.AperFunction,Conductor*%
G36*
X6269973Y38614615D02*
G01*
X6315728Y38561811D01*
X6325672Y38492653D01*
X6320865Y38471985D01*
X6319943Y38469144D01*
X6302753Y38416241D01*
X6282224Y38286624D01*
X6269500Y38206287D01*
X6269500Y37993713D01*
X6274251Y37963714D01*
X6302735Y37783873D01*
X6302754Y37783757D01*
X6360312Y37606611D01*
X6368444Y37581586D01*
X6464951Y37392180D01*
X6589890Y37220214D01*
X6740213Y37069891D01*
X6912182Y36944950D01*
X6920946Y36940484D01*
X6971742Y36892509D01*
X6988536Y36824688D01*
X6965998Y36758553D01*
X6920946Y36719516D01*
X6912182Y36715051D01*
X6740213Y36590110D01*
X6589890Y36439787D01*
X6464951Y36267821D01*
X6368444Y36078415D01*
X6302753Y35876240D01*
X6269500Y35666287D01*
X6269500Y35453714D01*
X6298888Y35268161D01*
X6302754Y35243757D01*
X6353982Y35086093D01*
X6368444Y35041586D01*
X6464951Y34852180D01*
X6589890Y34680214D01*
X6740213Y34529891D01*
X6912179Y34404952D01*
X6912181Y34404951D01*
X6912184Y34404949D01*
X6921493Y34400206D01*
X6972290Y34352234D01*
X6989087Y34284413D01*
X6966552Y34218278D01*
X6921505Y34179240D01*
X6912446Y34174624D01*
X6912440Y34174620D01*
X6858282Y34135273D01*
X6858282Y34135272D01*
X7490591Y33502963D01*
X7427007Y33485925D01*
X7312993Y33420099D01*
X7219901Y33327007D01*
X7154075Y33212993D01*
X7137037Y33149409D01*
X6504728Y33781718D01*
X6504727Y33781718D01*
X6465380Y33727561D01*
X6368904Y33538218D01*
X6303242Y33336131D01*
X6303242Y33336128D01*
X6270000Y33126247D01*
X6270000Y32913754D01*
X6303242Y32703873D01*
X6303242Y32703870D01*
X6368904Y32501783D01*
X6465375Y32312450D01*
X6504728Y32258284D01*
X7137037Y32890592D01*
X7154075Y32827007D01*
X7219901Y32712993D01*
X7312993Y32619901D01*
X7427007Y32554075D01*
X7490590Y32537038D01*
X6858282Y31904731D01*
X6858282Y31904730D01*
X6912452Y31865374D01*
X6912451Y31865374D01*
X6921495Y31860766D01*
X6972292Y31812792D01*
X6989087Y31744971D01*
X6966550Y31678836D01*
X6921499Y31639798D01*
X6912182Y31635051D01*
X6740213Y31510110D01*
X6589890Y31359787D01*
X6464951Y31187821D01*
X6368444Y30998415D01*
X6302753Y30796240D01*
X6269500Y30586287D01*
X6269500Y30373714D01*
X6302753Y30163760D01*
X6331262Y30076018D01*
X6333257Y30006176D01*
X6297176Y29946344D01*
X6234475Y29915516D01*
X6213331Y29913700D01*
X5250891Y29913700D01*
X5183852Y29933385D01*
X5138097Y29986189D01*
X5128153Y30055347D01*
X5132960Y30076018D01*
X5151757Y30133870D01*
X5151757Y30133873D01*
X5185000Y30343754D01*
X5185000Y30556247D01*
X5151757Y30766128D01*
X5151757Y30766131D01*
X5086095Y30968218D01*
X4989624Y31157551D01*
X4950270Y31211718D01*
X4950269Y31211718D01*
X4317962Y30579411D01*
X4300925Y30642993D01*
X4235099Y30757007D01*
X4142007Y30850099D01*
X4027993Y30915925D01*
X3964409Y30932963D01*
X4596716Y31565272D01*
X4542547Y31604627D01*
X4542547Y31604628D01*
X4533500Y31609237D01*
X4482706Y31657212D01*
X4465912Y31725034D01*
X4488451Y31791168D01*
X4533508Y31830207D01*
X4542816Y31834949D01*
X4638862Y31904730D01*
X4714786Y31959891D01*
X4714788Y31959894D01*
X4714792Y31959896D01*
X4865104Y32110208D01*
X4865106Y32110212D01*
X4865109Y32110214D01*
X4990048Y32282180D01*
X4990047Y32282180D01*
X4990051Y32282184D01*
X5086557Y32471588D01*
X5152246Y32673757D01*
X5185500Y32883713D01*
X5185500Y33096287D01*
X5152246Y33306243D01*
X5086557Y33508412D01*
X4990051Y33697816D01*
X4990049Y33697819D01*
X4990048Y33697821D01*
X4865109Y33869787D01*
X4714786Y34020110D01*
X4542820Y34145049D01*
X4542115Y34145409D01*
X4534054Y34149515D01*
X4483259Y34197488D01*
X4466463Y34265308D01*
X4488999Y34331444D01*
X4534054Y34370485D01*
X4542816Y34374949D01*
X4584112Y34404952D01*
X4714786Y34499891D01*
X4714788Y34499894D01*
X4714792Y34499896D01*
X4865104Y34650208D01*
X4865106Y34650212D01*
X4865109Y34650214D01*
X4990048Y34822180D01*
X4990047Y34822180D01*
X4990051Y34822184D01*
X5086557Y35011588D01*
X5152246Y35213757D01*
X5185500Y35423713D01*
X5185500Y35636287D01*
X5152246Y35846243D01*
X5086557Y36048412D01*
X4990051Y36237816D01*
X4990049Y36237819D01*
X4990048Y36237821D01*
X4865109Y36409787D01*
X4714786Y36560110D01*
X4542820Y36685049D01*
X4542115Y36685409D01*
X4534054Y36689515D01*
X4483259Y36737488D01*
X4466463Y36805308D01*
X4488999Y36871444D01*
X4534054Y36910485D01*
X4542816Y36914949D01*
X4638862Y36984730D01*
X4714786Y37039891D01*
X4714788Y37039894D01*
X4714792Y37039896D01*
X4865104Y37190208D01*
X4865106Y37190212D01*
X4865109Y37190214D01*
X4982400Y37351653D01*
X4990051Y37362184D01*
X5086557Y37551588D01*
X5152246Y37753757D01*
X5185500Y37963713D01*
X5185500Y38176287D01*
X5152246Y38386243D01*
X5130252Y38453930D01*
X5129818Y38469144D01*
X5124499Y38483407D01*
X5128840Y38503361D01*
X5128258Y38523768D01*
X5136346Y38537855D01*
X5139355Y38551679D01*
X5160508Y38579932D01*
X5162524Y38581947D01*
X5168992Y38588415D01*
X5178564Y38597986D01*
X5239889Y38631468D01*
X5266240Y38634300D01*
X6202934Y38634300D01*
X6269973Y38614615D01*
G37*
%TD.AperFunction*%
%TA.AperFunction,Conductor*%
G36*
X9091737Y38604812D02*
G01*
X9131150Y38578273D01*
X9276898Y38432525D01*
X9276899Y38432524D01*
X9276901Y38432523D01*
X9305108Y38416238D01*
X9408402Y38356601D01*
X9555076Y38317300D01*
X9706924Y38317300D01*
X10232365Y38317300D01*
X10299404Y38297615D01*
X10345159Y38244811D01*
X10355103Y38175653D01*
X10353982Y38169112D01*
X10350000Y38149089D01*
X10350000Y37990911D01*
X10350000Y37990909D01*
X10349999Y37990909D01*
X10380857Y37835780D01*
X10380859Y37835774D01*
X10441389Y37689640D01*
X10441394Y37689631D01*
X10529268Y37558119D01*
X10529271Y37558115D01*
X10641114Y37446272D01*
X10641118Y37446269D01*
X10772630Y37358395D01*
X10772636Y37358392D01*
X10772637Y37358391D01*
X10918774Y37297859D01*
X10918778Y37297859D01*
X10918779Y37297858D01*
X11073908Y37267000D01*
X11073911Y37267000D01*
X11232091Y37267000D01*
X11336459Y37287761D01*
X11387226Y37297859D01*
X11533363Y37358391D01*
X11664882Y37446269D01*
X11668495Y37449882D01*
X11675595Y37456981D01*
X11736918Y37490466D01*
X11763276Y37493300D01*
X13476276Y37493300D01*
X13543315Y37473615D01*
X13589070Y37420811D01*
X13599014Y37351653D01*
X13590837Y37321847D01*
X13528862Y37172227D01*
X13528860Y37172221D01*
X13498003Y37017092D01*
X13498003Y37017089D01*
X13498003Y36858911D01*
X13498003Y36858909D01*
X13498002Y36858909D01*
X13528860Y36703780D01*
X13528862Y36703774D01*
X13589392Y36557640D01*
X13589397Y36557631D01*
X13677271Y36426119D01*
X13677274Y36426115D01*
X13789117Y36314272D01*
X13789121Y36314269D01*
X13920633Y36226395D01*
X13920639Y36226392D01*
X13920640Y36226391D01*
X14066777Y36165859D01*
X14066781Y36165859D01*
X14066782Y36165858D01*
X14221911Y36135000D01*
X14221914Y36135000D01*
X14380094Y36135000D01*
X14484462Y36155761D01*
X14535229Y36165859D01*
X14681366Y36226391D01*
X14812885Y36314269D01*
X14813031Y36314415D01*
X14823598Y36324981D01*
X14884921Y36358466D01*
X14911279Y36361300D01*
X20320517Y36361300D01*
X20387556Y36341615D01*
X20433311Y36288811D01*
X20443255Y36219653D01*
X20431002Y36181005D01*
X20363444Y36048415D01*
X20297753Y35846240D01*
X20264500Y35636287D01*
X20264500Y35423714D01*
X20289136Y35268165D01*
X20297754Y35213757D01*
X20353695Y35041588D01*
X20363444Y35011586D01*
X20459951Y34822180D01*
X20584890Y34650214D01*
X20735213Y34499891D01*
X20907182Y34374950D01*
X20915946Y34370484D01*
X20966742Y34322509D01*
X20983536Y34254688D01*
X20960998Y34188553D01*
X20915946Y34149516D01*
X20907182Y34145051D01*
X20735213Y34020110D01*
X20584890Y33869787D01*
X20459951Y33697821D01*
X20363444Y33508415D01*
X20363443Y33508413D01*
X20363443Y33508412D01*
X20352618Y33475096D01*
X20297753Y33306240D01*
X20264500Y33096287D01*
X20264500Y32883714D01*
X20292984Y32703870D01*
X20297754Y32673757D01*
X20353695Y32501588D01*
X20363444Y32471586D01*
X20459951Y32282180D01*
X20584890Y32110214D01*
X20735213Y31959891D01*
X20907179Y31834952D01*
X20907181Y31834951D01*
X20907184Y31834949D01*
X20916493Y31830206D01*
X20967290Y31782234D01*
X20984087Y31714413D01*
X20961552Y31648278D01*
X20916505Y31609240D01*
X20907446Y31604624D01*
X20907440Y31604620D01*
X20853282Y31565273D01*
X20853282Y31565272D01*
X21485591Y30932963D01*
X21422007Y30915925D01*
X21307993Y30850099D01*
X21214901Y30757007D01*
X21149075Y30642993D01*
X21132037Y30579409D01*
X20499728Y31211718D01*
X20499727Y31211718D01*
X20460380Y31157561D01*
X20363904Y30968218D01*
X20298242Y30766131D01*
X20298242Y30766128D01*
X20265000Y30556247D01*
X20265000Y30343754D01*
X20298242Y30133873D01*
X20298243Y30133866D01*
X20317458Y30074729D01*
X20319453Y30004888D01*
X20283372Y29945056D01*
X20220671Y29914228D01*
X20151257Y29922193D01*
X20111846Y29948731D01*
X18275019Y31785558D01*
X18241534Y31846881D01*
X18238700Y31873239D01*
X18238700Y32115922D01*
X18238700Y32115924D01*
X18199399Y32262598D01*
X18188093Y32282180D01*
X18123477Y32394099D01*
X18123472Y32394105D01*
X17386104Y33131473D01*
X17386098Y33131478D01*
X17254600Y33207398D01*
X17254599Y33207399D01*
X17254598Y33207399D01*
X17107924Y33246700D01*
X17107923Y33246700D01*
X10891239Y33246700D01*
X10861798Y33255345D01*
X10831812Y33261868D01*
X10826796Y33265623D01*
X10824200Y33266385D01*
X10803558Y33283019D01*
X10744819Y33341758D01*
X10711334Y33403081D01*
X10708500Y33429439D01*
X10708500Y33444592D01*
X10677642Y33599721D01*
X10677641Y33599722D01*
X10677641Y33599726D01*
X10617109Y33745863D01*
X10617108Y33745864D01*
X10617105Y33745870D01*
X10529231Y33877382D01*
X10529228Y33877386D01*
X10417385Y33989229D01*
X10417381Y33989232D01*
X10285869Y34077106D01*
X10285860Y34077111D01*
X10139726Y34137641D01*
X10139720Y34137643D01*
X9984591Y34168500D01*
X9984589Y34168500D01*
X9826411Y34168500D01*
X9826409Y34168500D01*
X9671279Y34137643D01*
X9671273Y34137641D01*
X9525139Y34077111D01*
X9525130Y34077106D01*
X9393618Y33989232D01*
X9393614Y33989229D01*
X9281771Y33877386D01*
X9281768Y33877382D01*
X9193894Y33745870D01*
X9193889Y33745861D01*
X9133359Y33599727D01*
X9133357Y33599722D01*
X9118886Y33526972D01*
X9086500Y33465061D01*
X9025784Y33430488D01*
X8956014Y33434229D01*
X8899343Y33475096D01*
X8879337Y33512850D01*
X8871095Y33538218D01*
X8774624Y33727551D01*
X8735270Y33781718D01*
X8735269Y33781718D01*
X8102962Y33149410D01*
X8085925Y33212993D01*
X8020099Y33327007D01*
X7927007Y33420099D01*
X7812993Y33485925D01*
X7749409Y33502963D01*
X8381716Y34135272D01*
X8327547Y34174627D01*
X8327547Y34174628D01*
X8318500Y34179237D01*
X8267706Y34227212D01*
X8250912Y34295034D01*
X8273451Y34361168D01*
X8318508Y34400207D01*
X8327816Y34404949D01*
X8389593Y34449833D01*
X8503734Y34532759D01*
X8504364Y34531892D01*
X8563419Y34558359D01*
X8580200Y34559500D01*
X10258543Y34559500D01*
X10388582Y34585368D01*
X10451835Y34597949D01*
X10633914Y34673368D01*
X10797782Y34782861D01*
X10937139Y34922218D01*
X11046632Y35086086D01*
X11122051Y35268165D01*
X11152992Y35423714D01*
X11160500Y35461457D01*
X11160500Y35658544D01*
X11122052Y35851830D01*
X11122051Y35851831D01*
X11122051Y35851835D01*
X11111941Y35876243D01*
X11046635Y36033908D01*
X11046628Y36033921D01*
X10937139Y36197782D01*
X10937136Y36197786D01*
X10797785Y36337137D01*
X10797781Y36337140D01*
X10633920Y36446629D01*
X10633907Y36446636D01*
X10451839Y36522050D01*
X10451829Y36522053D01*
X10258543Y36560500D01*
X10258541Y36560500D01*
X8580200Y36560500D01*
X8513161Y36580185D01*
X8500634Y36589494D01*
X8327820Y36715049D01*
X8327115Y36715409D01*
X8319054Y36719515D01*
X8268259Y36767488D01*
X8251463Y36835308D01*
X8273999Y36901444D01*
X8319054Y36940485D01*
X8327816Y36944949D01*
X8427113Y37017092D01*
X8499786Y37069891D01*
X8499788Y37069894D01*
X8499792Y37069896D01*
X8650104Y37220208D01*
X8650106Y37220212D01*
X8650109Y37220214D01*
X8775048Y37392180D01*
X8775047Y37392180D01*
X8775051Y37392184D01*
X8871557Y37581588D01*
X8937246Y37783757D01*
X8970500Y37993713D01*
X8970500Y38206287D01*
X8937246Y38416243D01*
X8925537Y38452277D01*
X8923542Y38522114D01*
X8959622Y38581947D01*
X9022323Y38612776D01*
X9091737Y38604812D01*
G37*
%TD.AperFunction*%
%TA.AperFunction,Conductor*%
G36*
X26550574Y43708375D02*
G01*
X26578296Y43703577D01*
X26583650Y43698663D01*
X26590623Y43696615D01*
X26609042Y43675358D01*
X26629771Y43656333D01*
X26631618Y43649304D01*
X26636378Y43643811D01*
X26640381Y43615965D01*
X26647533Y43588759D01*
X26645763Y43578536D01*
X26646322Y43574653D01*
X26641515Y43553982D01*
X26622753Y43496240D01*
X26589500Y43286287D01*
X26589500Y43073714D01*
X26622754Y42863756D01*
X26622754Y42863753D01*
X26644745Y42796074D01*
X26645179Y42780864D01*
X26650498Y42766605D01*
X26646156Y42746647D01*
X26646740Y42726233D01*
X26638653Y42712149D01*
X26635648Y42698332D01*
X26614497Y42670077D01*
X26573443Y42629021D01*
X26512121Y42595534D01*
X26485760Y42592700D01*
X23024068Y42592700D01*
X22957029Y42612385D01*
X22911274Y42665189D01*
X22901330Y42734347D01*
X22906137Y42755018D01*
X22931757Y42833870D01*
X22931757Y42833873D01*
X22965000Y43043754D01*
X22965000Y43256247D01*
X22931757Y43466128D01*
X22931757Y43466131D01*
X22903213Y43553982D01*
X22901218Y43623824D01*
X22937299Y43683656D01*
X23000000Y43714484D01*
X23021144Y43716300D01*
X26523584Y43716300D01*
X26550574Y43708375D01*
G37*
%TD.AperFunction*%
%TA.AperFunction,Conductor*%
G36*
X10298050Y46046148D02*
G01*
X10300585Y46044725D01*
X10387402Y45994601D01*
X10534076Y45955300D01*
X11562472Y45955300D01*
X11629511Y45935615D01*
X11650153Y45918981D01*
X11956236Y45612898D01*
X12063609Y45505525D01*
X12066632Y45503780D01*
X12069563Y45502087D01*
X12117779Y45451521D01*
X12131003Y45382914D01*
X12105035Y45318049D01*
X12048121Y45277520D01*
X12007564Y45270700D01*
X10781239Y45270700D01*
X10714200Y45290385D01*
X10693558Y45307019D01*
X10150942Y45849635D01*
X10117457Y45910958D01*
X10122441Y45980650D01*
X10164313Y46036583D01*
X10229777Y46061000D01*
X10298050Y46046148D01*
G37*
%TD.AperFunction*%
%TA.AperFunction,Conductor*%
G36*
X15796635Y45827126D02*
G01*
X15807841Y45828330D01*
X15829562Y45817457D01*
X15852863Y45810615D01*
X15860241Y45802101D01*
X15870320Y45797055D01*
X15882715Y45776164D01*
X15898618Y45757811D01*
X15900221Y45746658D01*
X15905972Y45736966D01*
X15905105Y45712695D01*
X15908562Y45688653D01*
X15903880Y45678402D01*
X15903478Y45667141D01*
X15889627Y45647193D01*
X15879537Y45625097D01*
X15869023Y45617516D01*
X15863630Y45609748D01*
X15833276Y45591739D01*
X15743643Y45554613D01*
X15743630Y45554606D01*
X15612118Y45466732D01*
X15612114Y45466729D01*
X15601405Y45456019D01*
X15540082Y45422534D01*
X15513724Y45419700D01*
X15448924Y45419700D01*
X15297076Y45419700D01*
X15159789Y45382914D01*
X15150395Y45380397D01*
X15145914Y45378541D01*
X15076444Y45371077D01*
X15013967Y45402356D01*
X14978319Y45462448D01*
X14980817Y45532273D01*
X14983908Y45540558D01*
X14984468Y45541909D01*
X15023141Y45635274D01*
X15036389Y45701874D01*
X15042082Y45730492D01*
X15074467Y45792403D01*
X15135183Y45826977D01*
X15163699Y45830300D01*
X15785824Y45830300D01*
X15796635Y45827126D01*
G37*
%TD.AperFunction*%
%TA.AperFunction,Conductor*%
G36*
X18683125Y51483849D02*
G01*
X18715553Y51475134D01*
X18717067Y51473882D01*
X18717976Y51473615D01*
X18721094Y51470552D01*
X18742752Y51452643D01*
X18748929Y51445838D01*
X18775269Y51406418D01*
X18877598Y51304089D01*
X18879615Y51301867D01*
X18893603Y51273016D01*
X18908966Y51244882D01*
X18908744Y51241789D01*
X18910098Y51238997D01*
X18906268Y51207166D01*
X18903982Y51175190D01*
X18902123Y51172708D01*
X18901753Y51169628D01*
X18894225Y51155753D01*
X18894261Y51155733D01*
X18891391Y51150366D01*
X18830859Y51004227D01*
X18830857Y51004221D01*
X18800000Y50849092D01*
X18800000Y50849089D01*
X18800000Y50690911D01*
X18800000Y50690909D01*
X18799999Y50690909D01*
X18830857Y50535780D01*
X18830859Y50535774D01*
X18891389Y50389640D01*
X18891394Y50389631D01*
X18979268Y50258119D01*
X18979271Y50258115D01*
X19091114Y50146272D01*
X19091118Y50146269D01*
X19222630Y50058395D01*
X19222634Y50058393D01*
X19222637Y50058391D01*
X19236922Y50052474D01*
X19291325Y50008632D01*
X19313389Y49942338D01*
X19296109Y49874639D01*
X19251469Y49830526D01*
X19148498Y49771075D01*
X19148495Y49771073D01*
X17507742Y48130319D01*
X17446419Y48096834D01*
X17420061Y48094000D01*
X17404909Y48094000D01*
X17249779Y48063143D01*
X17249773Y48063141D01*
X17103639Y48002611D01*
X17103630Y48002606D01*
X16972118Y47914732D01*
X16972114Y47914729D01*
X16860271Y47802886D01*
X16860268Y47802882D01*
X16772394Y47671370D01*
X16772389Y47671361D01*
X16711859Y47525227D01*
X16711857Y47525221D01*
X16689039Y47410508D01*
X16656654Y47348597D01*
X16595938Y47314023D01*
X16567422Y47310700D01*
X15494805Y47310700D01*
X15427766Y47330385D01*
X15382011Y47383189D01*
X15373188Y47410508D01*
X15363637Y47458520D01*
X15363636Y47458521D01*
X15363636Y47458525D01*
X15308108Y47592581D01*
X15303105Y47604660D01*
X15303100Y47604669D01*
X15215226Y47736181D01*
X15215223Y47736185D01*
X15103380Y47848028D01*
X15103376Y47848031D01*
X14971864Y47935905D01*
X14971855Y47935910D01*
X14825721Y47996440D01*
X14825715Y47996442D01*
X14670586Y48027299D01*
X14670584Y48027299D01*
X14512406Y48027299D01*
X14512404Y48027299D01*
X14357274Y47996442D01*
X14357268Y47996440D01*
X14211126Y47935907D01*
X14208146Y47934313D01*
X14206407Y47933952D01*
X14205504Y47933577D01*
X14205433Y47933749D01*
X14139742Y47920075D01*
X14074500Y47945080D01*
X14033133Y48001388D01*
X14025700Y48043675D01*
X14025700Y50353147D01*
X14045385Y50420186D01*
X14098189Y50465941D01*
X14167347Y50475885D01*
X14173861Y50474770D01*
X14191888Y50471184D01*
X14191890Y50471184D01*
X14350068Y50471184D01*
X14454436Y50491945D01*
X14505203Y50502043D01*
X14651340Y50562575D01*
X14782859Y50650453D01*
X14782862Y50650456D01*
X14793572Y50661165D01*
X14854895Y50694650D01*
X14881253Y50697484D01*
X15536585Y50697484D01*
X15536587Y50697484D01*
X15683261Y50736785D01*
X15814765Y50812709D01*
X16459037Y51456981D01*
X16520360Y51490466D01*
X16546718Y51493300D01*
X18650937Y51493300D01*
X18683125Y51483849D01*
G37*
%TD.AperFunction*%
%TA.AperFunction,Conductor*%
G36*
X11380218Y51093809D02*
G01*
X11393158Y51095905D01*
X11413782Y51086928D01*
X11435822Y51082409D01*
X11446660Y51072617D01*
X11457221Y51068019D01*
X11480806Y51041763D01*
X11495268Y51020118D01*
X11607114Y50908272D01*
X11607118Y50908269D01*
X11738630Y50820395D01*
X11738639Y50820390D01*
X11761562Y50810895D01*
X11884774Y50759859D01*
X11884778Y50759859D01*
X11884779Y50759858D01*
X12039908Y50729000D01*
X12039911Y50729000D01*
X12062300Y50729000D01*
X12129339Y50709315D01*
X12175094Y50656511D01*
X12186300Y50605000D01*
X12186300Y48160818D01*
X12166615Y48093779D01*
X12113811Y48048024D01*
X12044653Y48038080D01*
X11981097Y48067105D01*
X11959198Y48091927D01*
X11877034Y48214893D01*
X11877031Y48214897D01*
X11765188Y48326740D01*
X11765184Y48326743D01*
X11633672Y48414617D01*
X11633663Y48414622D01*
X11487529Y48475152D01*
X11487523Y48475154D01*
X11332394Y48506011D01*
X11332392Y48506011D01*
X11174214Y48506011D01*
X11174212Y48506011D01*
X11019082Y48475154D01*
X11019072Y48475151D01*
X10912728Y48431102D01*
X10843258Y48423633D01*
X10780779Y48454909D01*
X10777595Y48457982D01*
X8945503Y50290074D01*
X8912018Y50351397D01*
X8915252Y50416071D01*
X8937246Y50483757D01*
X8970500Y50693713D01*
X8970500Y50831300D01*
X8990185Y50898339D01*
X9042989Y50944094D01*
X9094500Y50955300D01*
X11023097Y50955300D01*
X11023099Y50955300D01*
X11169773Y50994601D01*
X11301277Y51070525D01*
X11301281Y51070530D01*
X11302209Y51071241D01*
X11303142Y51071602D01*
X11308316Y51074589D01*
X11308781Y51073783D01*
X11314435Y51075970D01*
X11324188Y51084729D01*
X11346394Y51088328D01*
X11367376Y51096441D01*
X11380218Y51093809D01*
G37*
%TD.AperFunction*%
%TA.AperFunction,Conductor*%
G36*
X22730270Y55088283D02*
G01*
X22730270Y55088284D01*
X22769622Y55142446D01*
X22866093Y55331779D01*
X22868994Y55340706D01*
X22908431Y55398382D01*
X22972789Y55425582D01*
X23041636Y55413668D01*
X23048908Y55409787D01*
X23177402Y55335601D01*
X23324076Y55296300D01*
X26645721Y55296300D01*
X26712760Y55276615D01*
X26756206Y55228595D01*
X26782701Y55176595D01*
X26784951Y55172181D01*
X26909890Y55000214D01*
X27060213Y54849891D01*
X27232182Y54724950D01*
X27240946Y54720484D01*
X27291742Y54672509D01*
X27308536Y54604688D01*
X27285998Y54538553D01*
X27240946Y54499516D01*
X27232182Y54495051D01*
X27060213Y54370110D01*
X26909890Y54219787D01*
X26784951Y54047821D01*
X26688444Y53858415D01*
X26622753Y53656240D01*
X26610714Y53580228D01*
X26589500Y53446287D01*
X26589500Y53233713D01*
X26594252Y53203713D01*
X26622754Y53023756D01*
X26622754Y53023753D01*
X26644745Y52956073D01*
X26646740Y52886232D01*
X26614495Y52830074D01*
X25302585Y51518163D01*
X25241262Y51484678D01*
X25171570Y51489662D01*
X25115637Y51531534D01*
X25091220Y51596998D01*
X25106072Y51665271D01*
X25111802Y51674735D01*
X25202605Y51810631D01*
X25202605Y51810632D01*
X25202609Y51810637D01*
X25263141Y51956774D01*
X25281995Y52051557D01*
X25294000Y52111909D01*
X25294000Y52270092D01*
X25263142Y52425221D01*
X25263141Y52425222D01*
X25263141Y52425226D01*
X25202609Y52571363D01*
X25202608Y52571364D01*
X25202605Y52571370D01*
X25114731Y52702882D01*
X25114728Y52702886D01*
X25046635Y52770979D01*
X25013150Y52832302D01*
X25018134Y52901994D01*
X25031214Y52927550D01*
X25032609Y52929637D01*
X25093141Y53075774D01*
X25121133Y53216497D01*
X25124000Y53230909D01*
X25124000Y53389092D01*
X25093142Y53544221D01*
X25093141Y53544222D01*
X25093141Y53544226D01*
X25036661Y53680580D01*
X25032610Y53690361D01*
X25032605Y53690370D01*
X24944731Y53821882D01*
X24944728Y53821886D01*
X24832885Y53933729D01*
X24832881Y53933732D01*
X24701369Y54021606D01*
X24701360Y54021611D01*
X24555226Y54082141D01*
X24555220Y54082143D01*
X24400091Y54113000D01*
X24400089Y54113000D01*
X24241911Y54113000D01*
X24241909Y54113000D01*
X24086779Y54082143D01*
X24086773Y54082141D01*
X23940639Y54021611D01*
X23940630Y54021606D01*
X23809118Y53933732D01*
X23809114Y53933729D01*
X23798405Y53923019D01*
X23737082Y53889534D01*
X23710724Y53886700D01*
X22912845Y53886700D01*
X22845806Y53906385D01*
X22802360Y53954406D01*
X22770050Y54017818D01*
X22645109Y54189787D01*
X22494786Y54340110D01*
X22322817Y54465051D01*
X22313504Y54469796D01*
X22262707Y54517770D01*
X22245912Y54585591D01*
X22268449Y54651726D01*
X22313507Y54690768D01*
X22322555Y54695378D01*
X22376716Y54734730D01*
X22376717Y54734730D01*
X21744408Y55367038D01*
X21807993Y55384075D01*
X21922007Y55449901D01*
X22015099Y55542993D01*
X22080925Y55657007D01*
X22097962Y55720591D01*
X22730270Y55088283D01*
G37*
%TD.AperFunction*%
%TA.AperFunction,Conductor*%
G36*
X16973200Y53823215D02*
G01*
X16993842Y53806581D01*
X17415042Y53385381D01*
X17448527Y53324058D01*
X17443543Y53254366D01*
X17401671Y53198433D01*
X17336207Y53174016D01*
X17327361Y53173700D01*
X15638003Y53173700D01*
X15570964Y53193385D01*
X15525209Y53246189D01*
X15514003Y53297700D01*
X15514003Y53425093D01*
X15483145Y53580222D01*
X15483144Y53580223D01*
X15483144Y53580227D01*
X15445358Y53671449D01*
X15437890Y53740916D01*
X15469165Y53803396D01*
X15529254Y53839048D01*
X15559920Y53842900D01*
X16906161Y53842900D01*
X16973200Y53823215D01*
G37*
%TD.AperFunction*%
%TA.AperFunction,Conductor*%
G36*
X20270697Y56380615D02*
G01*
X20316452Y56327811D01*
X20326396Y56258653D01*
X20321589Y56237982D01*
X20298242Y56166131D01*
X20298242Y56166128D01*
X20265000Y55956247D01*
X20265000Y55743754D01*
X20298242Y55533873D01*
X20298242Y55533870D01*
X20363904Y55331783D01*
X20460375Y55142450D01*
X20499728Y55088284D01*
X21132036Y55720593D01*
X21149075Y55657007D01*
X21214901Y55542993D01*
X21307993Y55449901D01*
X21422007Y55384075D01*
X21485590Y55367038D01*
X20853282Y54734731D01*
X20853282Y54734730D01*
X20907452Y54695374D01*
X20907451Y54695374D01*
X20916495Y54690766D01*
X20967292Y54642792D01*
X20984087Y54574971D01*
X20961550Y54508836D01*
X20916499Y54469798D01*
X20907182Y54465051D01*
X20735213Y54340110D01*
X20584890Y54189787D01*
X20459951Y54017821D01*
X20363444Y53828415D01*
X20297753Y53626240D01*
X20264500Y53416287D01*
X20264500Y53297700D01*
X20261949Y53289015D01*
X20263238Y53280053D01*
X20252259Y53256013D01*
X20244815Y53230661D01*
X20237974Y53224734D01*
X20234213Y53216497D01*
X20211978Y53202208D01*
X20192011Y53184906D01*
X20181496Y53182619D01*
X20175435Y53178723D01*
X20140500Y53173700D01*
X19964036Y53173700D01*
X19896997Y53193385D01*
X19851242Y53246189D01*
X19841298Y53315347D01*
X19860934Y53366591D01*
X19925105Y53462631D01*
X19925105Y53462632D01*
X19925109Y53462637D01*
X19985641Y53608774D01*
X20001872Y53690370D01*
X20016500Y53763909D01*
X20016500Y53922092D01*
X19985642Y54077221D01*
X19985641Y54077222D01*
X19985641Y54077226D01*
X19925109Y54223363D01*
X19925108Y54223364D01*
X19925105Y54223370D01*
X19837231Y54354882D01*
X19837228Y54354886D01*
X19725385Y54466729D01*
X19725381Y54466732D01*
X19593869Y54554606D01*
X19593860Y54554611D01*
X19447726Y54615141D01*
X19447720Y54615143D01*
X19292591Y54646000D01*
X19292589Y54646000D01*
X19134411Y54646000D01*
X19134409Y54646000D01*
X18979279Y54615143D01*
X18979273Y54615141D01*
X18833139Y54554611D01*
X18833130Y54554606D01*
X18701618Y54466732D01*
X18701614Y54466729D01*
X18690905Y54456019D01*
X18629582Y54422534D01*
X18603224Y54419700D01*
X18063239Y54419700D01*
X17996200Y54439385D01*
X17975558Y54456019D01*
X17550504Y54881073D01*
X17550498Y54881078D01*
X17419000Y54956998D01*
X17418999Y54956999D01*
X17418998Y54956999D01*
X17272324Y54996300D01*
X17272323Y54996300D01*
X10010276Y54996300D01*
X9943237Y55015985D01*
X9897482Y55068789D01*
X9887538Y55137947D01*
X9916563Y55201503D01*
X9922595Y55207981D01*
X9983728Y55269115D01*
X9983731Y55269118D01*
X10071609Y55400637D01*
X10132141Y55546774D01*
X10149649Y55634791D01*
X10182034Y55696702D01*
X10242749Y55731276D01*
X10271266Y55734600D01*
X16501724Y55734600D01*
X16568763Y55714915D01*
X16589405Y55698281D01*
X16600114Y55687572D01*
X16600118Y55687569D01*
X16731630Y55599695D01*
X16731636Y55599692D01*
X16731637Y55599691D01*
X16877774Y55539159D01*
X16877778Y55539159D01*
X16877779Y55539158D01*
X17032908Y55508300D01*
X17032911Y55508300D01*
X17191091Y55508300D01*
X17295459Y55529061D01*
X17346226Y55539159D01*
X17492363Y55599691D01*
X17623882Y55687569D01*
X17735731Y55799418D01*
X17823609Y55930937D01*
X17884141Y56077074D01*
X17907845Y56196240D01*
X17915000Y56232209D01*
X17915000Y56276300D01*
X17934685Y56343339D01*
X17987489Y56389094D01*
X18039000Y56400300D01*
X20203658Y56400300D01*
X20270697Y56380615D01*
G37*
%TD.AperFunction*%
%TA.AperFunction,Conductor*%
G36*
X9670053Y61633615D02*
G01*
X9715808Y61580811D01*
X9725752Y61511653D01*
X9706116Y61460409D01*
X9668371Y61403921D01*
X9668364Y61403908D01*
X9592950Y61221840D01*
X9592947Y61221830D01*
X9554500Y61028544D01*
X9554500Y61028541D01*
X9554500Y60831459D01*
X9554500Y60831457D01*
X9554499Y60831457D01*
X9592947Y60638171D01*
X9592950Y60638161D01*
X9668364Y60456093D01*
X9668371Y60456080D01*
X9777860Y60292219D01*
X9777863Y60292215D01*
X9917214Y60152864D01*
X9917218Y60152861D01*
X10081079Y60043372D01*
X10081092Y60043365D01*
X10252134Y59972518D01*
X10263165Y59967949D01*
X10263169Y59967949D01*
X10263170Y59967948D01*
X10456456Y59929500D01*
X10456459Y59929500D01*
X20200859Y59929500D01*
X20267898Y59909815D01*
X20313653Y59857011D01*
X20317030Y59848860D01*
X20321204Y59837669D01*
X20321205Y59837668D01*
X20321206Y59837665D01*
X20407452Y59722456D01*
X20407455Y59722453D01*
X20522664Y59636207D01*
X20522671Y59636203D01*
X20654082Y59587190D01*
X20710016Y59545319D01*
X20734433Y59479855D01*
X20719582Y59411582D01*
X20698431Y59383327D01*
X20584889Y59269785D01*
X20459951Y59097821D01*
X20363444Y58908415D01*
X20297753Y58706240D01*
X20264500Y58496287D01*
X20264500Y58283713D01*
X20297754Y58073757D01*
X20353695Y57901588D01*
X20363444Y57871586D01*
X20433550Y57733995D01*
X20446446Y57665326D01*
X20420170Y57600585D01*
X20363063Y57560328D01*
X20323065Y57553700D01*
X14955174Y57553700D01*
X14888135Y57573385D01*
X14842380Y57626189D01*
X14832436Y57695347D01*
X14833557Y57701892D01*
X14863000Y57849909D01*
X14863000Y58008092D01*
X14832142Y58163221D01*
X14832141Y58163222D01*
X14832141Y58163226D01*
X14771609Y58309363D01*
X14771608Y58309364D01*
X14771605Y58309370D01*
X14683731Y58440882D01*
X14683728Y58440886D01*
X14571885Y58552729D01*
X14571881Y58552732D01*
X14440369Y58640606D01*
X14440360Y58640611D01*
X14294226Y58701141D01*
X14294220Y58701143D01*
X14139091Y58732000D01*
X14139089Y58732000D01*
X14123939Y58732000D01*
X14056900Y58751685D01*
X14036258Y58768319D01*
X13923104Y58881473D01*
X13923098Y58881478D01*
X13791600Y58957398D01*
X13791599Y58957399D01*
X13791598Y58957399D01*
X13644924Y58996700D01*
X13644923Y58996700D01*
X8917845Y58996700D01*
X8850806Y59016385D01*
X8807360Y59064406D01*
X8775050Y59127818D01*
X8650109Y59299787D01*
X8536569Y59413327D01*
X8503084Y59474650D01*
X8508068Y59544342D01*
X8549940Y59600275D01*
X8580915Y59617190D01*
X8712331Y59666204D01*
X8827546Y59752454D01*
X8913796Y59867669D01*
X8964091Y60002517D01*
X8970500Y60062127D01*
X8970499Y61443561D01*
X8979143Y61472998D01*
X8985667Y61502988D01*
X8989422Y61508005D01*
X8990184Y61510599D01*
X9006818Y61531242D01*
X9092559Y61616982D01*
X9153883Y61650466D01*
X9180240Y61653300D01*
X9603014Y61653300D01*
X9670053Y61633615D01*
G37*
%TD.AperFunction*%
M02*
