M48
; DRILL file {KiCad 9.0.7} date 2026-04-15T17:52:01+0900
; FORMAT={-:-/ absolute / metric / decimal}
; #@! TF.CreationDate,2026-04-15T17:52:01+09:00
; #@! TF.GenerationSoftware,Kicad,Pcbnew,9.0.7
; #@! TF.FileFunction,MixedPlating,1,2
FMAT,2
METRIC
; #@! TA.AperFunction,Plated,PTH,ViaDrill
T1C0.300
; #@! TA.AperFunction,Plated,PTH,ComponentDrill
T2C1.000
%
G90
G05
T1
X1.166Y45.095
X1.179Y47.139
X1.303Y39.636
X1.473Y29.337
X2.501Y8.56
X5.08Y8.89
X5.53Y41.727
X5.531Y42.684
X5.544Y51.432
X5.605Y56.977
X9.36Y55.781
X9.905Y33.365
X10.159Y9.91
X10.16Y35.56
X10.497Y26.386
X10.555Y60.93
X11.153Y38.07
X11.249Y19.715
X11.253Y47.703
X11.461Y50.862
X11.553Y30.967
X11.694Y15.477
X11.701Y25.073
X11.704Y38.882
X11.745Y45.48
X11.756Y52.373
X12.037Y41.484
X12.119Y51.532
X12.148Y10.427
X12.346Y15.048
X12.347Y19.036
X12.355Y39.546
X12.763Y51.951
X12.763Y43.18
X12.773Y42.251
X12.79Y46.824
X12.984Y21.468
X12.996Y14.638
X13.024Y7.244
X13.232Y59.528
X13.343Y40.944
X13.554Y18.36
X13.624Y51.674
X13.627Y47.169
X13.645Y13.959
X14.06Y57.929
X14.12Y43.344
X14.251Y45.869
X14.271Y51.274
X14.295Y18.148
X14.301Y36.938
X14.305Y10.553
X14.591Y47.224
X14.711Y53.346
X14.951Y42.598
X14.957Y20.397
X14.975Y10.004
X14.987Y59.527
X15.332Y45.742
X15.488Y52.052
X15.593Y20.928
X15.598Y12.537
X15.601Y44.293
X16.124Y44.843
X16.243Y42.016
X16.251Y25.118
X16.252Y13.129
X16.555Y20.017
X16.601Y53.165
X16.857Y50.881
X16.896Y25.758
X16.91Y31.978
X17.112Y56.311
X17.137Y67.359
X17.211Y8.89
X17.484Y47.291
X17.494Y43.34
X18.133Y40.633
X18.146Y45.621
X18.346Y31.973
X18.411Y54.561
X18.737Y42.606
X18.761Y47.527
X19.05Y12.7
X19.213Y53.843
X19.399Y51.918
X19.603Y50.77
X22.976Y7.472
X23.749Y62.23
X23.95Y30.45
X24.321Y53.31
X24.402Y46.748
X24.467Y49.366
X24.491Y52.191
X24.859Y16.836
X24.875Y15.21
X24.913Y22.85
X24.94Y19.976
X25.0Y36.895
X25.374Y16.081
X25.534Y14.733
X25.724Y38.752
X25.783Y13.826
X26.109Y58.361
X29.307Y9.245
X30.163Y39.529
X30.343Y21.34
X30.657Y44.488
T2
X2.54Y5.08
X3.835Y60.93
X3.835Y58.39
X3.835Y55.85
X3.835Y53.31
X3.835Y50.77
X3.835Y48.23
X3.835Y45.69
X3.835Y43.15
X3.835Y40.61
X3.835Y38.07
X3.835Y35.53
X3.835Y32.99
X3.835Y30.45
X3.835Y27.91
X3.835Y25.37
X3.835Y22.83
X3.835Y20.29
X3.835Y17.75
X3.835Y15.21
X3.835Y12.67
X5.08Y5.08
X7.62Y60.96
X7.62Y58.42
X7.62Y55.88
X7.62Y53.34
X7.62Y50.8
X7.62Y48.26
X7.62Y45.72
X7.62Y43.18
X7.62Y40.64
X7.62Y38.1
X7.62Y35.56
X7.62Y33.02
X7.62Y30.48
X7.62Y27.94
X7.62Y25.4
X7.62Y22.86
X7.62Y20.32
X7.62Y17.78
X7.62Y15.24
X7.62Y12.7
X7.62Y5.08
X10.16Y5.08
X16.51Y5.08
X19.05Y5.08
X21.59Y5.08
X21.615Y60.93
X21.615Y58.39
X21.615Y55.85
X21.615Y53.31
X21.615Y50.77
X21.615Y48.23
X21.615Y45.69
X21.615Y43.15
X21.615Y40.61
X21.615Y38.07
X21.615Y35.53
X21.615Y32.99
X21.615Y30.45
X21.615Y27.91
X21.615Y25.37
X21.615Y22.83
X21.615Y20.29
X21.615Y17.75
X21.615Y15.21
X21.615Y12.67
X24.13Y68.58
X24.13Y5.08
X26.67Y68.58
X26.67Y5.08
X27.94Y60.96
X27.94Y58.42
X27.94Y55.88
X27.94Y53.34
X27.94Y50.8
X27.94Y48.26
X27.94Y45.72
X27.94Y43.18
X27.94Y40.64
X27.94Y38.1
X27.94Y35.56
X27.94Y33.02
X27.94Y30.48
X27.94Y27.94
X27.94Y25.4
X27.94Y22.86
X27.94Y20.32
X27.94Y17.78
X27.94Y15.24
X27.94Y12.7
X29.21Y5.08
M30
