%TF.GenerationSoftware,KiCad,Pcbnew,9.0.7*%
%TF.CreationDate,2026-04-15T17:52:05+09:00*%
%TF.ProjectId,pico_pico2_to_emuz80,7069636f-5f70-4696-936f-325f746f5f65,0.4*%
%TF.SameCoordinates,PX5d42830PY853a720*%
%TF.FileFunction,Soldermask,Top*%
%TF.FilePolarity,Negative*%
%FSLAX46Y46*%
G04 Gerber Fmt 4.6, Leading zero omitted, Abs format (unit mm)*
G04 Created by KiCad (PCBNEW 9.0.7) date 2026-04-15 17:52:05*
%MOMM*%
%LPD*%
G01*
G04 APERTURE LIST*
G04 Aperture macros list*
%AMRoundRect*
0 Rectangle with rounded corners*
0 $1 Rounding radius*
0 $2 $3 $4 $5 $6 $7 $8 $9 X,Y pos of 4 corners*
0 Add a 4 corners polygon primitive as box body*
4,1,4,$2,$3,$4,$5,$6,$7,$8,$9,$2,$3,0*
0 Add four circle primitives for the rounded corners*
1,1,$1+$1,$2,$3*
1,1,$1+$1,$4,$5*
1,1,$1+$1,$6,$7*
1,1,$1+$1,$8,$9*
0 Add four rect primitives between the rounded corners*
20,1,$1+$1,$2,$3,$4,$5,0*
20,1,$1+$1,$4,$5,$6,$7,0*
20,1,$1+$1,$6,$7,$8,$9,0*
20,1,$1+$1,$8,$9,$2,$3,0*%
G04 Aperture macros list end*
%ADD10R,1.700000X1.700000*%
%ADD11C,1.700000*%
%ADD12RoundRect,0.237500X0.300000X0.237500X-0.300000X0.237500X-0.300000X-0.237500X0.300000X-0.237500X0*%
%ADD13R,0.304800X1.168400*%
%ADD14RoundRect,0.237500X0.237500X-0.300000X0.237500X0.300000X-0.237500X0.300000X-0.237500X-0.300000X0*%
%ADD15RoundRect,0.250000X-0.450000X0.262500X-0.450000X-0.262500X0.450000X-0.262500X0.450000X0.262500X0*%
%ADD16C,0.605000*%
G04 APERTURE END LIST*
D10*
X3835000Y60930000D03*
D11*
X3835000Y58390000D03*
X3835000Y55850000D03*
X3835000Y53310000D03*
X3835000Y50770000D03*
X3835000Y48230000D03*
X3835000Y45690000D03*
X3835000Y43150000D03*
X3835000Y40610000D03*
X3835000Y38070000D03*
X3835000Y35530000D03*
X3835000Y32990000D03*
X3835000Y30450000D03*
X3835000Y27910000D03*
X3835000Y25370000D03*
X3835000Y22830000D03*
X3835000Y20290000D03*
X3835000Y17750000D03*
X3835000Y15210000D03*
X3835000Y12670000D03*
D12*
X12273500Y56976000D03*
X10548500Y56976000D03*
D13*
X16901002Y34236400D03*
X16251001Y34236400D03*
X15601003Y34236400D03*
X14951001Y34236400D03*
X14301003Y34236400D03*
X13651004Y34236400D03*
X13001003Y34236400D03*
X12351004Y34236400D03*
X11701003Y34236400D03*
X11051004Y34236400D03*
X11051002Y28496000D03*
X11701000Y28496000D03*
X12351001Y28496000D03*
X13001000Y28496000D03*
X13651001Y28496000D03*
X14301000Y28496000D03*
X14951001Y28496000D03*
X15601000Y28496000D03*
X16251001Y28496000D03*
X16901000Y28496000D03*
X16895602Y22707600D03*
X16245601Y22707600D03*
X15595603Y22707600D03*
X14945601Y22707600D03*
X14295603Y22707600D03*
X13645604Y22707600D03*
X12995603Y22707600D03*
X12345604Y22707600D03*
X11695603Y22707600D03*
X11045604Y22707600D03*
X11045602Y16967200D03*
X11695600Y16967200D03*
X12345601Y16967200D03*
X12995600Y16967200D03*
X13645601Y16967200D03*
X14295600Y16967200D03*
X14945601Y16967200D03*
X15595600Y16967200D03*
X16245601Y16967200D03*
X16895600Y16967200D03*
D10*
X21615000Y60930000D03*
D11*
X21615000Y58390000D03*
X21615000Y55850000D03*
X21615000Y53310000D03*
X21615000Y50770000D03*
X21615000Y48230000D03*
X21615000Y45690000D03*
X21615000Y43150000D03*
X21615000Y40610000D03*
X21615000Y38070000D03*
X21615000Y35530000D03*
X21615000Y32990000D03*
X21615000Y30450000D03*
X21615000Y27910000D03*
X21615000Y25370000D03*
X21615000Y22830000D03*
X21615000Y20290000D03*
X21615000Y17750000D03*
X21615000Y15210000D03*
X21615000Y12670000D03*
D10*
X16510000Y5080000D03*
D11*
X19050000Y5080000D03*
X21590000Y5080000D03*
X24130000Y5080000D03*
X26670000Y5080000D03*
X29210000Y5080000D03*
D14*
X18542000Y16917500D03*
X18542000Y18642500D03*
D10*
X10160000Y5080000D03*
D11*
X7620000Y5080000D03*
X5080000Y5080000D03*
X2540000Y5080000D03*
D10*
X26670000Y68580000D03*
D11*
X24130000Y68580000D03*
D14*
X18339000Y28495000D03*
X18339000Y30220000D03*
D15*
X18560000Y58678000D03*
X18560000Y56853000D03*
D13*
X11461002Y49199000D03*
X12111003Y49199000D03*
X12761001Y49199000D03*
X13411003Y49199000D03*
X14061001Y49199000D03*
X14711000Y49199000D03*
X15361001Y49199000D03*
X16011000Y49199000D03*
X16661001Y49199000D03*
X17311000Y49199000D03*
X17311002Y54939400D03*
X16661004Y54939400D03*
X16011003Y54939400D03*
X15361004Y54939400D03*
X14711003Y54939400D03*
X14061004Y54939400D03*
X13411003Y54939400D03*
X12761004Y54939400D03*
X12111003Y54939400D03*
X11461004Y54939400D03*
D10*
X27940000Y60960000D03*
D11*
X27940000Y58420000D03*
X27940000Y55880000D03*
X27940000Y53340000D03*
X27940000Y50800000D03*
X27940000Y48260000D03*
X27940000Y45720000D03*
X27940000Y43180000D03*
X27940000Y40640000D03*
X27940000Y38100000D03*
X27940000Y35560000D03*
X27940000Y33020000D03*
X27940000Y30480000D03*
X27940000Y27940000D03*
X27940000Y25400000D03*
X27940000Y22860000D03*
X27940000Y20320000D03*
X27940000Y17780000D03*
X27940000Y15240000D03*
X27940000Y12700000D03*
D10*
X7620000Y60960000D03*
D11*
X7620000Y58420000D03*
X7620000Y55880000D03*
X7620000Y53340000D03*
X7620000Y50800000D03*
X7620000Y48260000D03*
X7620000Y45720000D03*
X7620000Y43180000D03*
X7620000Y40640000D03*
X7620000Y38100000D03*
X7620000Y35560000D03*
X7620000Y33020000D03*
X7620000Y30480000D03*
X7620000Y27940000D03*
X7620000Y25400000D03*
X7620000Y22860000D03*
X7620000Y20320000D03*
X7620000Y17780000D03*
X7620000Y15240000D03*
X7620000Y12700000D03*
D16*
X19603000Y50770000D03*
X17211000Y8890000D03*
X5080000Y8890000D03*
X30343000Y21340000D03*
X22976000Y7472000D03*
X1303000Y39636000D03*
X16857000Y50881000D03*
X13232000Y59528000D03*
X18346000Y31973000D03*
X18411000Y54561000D03*
X13024000Y7244000D03*
X11249000Y19715000D03*
X16601000Y53165000D03*
X15488086Y52052084D03*
X17137000Y67359000D03*
X2501000Y8560000D03*
X14987000Y59527000D03*
X15332000Y45742000D03*
X11461002Y50862000D03*
X12148000Y10427000D03*
X30657000Y44488000D03*
X11756500Y52373500D03*
X23950000Y30450000D03*
X29307000Y9245000D03*
X16555000Y20017000D03*
X11553000Y30967000D03*
X11745000Y45480000D03*
X19050000Y12700000D03*
X24875000Y15210000D03*
X10555000Y60930000D03*
X26109000Y58361000D03*
X10160000Y35560000D03*
X14295000Y18148300D03*
X12119000Y51532000D03*
X5544000Y51432000D03*
X18133000Y40633000D03*
X18146000Y45621000D03*
X15598000Y12537000D03*
X9905500Y33365500D03*
X10497172Y26386500D03*
X15593000Y20928000D03*
X1473000Y29337000D03*
X16251001Y25118000D03*
X24402000Y46748000D03*
X14591495Y47224299D03*
X11153000Y38070000D03*
X11253303Y47703011D03*
X16252000Y13129000D03*
X23749000Y62230000D03*
X14957000Y20397000D03*
X14270977Y51274184D03*
X19399000Y51918300D03*
X12037000Y41484000D03*
X5530000Y41727000D03*
X30163000Y39529000D03*
X12355000Y39546000D03*
X24859000Y16836000D03*
X11694000Y15477000D03*
X12996000Y14638000D03*
X25534000Y14733000D03*
X13554225Y18360300D03*
X12984000Y21468000D03*
X19213500Y53843000D03*
X18761000Y47527000D03*
X14951000Y42598000D03*
X18737000Y42606000D03*
X5605000Y56977000D03*
X5531000Y42684000D03*
X12773000Y42251000D03*
X11701000Y25073000D03*
X14305000Y10553000D03*
X12346000Y15048000D03*
X25374000Y16081000D03*
X1166000Y45095000D03*
X15601000Y44293000D03*
X14301003Y36938000D03*
X24467000Y49366000D03*
X24491000Y52191000D03*
X25000000Y36895000D03*
X25723700Y38752000D03*
X11704000Y38881700D03*
X17484000Y47291000D03*
X14251000Y45869500D03*
X14120000Y43344000D03*
X17494000Y43340000D03*
X14975000Y10004000D03*
X25783000Y13825600D03*
X13645000Y13959300D03*
X16243000Y42016000D03*
X16124000Y44843000D03*
X1179000Y47139000D03*
X12347000Y19036300D03*
X24913000Y22850000D03*
X24940000Y19976000D03*
X16895603Y25758000D03*
X16910000Y31978000D03*
X10159000Y9910000D03*
X24321000Y53310000D03*
X9360000Y55781000D03*
X17112000Y56311300D03*
X13343000Y40944000D03*
X13624321Y51673732D03*
X13626553Y47168964D03*
X14711003Y53346001D03*
X14060000Y57929000D03*
X12789918Y46823895D03*
X12763000Y43180000D03*
X12763000Y51951500D03*
M02*
