%TF.GenerationSoftware,KiCad,Pcbnew,9.0.7*%
%TF.CreationDate,2026-04-15T17:52:05+09:00*%
%TF.ProjectId,pico_pico2_to_emuz80,7069636f-5f70-4696-936f-325f746f5f65,0.4*%
%TF.SameCoordinates,PX5d42830PY853a720*%
%TF.FileFunction,Legend,Top*%
%TF.FilePolarity,Positive*%
%FSLAX46Y46*%
G04 Gerber Fmt 4.6, Leading zero omitted, Abs format (unit mm)*
G04 Created by KiCad (PCBNEW 9.0.7) date 2026-04-15 17:52:05*
%MOMM*%
%LPD*%
G01*
G04 APERTURE LIST*
%ADD10C,0.150000*%
%ADD11C,0.291926*%
%ADD12C,0.160000*%
%ADD13C,0.100000*%
%ADD14C,0.120000*%
%ADD15C,0.200000*%
%ADD16C,0.140000*%
%ADD17C,0.152400*%
%ADD18C,0.000000*%
G04 APERTURE END LIST*
D10*
X2045877Y12210567D02*
X2042500Y61714000D01*
D11*
X17002963Y33104000D02*
G75*
G02*
X16711037Y33104000I-145963J0D01*
G01*
X16711037Y33104000D02*
G75*
G02*
X17002963Y33104000I145963J0D01*
G01*
D10*
X3048500Y62716000D02*
X22534290Y62715789D01*
X22628570Y11718809D02*
X2543100Y11713376D01*
D11*
X16977963Y21598000D02*
G75*
G02*
X16686037Y21598000I-145963J0D01*
G01*
X16686037Y21598000D02*
G75*
G02*
X16977963Y21598000I145963J0D01*
G01*
D10*
X23042581Y12135809D02*
G75*
G02*
X22628570Y11718830I-416981J-9D01*
G01*
X22534290Y62715790D02*
G75*
G02*
X23042290Y62207790I10J-507990D01*
G01*
D11*
X24540963Y35114000D02*
G75*
G02*
X24249037Y35114000I-145963J0D01*
G01*
X24249037Y35114000D02*
G75*
G02*
X24540963Y35114000I145963J0D01*
G01*
D10*
X8584500Y63963000D02*
X16561500Y63963000D01*
X16561500Y58392000D01*
X8584500Y58392000D01*
X8584500Y63963000D01*
X2543067Y11713376D02*
G75*
G02*
X2045876Y12210567I33J497224D01*
G01*
X2042500Y61714000D02*
X3048500Y62716000D01*
D11*
X11599963Y50216000D02*
G75*
G02*
X11308037Y50216000I-145963J0D01*
G01*
X11308037Y50216000D02*
G75*
G02*
X11599963Y50216000I145963J0D01*
G01*
D10*
X23042289Y62207790D02*
X23042290Y12120225D01*
D12*
X19451775Y549740D02*
X18651775Y549740D01*
X18651775Y549740D02*
X19223203Y816406D01*
X19223203Y816406D02*
X18651775Y1083073D01*
X18651775Y1083073D02*
X19451775Y1083073D01*
X19451775Y1464026D02*
X18651775Y1464026D01*
X19413680Y1806882D02*
X19451775Y1921168D01*
X19451775Y1921168D02*
X19451775Y2111644D01*
X19451775Y2111644D02*
X19413680Y2187835D01*
X19413680Y2187835D02*
X19375584Y2225930D01*
X19375584Y2225930D02*
X19299394Y2264025D01*
X19299394Y2264025D02*
X19223203Y2264025D01*
X19223203Y2264025D02*
X19147013Y2225930D01*
X19147013Y2225930D02*
X19108918Y2187835D01*
X19108918Y2187835D02*
X19070822Y2111644D01*
X19070822Y2111644D02*
X19032727Y1959263D01*
X19032727Y1959263D02*
X18994632Y1883073D01*
X18994632Y1883073D02*
X18956537Y1844978D01*
X18956537Y1844978D02*
X18880346Y1806882D01*
X18880346Y1806882D02*
X18804156Y1806882D01*
X18804156Y1806882D02*
X18727965Y1844978D01*
X18727965Y1844978D02*
X18689870Y1883073D01*
X18689870Y1883073D02*
X18651775Y1959263D01*
X18651775Y1959263D02*
X18651775Y2149740D01*
X18651775Y2149740D02*
X18689870Y2264025D01*
X18651775Y2759264D02*
X18651775Y2911645D01*
X18651775Y2911645D02*
X18689870Y2987835D01*
X18689870Y2987835D02*
X18766060Y3064026D01*
X18766060Y3064026D02*
X18918441Y3102121D01*
X18918441Y3102121D02*
X19185108Y3102121D01*
X19185108Y3102121D02*
X19337489Y3064026D01*
X19337489Y3064026D02*
X19413680Y2987835D01*
X19413680Y2987835D02*
X19451775Y2911645D01*
X19451775Y2911645D02*
X19451775Y2759264D01*
X19451775Y2759264D02*
X19413680Y2683073D01*
X19413680Y2683073D02*
X19337489Y2606883D01*
X19337489Y2606883D02*
X19185108Y2568787D01*
X19185108Y2568787D02*
X18918441Y2568787D01*
X18918441Y2568787D02*
X18766060Y2606883D01*
X18766060Y2606883D02*
X18689870Y2683073D01*
X18689870Y2683073D02*
X18651775Y2759264D01*
X10523680Y1019644D02*
X10561775Y1133930D01*
X10561775Y1133930D02*
X10561775Y1324406D01*
X10561775Y1324406D02*
X10523680Y1400597D01*
X10523680Y1400597D02*
X10485584Y1438692D01*
X10485584Y1438692D02*
X10409394Y1476787D01*
X10409394Y1476787D02*
X10333203Y1476787D01*
X10333203Y1476787D02*
X10257013Y1438692D01*
X10257013Y1438692D02*
X10218918Y1400597D01*
X10218918Y1400597D02*
X10180822Y1324406D01*
X10180822Y1324406D02*
X10142727Y1172025D01*
X10142727Y1172025D02*
X10104632Y1095835D01*
X10104632Y1095835D02*
X10066537Y1057740D01*
X10066537Y1057740D02*
X9990346Y1019644D01*
X9990346Y1019644D02*
X9914156Y1019644D01*
X9914156Y1019644D02*
X9837965Y1057740D01*
X9837965Y1057740D02*
X9799870Y1095835D01*
X9799870Y1095835D02*
X9761775Y1172025D01*
X9761775Y1172025D02*
X9761775Y1362502D01*
X9761775Y1362502D02*
X9799870Y1476787D01*
X10485584Y2276788D02*
X10523680Y2238692D01*
X10523680Y2238692D02*
X10561775Y2124407D01*
X10561775Y2124407D02*
X10561775Y2048216D01*
X10561775Y2048216D02*
X10523680Y1933930D01*
X10523680Y1933930D02*
X10447489Y1857740D01*
X10447489Y1857740D02*
X10371299Y1819645D01*
X10371299Y1819645D02*
X10218918Y1781549D01*
X10218918Y1781549D02*
X10104632Y1781549D01*
X10104632Y1781549D02*
X9952251Y1819645D01*
X9952251Y1819645D02*
X9876060Y1857740D01*
X9876060Y1857740D02*
X9799870Y1933930D01*
X9799870Y1933930D02*
X9761775Y2048216D01*
X9761775Y2048216D02*
X9761775Y2124407D01*
X9761775Y2124407D02*
X9799870Y2238692D01*
X9799870Y2238692D02*
X9837965Y2276788D01*
X10561775Y3000597D02*
X10561775Y2619645D01*
X10561775Y2619645D02*
X9761775Y2619645D01*
D13*
X906074Y69645595D02*
X981074Y70245595D01*
X1163217Y69645595D02*
X1202503Y69959881D01*
X1202503Y69959881D02*
X1181074Y70017024D01*
X1181074Y70017024D02*
X1127503Y70045595D01*
X1127503Y70045595D02*
X1041789Y70045595D01*
X1041789Y70045595D02*
X981074Y70017024D01*
X981074Y70017024D02*
X948931Y69988452D01*
X1413217Y70045595D02*
X1641788Y70045595D01*
X1523931Y70245595D02*
X1459646Y69731309D01*
X1459646Y69731309D02*
X1481074Y69674166D01*
X1481074Y69674166D02*
X1534646Y69645595D01*
X1534646Y69645595D02*
X1591788Y69645595D01*
X1756074Y70045595D02*
X1984645Y70045595D01*
X1866788Y70245595D02*
X1802503Y69731309D01*
X1802503Y69731309D02*
X1823931Y69674166D01*
X1823931Y69674166D02*
X1877503Y69645595D01*
X1877503Y69645595D02*
X1934645Y69645595D01*
X2184645Y70045595D02*
X2109645Y69445595D01*
X2181074Y70017024D02*
X2241788Y70045595D01*
X2241788Y70045595D02*
X2356074Y70045595D01*
X2356074Y70045595D02*
X2409645Y70017024D01*
X2409645Y70017024D02*
X2434645Y69988452D01*
X2434645Y69988452D02*
X2456074Y69931309D01*
X2456074Y69931309D02*
X2434645Y69759881D01*
X2434645Y69759881D02*
X2398931Y69702738D01*
X2398931Y69702738D02*
X2366788Y69674166D01*
X2366788Y69674166D02*
X2306074Y69645595D01*
X2306074Y69645595D02*
X2191788Y69645595D01*
X2191788Y69645595D02*
X2138217Y69674166D01*
X2652502Y69674166D02*
X2706074Y69645595D01*
X2706074Y69645595D02*
X2820359Y69645595D01*
X2820359Y69645595D02*
X2881074Y69674166D01*
X2881074Y69674166D02*
X2916788Y69731309D01*
X2916788Y69731309D02*
X2920359Y69759881D01*
X2920359Y69759881D02*
X2898931Y69817024D01*
X2898931Y69817024D02*
X2845359Y69845595D01*
X2845359Y69845595D02*
X2759645Y69845595D01*
X2759645Y69845595D02*
X2706074Y69874166D01*
X2706074Y69874166D02*
X2684645Y69931309D01*
X2684645Y69931309D02*
X2688217Y69959881D01*
X2688217Y69959881D02*
X2723931Y70017024D01*
X2723931Y70017024D02*
X2784645Y70045595D01*
X2784645Y70045595D02*
X2870359Y70045595D01*
X2870359Y70045595D02*
X2923931Y70017024D01*
X3170359Y69702738D02*
X3195359Y69674166D01*
X3195359Y69674166D02*
X3163216Y69645595D01*
X3163216Y69645595D02*
X3138216Y69674166D01*
X3138216Y69674166D02*
X3170359Y69702738D01*
X3170359Y69702738D02*
X3163216Y69645595D01*
X3209645Y70017024D02*
X3234645Y69988452D01*
X3234645Y69988452D02*
X3202502Y69959881D01*
X3202502Y69959881D02*
X3177502Y69988452D01*
X3177502Y69988452D02*
X3209645Y70017024D01*
X3209645Y70017024D02*
X3202502Y69959881D01*
X3956073Y70274166D02*
X3345359Y69502738D01*
X4584644Y70274166D02*
X3973930Y69502738D01*
X4648929Y69645595D02*
X5013215Y70045595D01*
X4698929Y70045595D02*
X4963215Y69645595D01*
X5198929Y69702738D02*
X5223929Y69674166D01*
X5223929Y69674166D02*
X5191786Y69645595D01*
X5191786Y69645595D02*
X5166786Y69674166D01*
X5166786Y69674166D02*
X5198929Y69702738D01*
X5198929Y69702738D02*
X5191786Y69645595D01*
X5738215Y69674166D02*
X5677500Y69645595D01*
X5677500Y69645595D02*
X5563215Y69645595D01*
X5563215Y69645595D02*
X5509643Y69674166D01*
X5509643Y69674166D02*
X5484643Y69702738D01*
X5484643Y69702738D02*
X5463215Y69759881D01*
X5463215Y69759881D02*
X5484643Y69931309D01*
X5484643Y69931309D02*
X5520357Y69988452D01*
X5520357Y69988452D02*
X5552500Y70017024D01*
X5552500Y70017024D02*
X5613215Y70045595D01*
X5613215Y70045595D02*
X5727500Y70045595D01*
X5727500Y70045595D02*
X5781072Y70017024D01*
X6077501Y69645595D02*
X6023929Y69674166D01*
X6023929Y69674166D02*
X5998929Y69702738D01*
X5998929Y69702738D02*
X5977501Y69759881D01*
X5977501Y69759881D02*
X5998929Y69931309D01*
X5998929Y69931309D02*
X6034643Y69988452D01*
X6034643Y69988452D02*
X6066786Y70017024D01*
X6066786Y70017024D02*
X6127501Y70045595D01*
X6127501Y70045595D02*
X6213215Y70045595D01*
X6213215Y70045595D02*
X6266786Y70017024D01*
X6266786Y70017024D02*
X6291786Y69988452D01*
X6291786Y69988452D02*
X6313215Y69931309D01*
X6313215Y69931309D02*
X6291786Y69759881D01*
X6291786Y69759881D02*
X6256072Y69702738D01*
X6256072Y69702738D02*
X6223929Y69674166D01*
X6223929Y69674166D02*
X6163215Y69645595D01*
X6163215Y69645595D02*
X6077501Y69645595D01*
X6534643Y69645595D02*
X6584643Y70045595D01*
X6577500Y69988452D02*
X6609643Y70017024D01*
X6609643Y70017024D02*
X6670358Y70045595D01*
X6670358Y70045595D02*
X6756072Y70045595D01*
X6756072Y70045595D02*
X6809643Y70017024D01*
X6809643Y70017024D02*
X6831072Y69959881D01*
X6831072Y69959881D02*
X6791786Y69645595D01*
X6831072Y69959881D02*
X6866786Y70017024D01*
X6866786Y70017024D02*
X6927500Y70045595D01*
X6927500Y70045595D02*
X7013215Y70045595D01*
X7013215Y70045595D02*
X7066786Y70017024D01*
X7066786Y70017024D02*
X7088215Y69959881D01*
X7088215Y69959881D02*
X7048929Y69645595D01*
X7841786Y70274166D02*
X7231072Y69502738D01*
X8220357Y69645595D02*
X8259643Y69959881D01*
X8259643Y69959881D02*
X8238214Y70017024D01*
X8238214Y70017024D02*
X8184643Y70045595D01*
X8184643Y70045595D02*
X8070357Y70045595D01*
X8070357Y70045595D02*
X8009643Y70017024D01*
X8223929Y69674166D02*
X8163214Y69645595D01*
X8163214Y69645595D02*
X8020357Y69645595D01*
X8020357Y69645595D02*
X7966786Y69674166D01*
X7966786Y69674166D02*
X7945357Y69731309D01*
X7945357Y69731309D02*
X7952500Y69788452D01*
X7952500Y69788452D02*
X7988214Y69845595D01*
X7988214Y69845595D02*
X8048929Y69874166D01*
X8048929Y69874166D02*
X8191786Y69874166D01*
X8191786Y69874166D02*
X8252500Y69902738D01*
X8506071Y69645595D02*
X8581071Y70245595D01*
X8591786Y69874166D02*
X8734643Y69645595D01*
X8784643Y70045595D02*
X8527500Y69817024D01*
X8991785Y69645595D02*
X9041785Y70045595D01*
X9066785Y70245595D02*
X9034642Y70217024D01*
X9034642Y70217024D02*
X9059642Y70188452D01*
X9059642Y70188452D02*
X9091785Y70217024D01*
X9091785Y70217024D02*
X9066785Y70245595D01*
X9066785Y70245595D02*
X9059642Y70188452D01*
X9277499Y69645595D02*
X9352499Y70245595D01*
X9534642Y69645595D02*
X9573928Y69959881D01*
X9573928Y69959881D02*
X9552499Y70017024D01*
X9552499Y70017024D02*
X9498928Y70045595D01*
X9498928Y70045595D02*
X9413214Y70045595D01*
X9413214Y70045595D02*
X9352499Y70017024D01*
X9352499Y70017024D02*
X9320356Y69988452D01*
X9670356Y69588452D02*
X10127499Y69588452D01*
X10252499Y69674166D02*
X10306071Y69645595D01*
X10306071Y69645595D02*
X10420356Y69645595D01*
X10420356Y69645595D02*
X10481071Y69674166D01*
X10481071Y69674166D02*
X10516785Y69731309D01*
X10516785Y69731309D02*
X10520356Y69759881D01*
X10520356Y69759881D02*
X10498928Y69817024D01*
X10498928Y69817024D02*
X10445356Y69845595D01*
X10445356Y69845595D02*
X10359642Y69845595D01*
X10359642Y69845595D02*
X10306071Y69874166D01*
X10306071Y69874166D02*
X10284642Y69931309D01*
X10284642Y69931309D02*
X10288214Y69959881D01*
X10288214Y69959881D02*
X10323928Y70017024D01*
X10323928Y70017024D02*
X10384642Y70045595D01*
X10384642Y70045595D02*
X10470356Y70045595D01*
X10470356Y70045595D02*
X10523928Y70017024D01*
X11020356Y69645595D02*
X11059642Y69959881D01*
X11059642Y69959881D02*
X11038213Y70017024D01*
X11038213Y70017024D02*
X10984642Y70045595D01*
X10984642Y70045595D02*
X10870356Y70045595D01*
X10870356Y70045595D02*
X10809642Y70017024D01*
X11023928Y69674166D02*
X10963213Y69645595D01*
X10963213Y69645595D02*
X10820356Y69645595D01*
X10820356Y69645595D02*
X10766785Y69674166D01*
X10766785Y69674166D02*
X10745356Y69731309D01*
X10745356Y69731309D02*
X10752499Y69788452D01*
X10752499Y69788452D02*
X10788213Y69845595D01*
X10788213Y69845595D02*
X10848928Y69874166D01*
X10848928Y69874166D02*
X10991785Y69874166D01*
X10991785Y69874166D02*
X11052499Y69902738D01*
X11356070Y70045595D02*
X11306070Y69645595D01*
X11348927Y69988452D02*
X11381070Y70017024D01*
X11381070Y70017024D02*
X11441785Y70045595D01*
X11441785Y70045595D02*
X11527499Y70045595D01*
X11527499Y70045595D02*
X11581070Y70017024D01*
X11581070Y70017024D02*
X11602499Y69959881D01*
X11602499Y69959881D02*
X11563213Y69645595D01*
X906074Y68679629D02*
X981074Y69279629D01*
X1163217Y68679629D02*
X1202503Y68993915D01*
X1202503Y68993915D02*
X1181074Y69051058D01*
X1181074Y69051058D02*
X1127503Y69079629D01*
X1127503Y69079629D02*
X1041789Y69079629D01*
X1041789Y69079629D02*
X981074Y69051058D01*
X981074Y69051058D02*
X948931Y69022486D01*
X1413217Y69079629D02*
X1641788Y69079629D01*
X1523931Y69279629D02*
X1459646Y68765343D01*
X1459646Y68765343D02*
X1481074Y68708200D01*
X1481074Y68708200D02*
X1534646Y68679629D01*
X1534646Y68679629D02*
X1591788Y68679629D01*
X1756074Y69079629D02*
X1984645Y69079629D01*
X1866788Y69279629D02*
X1802503Y68765343D01*
X1802503Y68765343D02*
X1823931Y68708200D01*
X1823931Y68708200D02*
X1877503Y68679629D01*
X1877503Y68679629D02*
X1934645Y68679629D01*
X2184645Y69079629D02*
X2109645Y68479629D01*
X2181074Y69051058D02*
X2241788Y69079629D01*
X2241788Y69079629D02*
X2356074Y69079629D01*
X2356074Y69079629D02*
X2409645Y69051058D01*
X2409645Y69051058D02*
X2434645Y69022486D01*
X2434645Y69022486D02*
X2456074Y68965343D01*
X2456074Y68965343D02*
X2434645Y68793915D01*
X2434645Y68793915D02*
X2398931Y68736772D01*
X2398931Y68736772D02*
X2366788Y68708200D01*
X2366788Y68708200D02*
X2306074Y68679629D01*
X2306074Y68679629D02*
X2191788Y68679629D01*
X2191788Y68679629D02*
X2138217Y68708200D01*
X2652502Y68708200D02*
X2706074Y68679629D01*
X2706074Y68679629D02*
X2820359Y68679629D01*
X2820359Y68679629D02*
X2881074Y68708200D01*
X2881074Y68708200D02*
X2916788Y68765343D01*
X2916788Y68765343D02*
X2920359Y68793915D01*
X2920359Y68793915D02*
X2898931Y68851058D01*
X2898931Y68851058D02*
X2845359Y68879629D01*
X2845359Y68879629D02*
X2759645Y68879629D01*
X2759645Y68879629D02*
X2706074Y68908200D01*
X2706074Y68908200D02*
X2684645Y68965343D01*
X2684645Y68965343D02*
X2688217Y68993915D01*
X2688217Y68993915D02*
X2723931Y69051058D01*
X2723931Y69051058D02*
X2784645Y69079629D01*
X2784645Y69079629D02*
X2870359Y69079629D01*
X2870359Y69079629D02*
X2923931Y69051058D01*
X3170359Y68736772D02*
X3195359Y68708200D01*
X3195359Y68708200D02*
X3163216Y68679629D01*
X3163216Y68679629D02*
X3138216Y68708200D01*
X3138216Y68708200D02*
X3170359Y68736772D01*
X3170359Y68736772D02*
X3163216Y68679629D01*
X3209645Y69051058D02*
X3234645Y69022486D01*
X3234645Y69022486D02*
X3202502Y68993915D01*
X3202502Y68993915D02*
X3177502Y69022486D01*
X3177502Y69022486D02*
X3209645Y69051058D01*
X3209645Y69051058D02*
X3202502Y68993915D01*
X3956073Y69308200D02*
X3345359Y68536772D01*
X4584644Y69308200D02*
X3973930Y68536772D01*
X5013215Y69079629D02*
X4952501Y68593915D01*
X4952501Y68593915D02*
X4916787Y68536772D01*
X4916787Y68536772D02*
X4884644Y68508200D01*
X4884644Y68508200D02*
X4823929Y68479629D01*
X4823929Y68479629D02*
X4738215Y68479629D01*
X4738215Y68479629D02*
X4684644Y68508200D01*
X4966787Y68708200D02*
X4906072Y68679629D01*
X4906072Y68679629D02*
X4791787Y68679629D01*
X4791787Y68679629D02*
X4738215Y68708200D01*
X4738215Y68708200D02*
X4713215Y68736772D01*
X4713215Y68736772D02*
X4691787Y68793915D01*
X4691787Y68793915D02*
X4713215Y68965343D01*
X4713215Y68965343D02*
X4748929Y69022486D01*
X4748929Y69022486D02*
X4781072Y69051058D01*
X4781072Y69051058D02*
X4841787Y69079629D01*
X4841787Y69079629D02*
X4956072Y69079629D01*
X4956072Y69079629D02*
X5009644Y69051058D01*
X5248929Y68679629D02*
X5298929Y69079629D01*
X5323929Y69279629D02*
X5291786Y69251058D01*
X5291786Y69251058D02*
X5316786Y69222486D01*
X5316786Y69222486D02*
X5348929Y69251058D01*
X5348929Y69251058D02*
X5323929Y69279629D01*
X5323929Y69279629D02*
X5316786Y69222486D01*
X5498929Y69079629D02*
X5727500Y69079629D01*
X5609643Y69279629D02*
X5545358Y68765343D01*
X5545358Y68765343D02*
X5566786Y68708200D01*
X5566786Y68708200D02*
X5620358Y68679629D01*
X5620358Y68679629D02*
X5677500Y68679629D01*
X5877500Y68679629D02*
X5952500Y69279629D01*
X6134643Y68679629D02*
X6173929Y68993915D01*
X6173929Y68993915D02*
X6152500Y69051058D01*
X6152500Y69051058D02*
X6098929Y69079629D01*
X6098929Y69079629D02*
X6013215Y69079629D01*
X6013215Y69079629D02*
X5952500Y69051058D01*
X5952500Y69051058D02*
X5920357Y69022486D01*
X6727500Y69079629D02*
X6677500Y68679629D01*
X6470357Y69079629D02*
X6431072Y68765343D01*
X6431072Y68765343D02*
X6452500Y68708200D01*
X6452500Y68708200D02*
X6506072Y68679629D01*
X6506072Y68679629D02*
X6591786Y68679629D01*
X6591786Y68679629D02*
X6652500Y68708200D01*
X6652500Y68708200D02*
X6684643Y68736772D01*
X6963214Y68679629D02*
X7038214Y69279629D01*
X7009643Y69051058D02*
X7070357Y69079629D01*
X7070357Y69079629D02*
X7184643Y69079629D01*
X7184643Y69079629D02*
X7238214Y69051058D01*
X7238214Y69051058D02*
X7263214Y69022486D01*
X7263214Y69022486D02*
X7284643Y68965343D01*
X7284643Y68965343D02*
X7263214Y68793915D01*
X7263214Y68793915D02*
X7227500Y68736772D01*
X7227500Y68736772D02*
X7195357Y68708200D01*
X7195357Y68708200D02*
X7134643Y68679629D01*
X7134643Y68679629D02*
X7020357Y68679629D01*
X7020357Y68679629D02*
X6966786Y68708200D01*
X7513214Y68736772D02*
X7538214Y68708200D01*
X7538214Y68708200D02*
X7506071Y68679629D01*
X7506071Y68679629D02*
X7481071Y68708200D01*
X7481071Y68708200D02*
X7513214Y68736772D01*
X7513214Y68736772D02*
X7506071Y68679629D01*
X8052500Y68708200D02*
X7991785Y68679629D01*
X7991785Y68679629D02*
X7877500Y68679629D01*
X7877500Y68679629D02*
X7823928Y68708200D01*
X7823928Y68708200D02*
X7798928Y68736772D01*
X7798928Y68736772D02*
X7777500Y68793915D01*
X7777500Y68793915D02*
X7798928Y68965343D01*
X7798928Y68965343D02*
X7834642Y69022486D01*
X7834642Y69022486D02*
X7866785Y69051058D01*
X7866785Y69051058D02*
X7927500Y69079629D01*
X7927500Y69079629D02*
X8041785Y69079629D01*
X8041785Y69079629D02*
X8095357Y69051058D01*
X8391786Y68679629D02*
X8338214Y68708200D01*
X8338214Y68708200D02*
X8313214Y68736772D01*
X8313214Y68736772D02*
X8291786Y68793915D01*
X8291786Y68793915D02*
X8313214Y68965343D01*
X8313214Y68965343D02*
X8348928Y69022486D01*
X8348928Y69022486D02*
X8381071Y69051058D01*
X8381071Y69051058D02*
X8441786Y69079629D01*
X8441786Y69079629D02*
X8527500Y69079629D01*
X8527500Y69079629D02*
X8581071Y69051058D01*
X8581071Y69051058D02*
X8606071Y69022486D01*
X8606071Y69022486D02*
X8627500Y68965343D01*
X8627500Y68965343D02*
X8606071Y68793915D01*
X8606071Y68793915D02*
X8570357Y68736772D01*
X8570357Y68736772D02*
X8538214Y68708200D01*
X8538214Y68708200D02*
X8477500Y68679629D01*
X8477500Y68679629D02*
X8391786Y68679629D01*
X8848928Y68679629D02*
X8898928Y69079629D01*
X8891785Y69022486D02*
X8923928Y69051058D01*
X8923928Y69051058D02*
X8984643Y69079629D01*
X8984643Y69079629D02*
X9070357Y69079629D01*
X9070357Y69079629D02*
X9123928Y69051058D01*
X9123928Y69051058D02*
X9145357Y68993915D01*
X9145357Y68993915D02*
X9106071Y68679629D01*
X9145357Y68993915D02*
X9181071Y69051058D01*
X9181071Y69051058D02*
X9241785Y69079629D01*
X9241785Y69079629D02*
X9327500Y69079629D01*
X9327500Y69079629D02*
X9381071Y69051058D01*
X9381071Y69051058D02*
X9402500Y68993915D01*
X9402500Y68993915D02*
X9363214Y68679629D01*
X10156071Y69308200D02*
X9545357Y68536772D01*
X10534642Y68679629D02*
X10573928Y68993915D01*
X10573928Y68993915D02*
X10552499Y69051058D01*
X10552499Y69051058D02*
X10498928Y69079629D01*
X10498928Y69079629D02*
X10384642Y69079629D01*
X10384642Y69079629D02*
X10323928Y69051058D01*
X10538214Y68708200D02*
X10477499Y68679629D01*
X10477499Y68679629D02*
X10334642Y68679629D01*
X10334642Y68679629D02*
X10281071Y68708200D01*
X10281071Y68708200D02*
X10259642Y68765343D01*
X10259642Y68765343D02*
X10266785Y68822486D01*
X10266785Y68822486D02*
X10302499Y68879629D01*
X10302499Y68879629D02*
X10363214Y68908200D01*
X10363214Y68908200D02*
X10506071Y68908200D01*
X10506071Y68908200D02*
X10566785Y68936772D01*
X10820356Y68679629D02*
X10895356Y69279629D01*
X10906071Y68908200D02*
X11048928Y68679629D01*
X11098928Y69079629D02*
X10841785Y68851058D01*
X11306070Y68679629D02*
X11356070Y69079629D01*
X11381070Y69279629D02*
X11348927Y69251058D01*
X11348927Y69251058D02*
X11373927Y69222486D01*
X11373927Y69222486D02*
X11406070Y69251058D01*
X11406070Y69251058D02*
X11381070Y69279629D01*
X11381070Y69279629D02*
X11373927Y69222486D01*
X11591784Y68679629D02*
X11666784Y69279629D01*
X11848927Y68679629D02*
X11888213Y68993915D01*
X11888213Y68993915D02*
X11866784Y69051058D01*
X11866784Y69051058D02*
X11813213Y69079629D01*
X11813213Y69079629D02*
X11727499Y69079629D01*
X11727499Y69079629D02*
X11666784Y69051058D01*
X11666784Y69051058D02*
X11634641Y69022486D01*
X12163213Y68908200D02*
X12620356Y68908200D01*
X12852498Y68708200D02*
X12906070Y68679629D01*
X12906070Y68679629D02*
X13020355Y68679629D01*
X13020355Y68679629D02*
X13081070Y68708200D01*
X13081070Y68708200D02*
X13116784Y68765343D01*
X13116784Y68765343D02*
X13120355Y68793915D01*
X13120355Y68793915D02*
X13098927Y68851058D01*
X13098927Y68851058D02*
X13045355Y68879629D01*
X13045355Y68879629D02*
X12959641Y68879629D01*
X12959641Y68879629D02*
X12906070Y68908200D01*
X12906070Y68908200D02*
X12884641Y68965343D01*
X12884641Y68965343D02*
X12888213Y68993915D01*
X12888213Y68993915D02*
X12923927Y69051058D01*
X12923927Y69051058D02*
X12984641Y69079629D01*
X12984641Y69079629D02*
X13070355Y69079629D01*
X13070355Y69079629D02*
X13123927Y69051058D01*
X13620355Y68679629D02*
X13659641Y68993915D01*
X13659641Y68993915D02*
X13638212Y69051058D01*
X13638212Y69051058D02*
X13584641Y69079629D01*
X13584641Y69079629D02*
X13470355Y69079629D01*
X13470355Y69079629D02*
X13409641Y69051058D01*
X13623927Y68708200D02*
X13563212Y68679629D01*
X13563212Y68679629D02*
X13420355Y68679629D01*
X13420355Y68679629D02*
X13366784Y68708200D01*
X13366784Y68708200D02*
X13345355Y68765343D01*
X13345355Y68765343D02*
X13352498Y68822486D01*
X13352498Y68822486D02*
X13388212Y68879629D01*
X13388212Y68879629D02*
X13448927Y68908200D01*
X13448927Y68908200D02*
X13591784Y68908200D01*
X13591784Y68908200D02*
X13652498Y68936772D01*
X13956069Y69079629D02*
X13906069Y68679629D01*
X13948926Y69022486D02*
X13981069Y69051058D01*
X13981069Y69051058D02*
X14041784Y69079629D01*
X14041784Y69079629D02*
X14127498Y69079629D01*
X14127498Y69079629D02*
X14181069Y69051058D01*
X14181069Y69051058D02*
X14202498Y68993915D01*
X14202498Y68993915D02*
X14163212Y68679629D01*
D12*
X24521775Y569740D02*
X23721775Y569740D01*
X23721775Y569740D02*
X24293203Y836406D01*
X24293203Y836406D02*
X23721775Y1103073D01*
X23721775Y1103073D02*
X24521775Y1103073D01*
X23721775Y1636407D02*
X23721775Y1788788D01*
X23721775Y1788788D02*
X23759870Y1864978D01*
X23759870Y1864978D02*
X23836060Y1941169D01*
X23836060Y1941169D02*
X23988441Y1979264D01*
X23988441Y1979264D02*
X24255108Y1979264D01*
X24255108Y1979264D02*
X24407489Y1941169D01*
X24407489Y1941169D02*
X24483680Y1864978D01*
X24483680Y1864978D02*
X24521775Y1788788D01*
X24521775Y1788788D02*
X24521775Y1636407D01*
X24521775Y1636407D02*
X24483680Y1560216D01*
X24483680Y1560216D02*
X24407489Y1484026D01*
X24407489Y1484026D02*
X24255108Y1445930D01*
X24255108Y1445930D02*
X23988441Y1445930D01*
X23988441Y1445930D02*
X23836060Y1484026D01*
X23836060Y1484026D02*
X23759870Y1560216D01*
X23759870Y1560216D02*
X23721775Y1636407D01*
X24483680Y2284025D02*
X24521775Y2398311D01*
X24521775Y2398311D02*
X24521775Y2588787D01*
X24521775Y2588787D02*
X24483680Y2664978D01*
X24483680Y2664978D02*
X24445584Y2703073D01*
X24445584Y2703073D02*
X24369394Y2741168D01*
X24369394Y2741168D02*
X24293203Y2741168D01*
X24293203Y2741168D02*
X24217013Y2703073D01*
X24217013Y2703073D02*
X24178918Y2664978D01*
X24178918Y2664978D02*
X24140822Y2588787D01*
X24140822Y2588787D02*
X24102727Y2436406D01*
X24102727Y2436406D02*
X24064632Y2360216D01*
X24064632Y2360216D02*
X24026537Y2322121D01*
X24026537Y2322121D02*
X23950346Y2284025D01*
X23950346Y2284025D02*
X23874156Y2284025D01*
X23874156Y2284025D02*
X23797965Y2322121D01*
X23797965Y2322121D02*
X23759870Y2360216D01*
X23759870Y2360216D02*
X23721775Y2436406D01*
X23721775Y2436406D02*
X23721775Y2626883D01*
X23721775Y2626883D02*
X23759870Y2741168D01*
X24521775Y3084026D02*
X23721775Y3084026D01*
X16169870Y1476787D02*
X16131775Y1400597D01*
X16131775Y1400597D02*
X16131775Y1286311D01*
X16131775Y1286311D02*
X16169870Y1172025D01*
X16169870Y1172025D02*
X16246060Y1095835D01*
X16246060Y1095835D02*
X16322251Y1057740D01*
X16322251Y1057740D02*
X16474632Y1019644D01*
X16474632Y1019644D02*
X16588918Y1019644D01*
X16588918Y1019644D02*
X16741299Y1057740D01*
X16741299Y1057740D02*
X16817489Y1095835D01*
X16817489Y1095835D02*
X16893680Y1172025D01*
X16893680Y1172025D02*
X16931775Y1286311D01*
X16931775Y1286311D02*
X16931775Y1362502D01*
X16931775Y1362502D02*
X16893680Y1476787D01*
X16893680Y1476787D02*
X16855584Y1514883D01*
X16855584Y1514883D02*
X16588918Y1514883D01*
X16588918Y1514883D02*
X16588918Y1362502D01*
X16931775Y1857740D02*
X16131775Y1857740D01*
X16131775Y1857740D02*
X16931775Y2314883D01*
X16931775Y2314883D02*
X16131775Y2314883D01*
X16931775Y2695835D02*
X16131775Y2695835D01*
X16131775Y2695835D02*
X16131775Y2886311D01*
X16131775Y2886311D02*
X16169870Y3000597D01*
X16169870Y3000597D02*
X16246060Y3076787D01*
X16246060Y3076787D02*
X16322251Y3114882D01*
X16322251Y3114882D02*
X16474632Y3152978D01*
X16474632Y3152978D02*
X16588918Y3152978D01*
X16588918Y3152978D02*
X16741299Y3114882D01*
X16741299Y3114882D02*
X16817489Y3076787D01*
X16817489Y3076787D02*
X16893680Y3000597D01*
X16893680Y3000597D02*
X16931775Y2886311D01*
X16931775Y2886311D02*
X16931775Y2695835D01*
X2179870Y1476787D02*
X2141775Y1400597D01*
X2141775Y1400597D02*
X2141775Y1286311D01*
X2141775Y1286311D02*
X2179870Y1172025D01*
X2179870Y1172025D02*
X2256060Y1095835D01*
X2256060Y1095835D02*
X2332251Y1057740D01*
X2332251Y1057740D02*
X2484632Y1019644D01*
X2484632Y1019644D02*
X2598918Y1019644D01*
X2598918Y1019644D02*
X2751299Y1057740D01*
X2751299Y1057740D02*
X2827489Y1095835D01*
X2827489Y1095835D02*
X2903680Y1172025D01*
X2903680Y1172025D02*
X2941775Y1286311D01*
X2941775Y1286311D02*
X2941775Y1362502D01*
X2941775Y1362502D02*
X2903680Y1476787D01*
X2903680Y1476787D02*
X2865584Y1514883D01*
X2865584Y1514883D02*
X2598918Y1514883D01*
X2598918Y1514883D02*
X2598918Y1362502D01*
X2941775Y1857740D02*
X2141775Y1857740D01*
X2141775Y1857740D02*
X2941775Y2314883D01*
X2941775Y2314883D02*
X2141775Y2314883D01*
X2941775Y2695835D02*
X2141775Y2695835D01*
X2141775Y2695835D02*
X2141775Y2886311D01*
X2141775Y2886311D02*
X2179870Y3000597D01*
X2179870Y3000597D02*
X2256060Y3076787D01*
X2256060Y3076787D02*
X2332251Y3114882D01*
X2332251Y3114882D02*
X2484632Y3152978D01*
X2484632Y3152978D02*
X2598918Y3152978D01*
X2598918Y3152978D02*
X2751299Y3114882D01*
X2751299Y3114882D02*
X2827489Y3076787D01*
X2827489Y3076787D02*
X2903680Y3000597D01*
X2903680Y3000597D02*
X2941775Y2886311D01*
X2941775Y2886311D02*
X2941775Y2695835D01*
D14*
X845804Y67406669D02*
X845804Y68006669D01*
X845804Y68006669D02*
X1045804Y67578098D01*
X1045804Y67578098D02*
X1245804Y68006669D01*
X1245804Y68006669D02*
X1245804Y67406669D01*
X1531518Y67720955D02*
X1731518Y67720955D01*
X1817232Y67406669D02*
X1531518Y67406669D01*
X1531518Y67406669D02*
X1531518Y68006669D01*
X1531518Y68006669D02*
X1817232Y68006669D01*
X2017232Y68006669D02*
X2417232Y68006669D01*
X2417232Y68006669D02*
X2017232Y67406669D01*
X2017232Y67406669D02*
X2417232Y67406669D01*
X2588661Y68006669D02*
X2731518Y67406669D01*
X2731518Y67406669D02*
X2845804Y67835240D01*
X2845804Y67835240D02*
X2960089Y67406669D01*
X2960089Y67406669D02*
X3102947Y68006669D01*
X3588661Y68006669D02*
X3474375Y68006669D01*
X3474375Y68006669D02*
X3417232Y67978098D01*
X3417232Y67978098D02*
X3388661Y67949526D01*
X3388661Y67949526D02*
X3331518Y67863812D01*
X3331518Y67863812D02*
X3302946Y67749526D01*
X3302946Y67749526D02*
X3302946Y67520955D01*
X3302946Y67520955D02*
X3331518Y67463812D01*
X3331518Y67463812D02*
X3360089Y67435240D01*
X3360089Y67435240D02*
X3417232Y67406669D01*
X3417232Y67406669D02*
X3531518Y67406669D01*
X3531518Y67406669D02*
X3588661Y67435240D01*
X3588661Y67435240D02*
X3617232Y67463812D01*
X3617232Y67463812D02*
X3645803Y67520955D01*
X3645803Y67520955D02*
X3645803Y67663812D01*
X3645803Y67663812D02*
X3617232Y67720955D01*
X3617232Y67720955D02*
X3588661Y67749526D01*
X3588661Y67749526D02*
X3531518Y67778098D01*
X3531518Y67778098D02*
X3417232Y67778098D01*
X3417232Y67778098D02*
X3360089Y67749526D01*
X3360089Y67749526D02*
X3331518Y67720955D01*
X3331518Y67720955D02*
X3302946Y67663812D01*
X4188661Y68006669D02*
X3902947Y68006669D01*
X3902947Y68006669D02*
X3874375Y67720955D01*
X3874375Y67720955D02*
X3902947Y67749526D01*
X3902947Y67749526D02*
X3960090Y67778098D01*
X3960090Y67778098D02*
X4102947Y67778098D01*
X4102947Y67778098D02*
X4160090Y67749526D01*
X4160090Y67749526D02*
X4188661Y67720955D01*
X4188661Y67720955D02*
X4217232Y67663812D01*
X4217232Y67663812D02*
X4217232Y67520955D01*
X4217232Y67520955D02*
X4188661Y67463812D01*
X4188661Y67463812D02*
X4160090Y67435240D01*
X4160090Y67435240D02*
X4102947Y67406669D01*
X4102947Y67406669D02*
X3960090Y67406669D01*
X3960090Y67406669D02*
X3902947Y67435240D01*
X3902947Y67435240D02*
X3874375Y67463812D01*
X4817233Y67463812D02*
X4788661Y67435240D01*
X4788661Y67435240D02*
X4702947Y67406669D01*
X4702947Y67406669D02*
X4645804Y67406669D01*
X4645804Y67406669D02*
X4560090Y67435240D01*
X4560090Y67435240D02*
X4502947Y67492383D01*
X4502947Y67492383D02*
X4474376Y67549526D01*
X4474376Y67549526D02*
X4445804Y67663812D01*
X4445804Y67663812D02*
X4445804Y67749526D01*
X4445804Y67749526D02*
X4474376Y67863812D01*
X4474376Y67863812D02*
X4502947Y67920955D01*
X4502947Y67920955D02*
X4560090Y67978098D01*
X4560090Y67978098D02*
X4645804Y68006669D01*
X4645804Y68006669D02*
X4702947Y68006669D01*
X4702947Y68006669D02*
X4788661Y67978098D01*
X4788661Y67978098D02*
X4817233Y67949526D01*
X4931519Y67349526D02*
X5388661Y67349526D01*
X5874376Y67406669D02*
X5674376Y67692383D01*
X5531519Y67406669D02*
X5531519Y68006669D01*
X5531519Y68006669D02*
X5760090Y68006669D01*
X5760090Y68006669D02*
X5817233Y67978098D01*
X5817233Y67978098D02*
X5845804Y67949526D01*
X5845804Y67949526D02*
X5874376Y67892383D01*
X5874376Y67892383D02*
X5874376Y67806669D01*
X5874376Y67806669D02*
X5845804Y67749526D01*
X5845804Y67749526D02*
X5817233Y67720955D01*
X5817233Y67720955D02*
X5760090Y67692383D01*
X5760090Y67692383D02*
X5531519Y67692383D01*
X6102947Y67578098D02*
X6388662Y67578098D01*
X6045804Y67406669D02*
X6245804Y68006669D01*
X6245804Y68006669D02*
X6445804Y67406669D01*
X6645805Y67406669D02*
X6645805Y68006669D01*
X6645805Y68006669D02*
X6845805Y67578098D01*
X6845805Y67578098D02*
X7045805Y68006669D01*
X7045805Y68006669D02*
X7045805Y67406669D01*
X8045805Y67406669D02*
X8045805Y67720955D01*
X8045805Y67720955D02*
X8017233Y67778098D01*
X8017233Y67778098D02*
X7960090Y67806669D01*
X7960090Y67806669D02*
X7845805Y67806669D01*
X7845805Y67806669D02*
X7788662Y67778098D01*
X8045805Y67435240D02*
X7988662Y67406669D01*
X7988662Y67406669D02*
X7845805Y67406669D01*
X7845805Y67406669D02*
X7788662Y67435240D01*
X7788662Y67435240D02*
X7760090Y67492383D01*
X7760090Y67492383D02*
X7760090Y67549526D01*
X7760090Y67549526D02*
X7788662Y67606669D01*
X7788662Y67606669D02*
X7845805Y67635240D01*
X7845805Y67635240D02*
X7988662Y67635240D01*
X7988662Y67635240D02*
X8045805Y67663812D01*
X8588662Y67406669D02*
X8588662Y68006669D01*
X8588662Y67435240D02*
X8531519Y67406669D01*
X8531519Y67406669D02*
X8417233Y67406669D01*
X8417233Y67406669D02*
X8360090Y67435240D01*
X8360090Y67435240D02*
X8331519Y67463812D01*
X8331519Y67463812D02*
X8302947Y67520955D01*
X8302947Y67520955D02*
X8302947Y67692383D01*
X8302947Y67692383D02*
X8331519Y67749526D01*
X8331519Y67749526D02*
X8360090Y67778098D01*
X8360090Y67778098D02*
X8417233Y67806669D01*
X8417233Y67806669D02*
X8531519Y67806669D01*
X8531519Y67806669D02*
X8588662Y67778098D01*
X9131519Y67406669D02*
X9131519Y67720955D01*
X9131519Y67720955D02*
X9102947Y67778098D01*
X9102947Y67778098D02*
X9045804Y67806669D01*
X9045804Y67806669D02*
X8931519Y67806669D01*
X8931519Y67806669D02*
X8874376Y67778098D01*
X9131519Y67435240D02*
X9074376Y67406669D01*
X9074376Y67406669D02*
X8931519Y67406669D01*
X8931519Y67406669D02*
X8874376Y67435240D01*
X8874376Y67435240D02*
X8845804Y67492383D01*
X8845804Y67492383D02*
X8845804Y67549526D01*
X8845804Y67549526D02*
X8874376Y67606669D01*
X8874376Y67606669D02*
X8931519Y67635240D01*
X8931519Y67635240D02*
X9074376Y67635240D01*
X9074376Y67635240D02*
X9131519Y67663812D01*
X9417233Y67806669D02*
X9417233Y67206669D01*
X9417233Y67778098D02*
X9474376Y67806669D01*
X9474376Y67806669D02*
X9588661Y67806669D01*
X9588661Y67806669D02*
X9645804Y67778098D01*
X9645804Y67778098D02*
X9674376Y67749526D01*
X9674376Y67749526D02*
X9702947Y67692383D01*
X9702947Y67692383D02*
X9702947Y67520955D01*
X9702947Y67520955D02*
X9674376Y67463812D01*
X9674376Y67463812D02*
X9645804Y67435240D01*
X9645804Y67435240D02*
X9588661Y67406669D01*
X9588661Y67406669D02*
X9474376Y67406669D01*
X9474376Y67406669D02*
X9417233Y67435240D01*
X9874375Y67806669D02*
X10102947Y67806669D01*
X9960090Y68006669D02*
X9960090Y67492383D01*
X9960090Y67492383D02*
X9988661Y67435240D01*
X9988661Y67435240D02*
X10045804Y67406669D01*
X10045804Y67406669D02*
X10102947Y67406669D01*
X10531518Y67435240D02*
X10474375Y67406669D01*
X10474375Y67406669D02*
X10360090Y67406669D01*
X10360090Y67406669D02*
X10302947Y67435240D01*
X10302947Y67435240D02*
X10274375Y67492383D01*
X10274375Y67492383D02*
X10274375Y67720955D01*
X10274375Y67720955D02*
X10302947Y67778098D01*
X10302947Y67778098D02*
X10360090Y67806669D01*
X10360090Y67806669D02*
X10474375Y67806669D01*
X10474375Y67806669D02*
X10531518Y67778098D01*
X10531518Y67778098D02*
X10560090Y67720955D01*
X10560090Y67720955D02*
X10560090Y67663812D01*
X10560090Y67663812D02*
X10274375Y67606669D01*
X10817233Y67406669D02*
X10817233Y67806669D01*
X10817233Y67692383D02*
X10845804Y67749526D01*
X10845804Y67749526D02*
X10874376Y67778098D01*
X10874376Y67778098D02*
X10931518Y67806669D01*
X10931518Y67806669D02*
X10988661Y67806669D01*
D15*
X10105101Y39359725D02*
X9771768Y39835916D01*
X9533673Y39359725D02*
X9533673Y40359725D01*
X9533673Y40359725D02*
X9914625Y40359725D01*
X9914625Y40359725D02*
X10009863Y40312106D01*
X10009863Y40312106D02*
X10057482Y40264487D01*
X10057482Y40264487D02*
X10105101Y40169249D01*
X10105101Y40169249D02*
X10105101Y40026392D01*
X10105101Y40026392D02*
X10057482Y39931154D01*
X10057482Y39931154D02*
X10009863Y39883535D01*
X10009863Y39883535D02*
X9914625Y39835916D01*
X9914625Y39835916D02*
X9533673Y39835916D01*
X10962244Y39359725D02*
X10962244Y39883535D01*
X10962244Y39883535D02*
X10914625Y39978773D01*
X10914625Y39978773D02*
X10819387Y40026392D01*
X10819387Y40026392D02*
X10628911Y40026392D01*
X10628911Y40026392D02*
X10533673Y39978773D01*
X10962244Y39407344D02*
X10867006Y39359725D01*
X10867006Y39359725D02*
X10628911Y39359725D01*
X10628911Y39359725D02*
X10533673Y39407344D01*
X10533673Y39407344D02*
X10486054Y39502583D01*
X10486054Y39502583D02*
X10486054Y39597821D01*
X10486054Y39597821D02*
X10533673Y39693059D01*
X10533673Y39693059D02*
X10628911Y39740678D01*
X10628911Y39740678D02*
X10867006Y39740678D01*
X10867006Y39740678D02*
X10962244Y39788297D01*
X11390816Y39407344D02*
X11486054Y39359725D01*
X11486054Y39359725D02*
X11676530Y39359725D01*
X11676530Y39359725D02*
X11771768Y39407344D01*
X11771768Y39407344D02*
X11819387Y39502583D01*
X11819387Y39502583D02*
X11819387Y39550202D01*
X11819387Y39550202D02*
X11771768Y39645440D01*
X11771768Y39645440D02*
X11676530Y39693059D01*
X11676530Y39693059D02*
X11533673Y39693059D01*
X11533673Y39693059D02*
X11438435Y39740678D01*
X11438435Y39740678D02*
X11390816Y39835916D01*
X11390816Y39835916D02*
X11390816Y39883535D01*
X11390816Y39883535D02*
X11438435Y39978773D01*
X11438435Y39978773D02*
X11533673Y40026392D01*
X11533673Y40026392D02*
X11676530Y40026392D01*
X11676530Y40026392D02*
X11771768Y39978773D01*
X13009864Y40026392D02*
X13009864Y39026392D01*
X13009864Y39978773D02*
X13105102Y40026392D01*
X13105102Y40026392D02*
X13295578Y40026392D01*
X13295578Y40026392D02*
X13390816Y39978773D01*
X13390816Y39978773D02*
X13438435Y39931154D01*
X13438435Y39931154D02*
X13486054Y39835916D01*
X13486054Y39835916D02*
X13486054Y39550202D01*
X13486054Y39550202D02*
X13438435Y39454964D01*
X13438435Y39454964D02*
X13390816Y39407344D01*
X13390816Y39407344D02*
X13295578Y39359725D01*
X13295578Y39359725D02*
X13105102Y39359725D01*
X13105102Y39359725D02*
X13009864Y39407344D01*
X13914626Y39359725D02*
X13914626Y40359725D01*
X13914626Y39978773D02*
X14009864Y40026392D01*
X14009864Y40026392D02*
X14200340Y40026392D01*
X14200340Y40026392D02*
X14295578Y39978773D01*
X14295578Y39978773D02*
X14343197Y39931154D01*
X14343197Y39931154D02*
X14390816Y39835916D01*
X14390816Y39835916D02*
X14390816Y39550202D01*
X14390816Y39550202D02*
X14343197Y39454964D01*
X14343197Y39454964D02*
X14295578Y39407344D01*
X14295578Y39407344D02*
X14200340Y39359725D01*
X14200340Y39359725D02*
X14009864Y39359725D01*
X14009864Y39359725D02*
X13914626Y39407344D01*
X15200340Y39407344D02*
X15105102Y39359725D01*
X15105102Y39359725D02*
X14914626Y39359725D01*
X14914626Y39359725D02*
X14819388Y39407344D01*
X14819388Y39407344D02*
X14771769Y39502583D01*
X14771769Y39502583D02*
X14771769Y39883535D01*
X14771769Y39883535D02*
X14819388Y39978773D01*
X14819388Y39978773D02*
X14914626Y40026392D01*
X14914626Y40026392D02*
X15105102Y40026392D01*
X15105102Y40026392D02*
X15200340Y39978773D01*
X15200340Y39978773D02*
X15247959Y39883535D01*
X15247959Y39883535D02*
X15247959Y39788297D01*
X15247959Y39788297D02*
X14771769Y39693059D01*
X15676531Y39359725D02*
X15676531Y40026392D01*
X15676531Y39835916D02*
X15724150Y39931154D01*
X15724150Y39931154D02*
X15771769Y39978773D01*
X15771769Y39978773D02*
X15867007Y40026392D01*
X15867007Y40026392D02*
X15962245Y40026392D01*
X16295579Y39359725D02*
X16295579Y40026392D01*
X16295579Y39835916D02*
X16343198Y39931154D01*
X16343198Y39931154D02*
X16390817Y39978773D01*
X16390817Y39978773D02*
X16486055Y40026392D01*
X16486055Y40026392D02*
X16581293Y40026392D01*
X16819389Y40026392D02*
X17057484Y39359725D01*
X17295579Y40026392D02*
X17057484Y39359725D01*
X17057484Y39359725D02*
X16962246Y39121630D01*
X16962246Y39121630D02*
X16914627Y39074011D01*
X16914627Y39074011D02*
X16819389Y39026392D01*
X17676532Y40026392D02*
X17676532Y39026392D01*
X17676532Y39978773D02*
X17771770Y40026392D01*
X17771770Y40026392D02*
X17962246Y40026392D01*
X17962246Y40026392D02*
X18057484Y39978773D01*
X18057484Y39978773D02*
X18105103Y39931154D01*
X18105103Y39931154D02*
X18152722Y39835916D01*
X18152722Y39835916D02*
X18152722Y39550202D01*
X18152722Y39550202D02*
X18105103Y39454964D01*
X18105103Y39454964D02*
X18057484Y39407344D01*
X18057484Y39407344D02*
X17962246Y39359725D01*
X17962246Y39359725D02*
X17771770Y39359725D01*
X17771770Y39359725D02*
X17676532Y39407344D01*
X18581294Y39359725D02*
X18581294Y40026392D01*
X18581294Y40359725D02*
X18533675Y40312106D01*
X18533675Y40312106D02*
X18581294Y40264487D01*
X18581294Y40264487D02*
X18628913Y40312106D01*
X18628913Y40312106D02*
X18581294Y40359725D01*
X18581294Y40359725D02*
X18581294Y40264487D01*
X9533673Y37749781D02*
X9533673Y38749781D01*
X9533673Y38749781D02*
X9914625Y38749781D01*
X9914625Y38749781D02*
X10009863Y38702162D01*
X10009863Y38702162D02*
X10057482Y38654543D01*
X10057482Y38654543D02*
X10105101Y38559305D01*
X10105101Y38559305D02*
X10105101Y38416448D01*
X10105101Y38416448D02*
X10057482Y38321210D01*
X10057482Y38321210D02*
X10009863Y38273591D01*
X10009863Y38273591D02*
X9914625Y38225972D01*
X9914625Y38225972D02*
X9533673Y38225972D01*
X10533673Y37749781D02*
X10533673Y38749781D01*
X13105101Y37845020D02*
X13057482Y37797400D01*
X13057482Y37797400D02*
X12914625Y37749781D01*
X12914625Y37749781D02*
X12819387Y37749781D01*
X12819387Y37749781D02*
X12676530Y37797400D01*
X12676530Y37797400D02*
X12581292Y37892639D01*
X12581292Y37892639D02*
X12533673Y37987877D01*
X12533673Y37987877D02*
X12486054Y38178353D01*
X12486054Y38178353D02*
X12486054Y38321210D01*
X12486054Y38321210D02*
X12533673Y38511686D01*
X12533673Y38511686D02*
X12581292Y38606924D01*
X12581292Y38606924D02*
X12676530Y38702162D01*
X12676530Y38702162D02*
X12819387Y38749781D01*
X12819387Y38749781D02*
X12914625Y38749781D01*
X12914625Y38749781D02*
X13057482Y38702162D01*
X13057482Y38702162D02*
X13105101Y38654543D01*
X13724149Y38749781D02*
X13914625Y38749781D01*
X13914625Y38749781D02*
X14009863Y38702162D01*
X14009863Y38702162D02*
X14105101Y38606924D01*
X14105101Y38606924D02*
X14152720Y38416448D01*
X14152720Y38416448D02*
X14152720Y38083115D01*
X14152720Y38083115D02*
X14105101Y37892639D01*
X14105101Y37892639D02*
X14009863Y37797400D01*
X14009863Y37797400D02*
X13914625Y37749781D01*
X13914625Y37749781D02*
X13724149Y37749781D01*
X13724149Y37749781D02*
X13628911Y37797400D01*
X13628911Y37797400D02*
X13533673Y37892639D01*
X13533673Y37892639D02*
X13486054Y38083115D01*
X13486054Y38083115D02*
X13486054Y38416448D01*
X13486054Y38416448D02*
X13533673Y38606924D01*
X13533673Y38606924D02*
X13628911Y38702162D01*
X13628911Y38702162D02*
X13724149Y38749781D01*
X15295577Y38797400D02*
X14438435Y37511686D01*
X15628911Y37749781D02*
X15628911Y38749781D01*
X15628911Y38749781D02*
X16009863Y38749781D01*
X16009863Y38749781D02*
X16105101Y38702162D01*
X16105101Y38702162D02*
X16152720Y38654543D01*
X16152720Y38654543D02*
X16200339Y38559305D01*
X16200339Y38559305D02*
X16200339Y38416448D01*
X16200339Y38416448D02*
X16152720Y38321210D01*
X16152720Y38321210D02*
X16105101Y38273591D01*
X16105101Y38273591D02*
X16009863Y38225972D01*
X16009863Y38225972D02*
X15628911Y38225972D01*
X16628911Y37749781D02*
X16628911Y38749781D01*
X17676529Y37845020D02*
X17628910Y37797400D01*
X17628910Y37797400D02*
X17486053Y37749781D01*
X17486053Y37749781D02*
X17390815Y37749781D01*
X17390815Y37749781D02*
X17247958Y37797400D01*
X17247958Y37797400D02*
X17152720Y37892639D01*
X17152720Y37892639D02*
X17105101Y37987877D01*
X17105101Y37987877D02*
X17057482Y38178353D01*
X17057482Y38178353D02*
X17057482Y38321210D01*
X17057482Y38321210D02*
X17105101Y38511686D01*
X17105101Y38511686D02*
X17152720Y38606924D01*
X17152720Y38606924D02*
X17247958Y38702162D01*
X17247958Y38702162D02*
X17390815Y38749781D01*
X17390815Y38749781D02*
X17486053Y38749781D01*
X17486053Y38749781D02*
X17628910Y38702162D01*
X17628910Y38702162D02*
X17676529Y38654543D01*
X18295577Y38749781D02*
X18486053Y38749781D01*
X18486053Y38749781D02*
X18581291Y38702162D01*
X18581291Y38702162D02*
X18676529Y38606924D01*
X18676529Y38606924D02*
X18724148Y38416448D01*
X18724148Y38416448D02*
X18724148Y38083115D01*
X18724148Y38083115D02*
X18676529Y37892639D01*
X18676529Y37892639D02*
X18581291Y37797400D01*
X18581291Y37797400D02*
X18486053Y37749781D01*
X18486053Y37749781D02*
X18295577Y37749781D01*
X18295577Y37749781D02*
X18200339Y37797400D01*
X18200339Y37797400D02*
X18105101Y37892639D01*
X18105101Y37892639D02*
X18057482Y38083115D01*
X18057482Y38083115D02*
X18057482Y38416448D01*
X18057482Y38416448D02*
X18105101Y38606924D01*
X18105101Y38606924D02*
X18200339Y38702162D01*
X18200339Y38702162D02*
X18295577Y38749781D01*
X19105101Y38654543D02*
X19152720Y38702162D01*
X19152720Y38702162D02*
X19247958Y38749781D01*
X19247958Y38749781D02*
X19486053Y38749781D01*
X19486053Y38749781D02*
X19581291Y38702162D01*
X19581291Y38702162D02*
X19628910Y38654543D01*
X19628910Y38654543D02*
X19676529Y38559305D01*
X19676529Y38559305D02*
X19676529Y38464067D01*
X19676529Y38464067D02*
X19628910Y38321210D01*
X19628910Y38321210D02*
X19057482Y37749781D01*
X19057482Y37749781D02*
X19676529Y37749781D01*
D12*
X4867739Y7218225D02*
X4867739Y8018225D01*
X5210595Y7942035D02*
X5248691Y7980130D01*
X5248691Y7980130D02*
X5324881Y8018225D01*
X5324881Y8018225D02*
X5515357Y8018225D01*
X5515357Y8018225D02*
X5591548Y7980130D01*
X5591548Y7980130D02*
X5629643Y7942035D01*
X5629643Y7942035D02*
X5667738Y7865844D01*
X5667738Y7865844D02*
X5667738Y7789654D01*
X5667738Y7789654D02*
X5629643Y7675368D01*
X5629643Y7675368D02*
X5172500Y7218225D01*
X5172500Y7218225D02*
X5667738Y7218225D01*
X6467739Y7294416D02*
X6429643Y7256320D01*
X6429643Y7256320D02*
X6315358Y7218225D01*
X6315358Y7218225D02*
X6239167Y7218225D01*
X6239167Y7218225D02*
X6124881Y7256320D01*
X6124881Y7256320D02*
X6048691Y7332511D01*
X6048691Y7332511D02*
X6010596Y7408701D01*
X6010596Y7408701D02*
X5972500Y7561082D01*
X5972500Y7561082D02*
X5972500Y7675368D01*
X5972500Y7675368D02*
X6010596Y7827749D01*
X6010596Y7827749D02*
X6048691Y7903940D01*
X6048691Y7903940D02*
X6124881Y7980130D01*
X6124881Y7980130D02*
X6239167Y8018225D01*
X6239167Y8018225D02*
X6315358Y8018225D01*
X6315358Y8018225D02*
X6429643Y7980130D01*
X6429643Y7980130D02*
X6467739Y7942035D01*
X28811775Y727549D02*
X28811775Y1222787D01*
X28811775Y1222787D02*
X29116537Y956121D01*
X29116537Y956121D02*
X29116537Y1070406D01*
X29116537Y1070406D02*
X29154632Y1146597D01*
X29154632Y1146597D02*
X29192727Y1184692D01*
X29192727Y1184692D02*
X29268918Y1222787D01*
X29268918Y1222787D02*
X29459394Y1222787D01*
X29459394Y1222787D02*
X29535584Y1184692D01*
X29535584Y1184692D02*
X29573680Y1146597D01*
X29573680Y1146597D02*
X29611775Y1070406D01*
X29611775Y1070406D02*
X29611775Y841835D01*
X29611775Y841835D02*
X29573680Y765644D01*
X29573680Y765644D02*
X29535584Y727549D01*
X29535584Y1565645D02*
X29573680Y1603740D01*
X29573680Y1603740D02*
X29611775Y1565645D01*
X29611775Y1565645D02*
X29573680Y1527549D01*
X29573680Y1527549D02*
X29535584Y1565645D01*
X29535584Y1565645D02*
X29611775Y1565645D01*
X28811775Y1870406D02*
X28811775Y2365644D01*
X28811775Y2365644D02*
X29116537Y2098978D01*
X29116537Y2098978D02*
X29116537Y2213263D01*
X29116537Y2213263D02*
X29154632Y2289454D01*
X29154632Y2289454D02*
X29192727Y2327549D01*
X29192727Y2327549D02*
X29268918Y2365644D01*
X29268918Y2365644D02*
X29459394Y2365644D01*
X29459394Y2365644D02*
X29535584Y2327549D01*
X29535584Y2327549D02*
X29573680Y2289454D01*
X29573680Y2289454D02*
X29611775Y2213263D01*
X29611775Y2213263D02*
X29611775Y1984692D01*
X29611775Y1984692D02*
X29573680Y1908501D01*
X29573680Y1908501D02*
X29535584Y1870406D01*
X28811775Y2594216D02*
X29611775Y2860883D01*
X29611775Y2860883D02*
X28811775Y3127549D01*
X26995584Y2276883D02*
X27033680Y2238787D01*
X27033680Y2238787D02*
X27071775Y2124502D01*
X27071775Y2124502D02*
X27071775Y2048311D01*
X27071775Y2048311D02*
X27033680Y1934025D01*
X27033680Y1934025D02*
X26957489Y1857835D01*
X26957489Y1857835D02*
X26881299Y1819740D01*
X26881299Y1819740D02*
X26728918Y1781644D01*
X26728918Y1781644D02*
X26614632Y1781644D01*
X26614632Y1781644D02*
X26462251Y1819740D01*
X26462251Y1819740D02*
X26386060Y1857835D01*
X26386060Y1857835D02*
X26309870Y1934025D01*
X26309870Y1934025D02*
X26271775Y2048311D01*
X26271775Y2048311D02*
X26271775Y2124502D01*
X26271775Y2124502D02*
X26309870Y2238787D01*
X26309870Y2238787D02*
X26347965Y2276883D01*
X27033680Y2581644D02*
X27071775Y2695930D01*
X27071775Y2695930D02*
X27071775Y2886406D01*
X27071775Y2886406D02*
X27033680Y2962597D01*
X27033680Y2962597D02*
X26995584Y3000692D01*
X26995584Y3000692D02*
X26919394Y3038787D01*
X26919394Y3038787D02*
X26843203Y3038787D01*
X26843203Y3038787D02*
X26767013Y3000692D01*
X26767013Y3000692D02*
X26728918Y2962597D01*
X26728918Y2962597D02*
X26690822Y2886406D01*
X26690822Y2886406D02*
X26652727Y2734025D01*
X26652727Y2734025D02*
X26614632Y2657835D01*
X26614632Y2657835D02*
X26576537Y2619740D01*
X26576537Y2619740D02*
X26500346Y2581644D01*
X26500346Y2581644D02*
X26424156Y2581644D01*
X26424156Y2581644D02*
X26347965Y2619740D01*
X26347965Y2619740D02*
X26309870Y2657835D01*
X26309870Y2657835D02*
X26271775Y2734025D01*
X26271775Y2734025D02*
X26271775Y2924502D01*
X26271775Y2924502D02*
X26309870Y3038787D01*
D13*
X20852074Y66202058D02*
X21137789Y66202058D01*
X20794931Y66030629D02*
X20994931Y66630629D01*
X20994931Y66630629D02*
X21194931Y66030629D01*
X21394932Y66030629D02*
X21394932Y66630629D01*
X21394932Y66630629D02*
X21537789Y66630629D01*
X21537789Y66630629D02*
X21623503Y66602058D01*
X21623503Y66602058D02*
X21680646Y66544915D01*
X21680646Y66544915D02*
X21709217Y66487772D01*
X21709217Y66487772D02*
X21737789Y66373486D01*
X21737789Y66373486D02*
X21737789Y66287772D01*
X21737789Y66287772D02*
X21709217Y66173486D01*
X21709217Y66173486D02*
X21680646Y66116343D01*
X21680646Y66116343D02*
X21623503Y66059200D01*
X21623503Y66059200D02*
X21537789Y66030629D01*
X21537789Y66030629D02*
X21394932Y66030629D01*
X22337789Y66087772D02*
X22309217Y66059200D01*
X22309217Y66059200D02*
X22223503Y66030629D01*
X22223503Y66030629D02*
X22166360Y66030629D01*
X22166360Y66030629D02*
X22080646Y66059200D01*
X22080646Y66059200D02*
X22023503Y66116343D01*
X22023503Y66116343D02*
X21994932Y66173486D01*
X21994932Y66173486D02*
X21966360Y66287772D01*
X21966360Y66287772D02*
X21966360Y66373486D01*
X21966360Y66373486D02*
X21994932Y66487772D01*
X21994932Y66487772D02*
X22023503Y66544915D01*
X22023503Y66544915D02*
X22080646Y66602058D01*
X22080646Y66602058D02*
X22166360Y66630629D01*
X22166360Y66630629D02*
X22223503Y66630629D01*
X22223503Y66630629D02*
X22309217Y66602058D01*
X22309217Y66602058D02*
X22337789Y66573486D01*
X22452075Y65973486D02*
X22909217Y65973486D01*
X22966360Y66630629D02*
X23166360Y66030629D01*
X23166360Y66030629D02*
X23366360Y66630629D01*
X23909218Y66030629D02*
X23709218Y66316343D01*
X23566361Y66030629D02*
X23566361Y66630629D01*
X23566361Y66630629D02*
X23794932Y66630629D01*
X23794932Y66630629D02*
X23852075Y66602058D01*
X23852075Y66602058D02*
X23880646Y66573486D01*
X23880646Y66573486D02*
X23909218Y66516343D01*
X23909218Y66516343D02*
X23909218Y66430629D01*
X23909218Y66430629D02*
X23880646Y66373486D01*
X23880646Y66373486D02*
X23852075Y66344915D01*
X23852075Y66344915D02*
X23794932Y66316343D01*
X23794932Y66316343D02*
X23566361Y66316343D01*
X24166361Y66344915D02*
X24366361Y66344915D01*
X24452075Y66030629D02*
X24166361Y66030629D01*
X24166361Y66030629D02*
X24166361Y66630629D01*
X24166361Y66630629D02*
X24452075Y66630629D01*
X24909218Y66344915D02*
X24709218Y66344915D01*
X24709218Y66030629D02*
X24709218Y66630629D01*
X24709218Y66630629D02*
X24994932Y66630629D01*
D15*
X11450673Y61613781D02*
X11450673Y60804258D01*
X11450673Y60804258D02*
X11498292Y60709020D01*
X11498292Y60709020D02*
X11545911Y60661400D01*
X11545911Y60661400D02*
X11641149Y60613781D01*
X11641149Y60613781D02*
X11831625Y60613781D01*
X11831625Y60613781D02*
X11926863Y60661400D01*
X11926863Y60661400D02*
X11974482Y60709020D01*
X11974482Y60709020D02*
X12022101Y60804258D01*
X12022101Y60804258D02*
X12022101Y61613781D01*
X12450673Y60661400D02*
X12593530Y60613781D01*
X12593530Y60613781D02*
X12831625Y60613781D01*
X12831625Y60613781D02*
X12926863Y60661400D01*
X12926863Y60661400D02*
X12974482Y60709020D01*
X12974482Y60709020D02*
X13022101Y60804258D01*
X13022101Y60804258D02*
X13022101Y60899496D01*
X13022101Y60899496D02*
X12974482Y60994734D01*
X12974482Y60994734D02*
X12926863Y61042353D01*
X12926863Y61042353D02*
X12831625Y61089972D01*
X12831625Y61089972D02*
X12641149Y61137591D01*
X12641149Y61137591D02*
X12545911Y61185210D01*
X12545911Y61185210D02*
X12498292Y61232829D01*
X12498292Y61232829D02*
X12450673Y61328067D01*
X12450673Y61328067D02*
X12450673Y61423305D01*
X12450673Y61423305D02*
X12498292Y61518543D01*
X12498292Y61518543D02*
X12545911Y61566162D01*
X12545911Y61566162D02*
X12641149Y61613781D01*
X12641149Y61613781D02*
X12879244Y61613781D01*
X12879244Y61613781D02*
X13022101Y61566162D01*
X13784006Y61137591D02*
X13926863Y61089972D01*
X13926863Y61089972D02*
X13974482Y61042353D01*
X13974482Y61042353D02*
X14022101Y60947115D01*
X14022101Y60947115D02*
X14022101Y60804258D01*
X14022101Y60804258D02*
X13974482Y60709020D01*
X13974482Y60709020D02*
X13926863Y60661400D01*
X13926863Y60661400D02*
X13831625Y60613781D01*
X13831625Y60613781D02*
X13450673Y60613781D01*
X13450673Y60613781D02*
X13450673Y61613781D01*
X13450673Y61613781D02*
X13784006Y61613781D01*
X13784006Y61613781D02*
X13879244Y61566162D01*
X13879244Y61566162D02*
X13926863Y61518543D01*
X13926863Y61518543D02*
X13974482Y61423305D01*
X13974482Y61423305D02*
X13974482Y61328067D01*
X13974482Y61328067D02*
X13926863Y61232829D01*
X13926863Y61232829D02*
X13879244Y61185210D01*
X13879244Y61185210D02*
X13784006Y61137591D01*
X13784006Y61137591D02*
X13450673Y61137591D01*
D13*
X26074503Y66630629D02*
X26445931Y66630629D01*
X26445931Y66630629D02*
X26245931Y66402058D01*
X26245931Y66402058D02*
X26331646Y66402058D01*
X26331646Y66402058D02*
X26388789Y66373486D01*
X26388789Y66373486D02*
X26417360Y66344915D01*
X26417360Y66344915D02*
X26445931Y66287772D01*
X26445931Y66287772D02*
X26445931Y66144915D01*
X26445931Y66144915D02*
X26417360Y66087772D01*
X26417360Y66087772D02*
X26388789Y66059200D01*
X26388789Y66059200D02*
X26331646Y66030629D01*
X26331646Y66030629D02*
X26160217Y66030629D01*
X26160217Y66030629D02*
X26103074Y66059200D01*
X26103074Y66059200D02*
X26074503Y66087772D01*
X26617360Y66630629D02*
X26817360Y66030629D01*
X26817360Y66030629D02*
X27017360Y66630629D01*
X27160218Y66630629D02*
X27531646Y66630629D01*
X27531646Y66630629D02*
X27331646Y66402058D01*
X27331646Y66402058D02*
X27417361Y66402058D01*
X27417361Y66402058D02*
X27474504Y66373486D01*
X27474504Y66373486D02*
X27503075Y66344915D01*
X27503075Y66344915D02*
X27531646Y66287772D01*
X27531646Y66287772D02*
X27531646Y66144915D01*
X27531646Y66144915D02*
X27503075Y66087772D01*
X27503075Y66087772D02*
X27474504Y66059200D01*
X27474504Y66059200D02*
X27417361Y66030629D01*
X27417361Y66030629D02*
X27245932Y66030629D01*
X27245932Y66030629D02*
X27188789Y66059200D01*
X27188789Y66059200D02*
X27160218Y66087772D01*
X27645933Y65973486D02*
X28103075Y65973486D01*
X28245933Y66344915D02*
X28445933Y66344915D01*
X28531647Y66030629D02*
X28245933Y66030629D01*
X28245933Y66030629D02*
X28245933Y66630629D01*
X28245933Y66630629D02*
X28531647Y66630629D01*
X28788790Y66030629D02*
X28788790Y66630629D01*
X28788790Y66630629D02*
X29131647Y66030629D01*
X29131647Y66030629D02*
X29131647Y66630629D01*
D10*
X20148779Y9106125D02*
X20148779Y10106125D01*
X20148779Y10106125D02*
X20482112Y9391840D01*
X20482112Y9391840D02*
X20815445Y10106125D01*
X20815445Y10106125D02*
X20815445Y9106125D01*
X21291636Y9106125D02*
X21291636Y9772792D01*
X21291636Y10106125D02*
X21244017Y10058506D01*
X21244017Y10058506D02*
X21291636Y10010887D01*
X21291636Y10010887D02*
X21339255Y10058506D01*
X21339255Y10058506D02*
X21291636Y10106125D01*
X21291636Y10106125D02*
X21291636Y10010887D01*
X22196397Y9153744D02*
X22101159Y9106125D01*
X22101159Y9106125D02*
X21910683Y9106125D01*
X21910683Y9106125D02*
X21815445Y9153744D01*
X21815445Y9153744D02*
X21767826Y9201364D01*
X21767826Y9201364D02*
X21720207Y9296602D01*
X21720207Y9296602D02*
X21720207Y9582316D01*
X21720207Y9582316D02*
X21767826Y9677554D01*
X21767826Y9677554D02*
X21815445Y9725173D01*
X21815445Y9725173D02*
X21910683Y9772792D01*
X21910683Y9772792D02*
X22101159Y9772792D01*
X22101159Y9772792D02*
X22196397Y9725173D01*
X22624969Y9106125D02*
X22624969Y9772792D01*
X22624969Y9582316D02*
X22672588Y9677554D01*
X22672588Y9677554D02*
X22720207Y9725173D01*
X22720207Y9725173D02*
X22815445Y9772792D01*
X22815445Y9772792D02*
X22910683Y9772792D01*
X23386874Y9106125D02*
X23291636Y9153744D01*
X23291636Y9153744D02*
X23244017Y9201364D01*
X23244017Y9201364D02*
X23196398Y9296602D01*
X23196398Y9296602D02*
X23196398Y9582316D01*
X23196398Y9582316D02*
X23244017Y9677554D01*
X23244017Y9677554D02*
X23291636Y9725173D01*
X23291636Y9725173D02*
X23386874Y9772792D01*
X23386874Y9772792D02*
X23529731Y9772792D01*
X23529731Y9772792D02*
X23624969Y9725173D01*
X23624969Y9725173D02*
X23672588Y9677554D01*
X23672588Y9677554D02*
X23720207Y9582316D01*
X23720207Y9582316D02*
X23720207Y9296602D01*
X23720207Y9296602D02*
X23672588Y9201364D01*
X23672588Y9201364D02*
X23624969Y9153744D01*
X23624969Y9153744D02*
X23529731Y9106125D01*
X23529731Y9106125D02*
X23386874Y9106125D01*
X24863065Y9153744D02*
X25005922Y9106125D01*
X25005922Y9106125D02*
X25244017Y9106125D01*
X25244017Y9106125D02*
X25339255Y9153744D01*
X25339255Y9153744D02*
X25386874Y9201364D01*
X25386874Y9201364D02*
X25434493Y9296602D01*
X25434493Y9296602D02*
X25434493Y9391840D01*
X25434493Y9391840D02*
X25386874Y9487078D01*
X25386874Y9487078D02*
X25339255Y9534697D01*
X25339255Y9534697D02*
X25244017Y9582316D01*
X25244017Y9582316D02*
X25053541Y9629935D01*
X25053541Y9629935D02*
X24958303Y9677554D01*
X24958303Y9677554D02*
X24910684Y9725173D01*
X24910684Y9725173D02*
X24863065Y9820411D01*
X24863065Y9820411D02*
X24863065Y9915649D01*
X24863065Y9915649D02*
X24910684Y10010887D01*
X24910684Y10010887D02*
X24958303Y10058506D01*
X24958303Y10058506D02*
X25053541Y10106125D01*
X25053541Y10106125D02*
X25291636Y10106125D01*
X25291636Y10106125D02*
X25434493Y10058506D01*
X25863065Y9106125D02*
X25863065Y10106125D01*
X25863065Y10106125D02*
X26101160Y10106125D01*
X26101160Y10106125D02*
X26244017Y10058506D01*
X26244017Y10058506D02*
X26339255Y9963268D01*
X26339255Y9963268D02*
X26386874Y9868030D01*
X26386874Y9868030D02*
X26434493Y9677554D01*
X26434493Y9677554D02*
X26434493Y9534697D01*
X26434493Y9534697D02*
X26386874Y9344221D01*
X26386874Y9344221D02*
X26339255Y9248983D01*
X26339255Y9248983D02*
X26244017Y9153744D01*
X26244017Y9153744D02*
X26101160Y9106125D01*
X26101160Y9106125D02*
X25863065Y9106125D01*
X21196398Y7115229D02*
X21148779Y7162848D01*
X21148779Y7162848D02*
X21053541Y7305705D01*
X21053541Y7305705D02*
X21005922Y7400943D01*
X21005922Y7400943D02*
X20958303Y7543800D01*
X20958303Y7543800D02*
X20910684Y7781896D01*
X20910684Y7781896D02*
X20910684Y7972372D01*
X20910684Y7972372D02*
X20958303Y8210467D01*
X20958303Y8210467D02*
X21005922Y8353324D01*
X21005922Y8353324D02*
X21053541Y8448562D01*
X21053541Y8448562D02*
X21148779Y8591420D01*
X21148779Y8591420D02*
X21196398Y8639039D01*
X21529732Y7543800D02*
X21672589Y7496181D01*
X21672589Y7496181D02*
X21910684Y7496181D01*
X21910684Y7496181D02*
X22005922Y7543800D01*
X22005922Y7543800D02*
X22053541Y7591420D01*
X22053541Y7591420D02*
X22101160Y7686658D01*
X22101160Y7686658D02*
X22101160Y7781896D01*
X22101160Y7781896D02*
X22053541Y7877134D01*
X22053541Y7877134D02*
X22005922Y7924753D01*
X22005922Y7924753D02*
X21910684Y7972372D01*
X21910684Y7972372D02*
X21720208Y8019991D01*
X21720208Y8019991D02*
X21624970Y8067610D01*
X21624970Y8067610D02*
X21577351Y8115229D01*
X21577351Y8115229D02*
X21529732Y8210467D01*
X21529732Y8210467D02*
X21529732Y8305705D01*
X21529732Y8305705D02*
X21577351Y8400943D01*
X21577351Y8400943D02*
X21624970Y8448562D01*
X21624970Y8448562D02*
X21720208Y8496181D01*
X21720208Y8496181D02*
X21958303Y8496181D01*
X21958303Y8496181D02*
X22101160Y8448562D01*
X22529732Y7496181D02*
X22529732Y8496181D01*
X22529732Y8496181D02*
X22910684Y8496181D01*
X22910684Y8496181D02*
X23005922Y8448562D01*
X23005922Y8448562D02*
X23053541Y8400943D01*
X23053541Y8400943D02*
X23101160Y8305705D01*
X23101160Y8305705D02*
X23101160Y8162848D01*
X23101160Y8162848D02*
X23053541Y8067610D01*
X23053541Y8067610D02*
X23005922Y8019991D01*
X23005922Y8019991D02*
X22910684Y7972372D01*
X22910684Y7972372D02*
X22529732Y7972372D01*
X23529732Y7496181D02*
X23529732Y8496181D01*
X23910684Y7115229D02*
X23958303Y7162848D01*
X23958303Y7162848D02*
X24053541Y7305705D01*
X24053541Y7305705D02*
X24101160Y7400943D01*
X24101160Y7400943D02*
X24148779Y7543800D01*
X24148779Y7543800D02*
X24196398Y7781896D01*
X24196398Y7781896D02*
X24196398Y7972372D01*
X24196398Y7972372D02*
X24148779Y8210467D01*
X24148779Y8210467D02*
X24101160Y8353324D01*
X24101160Y8353324D02*
X24053541Y8448562D01*
X24053541Y8448562D02*
X23958303Y8591420D01*
X23958303Y8591420D02*
X23910684Y8639039D01*
D12*
X4681775Y943454D02*
X5481775Y1210121D01*
X5481775Y1210121D02*
X4681775Y1476787D01*
X5405584Y2200597D02*
X5443680Y2162501D01*
X5443680Y2162501D02*
X5481775Y2048216D01*
X5481775Y2048216D02*
X5481775Y1972025D01*
X5481775Y1972025D02*
X5443680Y1857739D01*
X5443680Y1857739D02*
X5367489Y1781549D01*
X5367489Y1781549D02*
X5291299Y1743454D01*
X5291299Y1743454D02*
X5138918Y1705358D01*
X5138918Y1705358D02*
X5024632Y1705358D01*
X5024632Y1705358D02*
X4872251Y1743454D01*
X4872251Y1743454D02*
X4796060Y1781549D01*
X4796060Y1781549D02*
X4719870Y1857739D01*
X4719870Y1857739D02*
X4681775Y1972025D01*
X4681775Y1972025D02*
X4681775Y2048216D01*
X4681775Y2048216D02*
X4719870Y2162501D01*
X4719870Y2162501D02*
X4757965Y2200597D01*
X5405584Y3000597D02*
X5443680Y2962501D01*
X5443680Y2962501D02*
X5481775Y2848216D01*
X5481775Y2848216D02*
X5481775Y2772025D01*
X5481775Y2772025D02*
X5443680Y2657739D01*
X5443680Y2657739D02*
X5367489Y2581549D01*
X5367489Y2581549D02*
X5291299Y2543454D01*
X5291299Y2543454D02*
X5138918Y2505358D01*
X5138918Y2505358D02*
X5024632Y2505358D01*
X5024632Y2505358D02*
X4872251Y2543454D01*
X4872251Y2543454D02*
X4796060Y2581549D01*
X4796060Y2581549D02*
X4719870Y2657739D01*
X4719870Y2657739D02*
X4681775Y2772025D01*
X4681775Y2772025D02*
X4681775Y2848216D01*
X4681775Y2848216D02*
X4719870Y2962501D01*
X4719870Y2962501D02*
X4757965Y3000597D01*
X7983680Y1019644D02*
X8021775Y1133930D01*
X8021775Y1133930D02*
X8021775Y1324406D01*
X8021775Y1324406D02*
X7983680Y1400597D01*
X7983680Y1400597D02*
X7945584Y1438692D01*
X7945584Y1438692D02*
X7869394Y1476787D01*
X7869394Y1476787D02*
X7793203Y1476787D01*
X7793203Y1476787D02*
X7717013Y1438692D01*
X7717013Y1438692D02*
X7678918Y1400597D01*
X7678918Y1400597D02*
X7640822Y1324406D01*
X7640822Y1324406D02*
X7602727Y1172025D01*
X7602727Y1172025D02*
X7564632Y1095835D01*
X7564632Y1095835D02*
X7526537Y1057740D01*
X7526537Y1057740D02*
X7450346Y1019644D01*
X7450346Y1019644D02*
X7374156Y1019644D01*
X7374156Y1019644D02*
X7297965Y1057740D01*
X7297965Y1057740D02*
X7259870Y1095835D01*
X7259870Y1095835D02*
X7221775Y1172025D01*
X7221775Y1172025D02*
X7221775Y1362502D01*
X7221775Y1362502D02*
X7259870Y1476787D01*
X8021775Y1819645D02*
X7221775Y1819645D01*
X7221775Y1819645D02*
X7221775Y2010121D01*
X7221775Y2010121D02*
X7259870Y2124407D01*
X7259870Y2124407D02*
X7336060Y2200597D01*
X7336060Y2200597D02*
X7412251Y2238692D01*
X7412251Y2238692D02*
X7564632Y2276788D01*
X7564632Y2276788D02*
X7678918Y2276788D01*
X7678918Y2276788D02*
X7831299Y2238692D01*
X7831299Y2238692D02*
X7907489Y2200597D01*
X7907489Y2200597D02*
X7983680Y2124407D01*
X7983680Y2124407D02*
X8021775Y2010121D01*
X8021775Y2010121D02*
X8021775Y1819645D01*
X7793203Y2581549D02*
X7793203Y2962502D01*
X8021775Y2505359D02*
X7221775Y2772026D01*
X7221775Y2772026D02*
X8021775Y3038692D01*
D14*
X838804Y66591955D02*
X1038804Y66591955D01*
X1124518Y66277669D02*
X838804Y66277669D01*
X838804Y66277669D02*
X838804Y66877669D01*
X838804Y66877669D02*
X1124518Y66877669D01*
X1381661Y66277669D02*
X1381661Y66877669D01*
X1381661Y66877669D02*
X1581661Y66449098D01*
X1581661Y66449098D02*
X1781661Y66877669D01*
X1781661Y66877669D02*
X1781661Y66277669D01*
X2067375Y66877669D02*
X2067375Y66391955D01*
X2067375Y66391955D02*
X2095946Y66334812D01*
X2095946Y66334812D02*
X2124518Y66306240D01*
X2124518Y66306240D02*
X2181660Y66277669D01*
X2181660Y66277669D02*
X2295946Y66277669D01*
X2295946Y66277669D02*
X2353089Y66306240D01*
X2353089Y66306240D02*
X2381660Y66334812D01*
X2381660Y66334812D02*
X2410232Y66391955D01*
X2410232Y66391955D02*
X2410232Y66877669D01*
X2638803Y66877669D02*
X3038803Y66877669D01*
X3038803Y66877669D02*
X2638803Y66277669D01*
X2638803Y66277669D02*
X3038803Y66277669D01*
X3353089Y66620526D02*
X3295946Y66649098D01*
X3295946Y66649098D02*
X3267375Y66677669D01*
X3267375Y66677669D02*
X3238803Y66734812D01*
X3238803Y66734812D02*
X3238803Y66763383D01*
X3238803Y66763383D02*
X3267375Y66820526D01*
X3267375Y66820526D02*
X3295946Y66849098D01*
X3295946Y66849098D02*
X3353089Y66877669D01*
X3353089Y66877669D02*
X3467375Y66877669D01*
X3467375Y66877669D02*
X3524518Y66849098D01*
X3524518Y66849098D02*
X3553089Y66820526D01*
X3553089Y66820526D02*
X3581660Y66763383D01*
X3581660Y66763383D02*
X3581660Y66734812D01*
X3581660Y66734812D02*
X3553089Y66677669D01*
X3553089Y66677669D02*
X3524518Y66649098D01*
X3524518Y66649098D02*
X3467375Y66620526D01*
X3467375Y66620526D02*
X3353089Y66620526D01*
X3353089Y66620526D02*
X3295946Y66591955D01*
X3295946Y66591955D02*
X3267375Y66563383D01*
X3267375Y66563383D02*
X3238803Y66506240D01*
X3238803Y66506240D02*
X3238803Y66391955D01*
X3238803Y66391955D02*
X3267375Y66334812D01*
X3267375Y66334812D02*
X3295946Y66306240D01*
X3295946Y66306240D02*
X3353089Y66277669D01*
X3353089Y66277669D02*
X3467375Y66277669D01*
X3467375Y66277669D02*
X3524518Y66306240D01*
X3524518Y66306240D02*
X3553089Y66334812D01*
X3553089Y66334812D02*
X3581660Y66391955D01*
X3581660Y66391955D02*
X3581660Y66506240D01*
X3581660Y66506240D02*
X3553089Y66563383D01*
X3553089Y66563383D02*
X3524518Y66591955D01*
X3524518Y66591955D02*
X3467375Y66620526D01*
X3953089Y66877669D02*
X4010232Y66877669D01*
X4010232Y66877669D02*
X4067375Y66849098D01*
X4067375Y66849098D02*
X4095947Y66820526D01*
X4095947Y66820526D02*
X4124518Y66763383D01*
X4124518Y66763383D02*
X4153089Y66649098D01*
X4153089Y66649098D02*
X4153089Y66506240D01*
X4153089Y66506240D02*
X4124518Y66391955D01*
X4124518Y66391955D02*
X4095947Y66334812D01*
X4095947Y66334812D02*
X4067375Y66306240D01*
X4067375Y66306240D02*
X4010232Y66277669D01*
X4010232Y66277669D02*
X3953089Y66277669D01*
X3953089Y66277669D02*
X3895947Y66306240D01*
X3895947Y66306240D02*
X3867375Y66334812D01*
X3867375Y66334812D02*
X3838804Y66391955D01*
X3838804Y66391955D02*
X3810232Y66506240D01*
X3810232Y66506240D02*
X3810232Y66649098D01*
X3810232Y66649098D02*
X3838804Y66763383D01*
X3838804Y66763383D02*
X3867375Y66820526D01*
X3867375Y66820526D02*
X3895947Y66849098D01*
X3895947Y66849098D02*
X3953089Y66877669D01*
X4410233Y66506240D02*
X4867376Y66506240D01*
X5153090Y66277669D02*
X5153090Y66877669D01*
X5153090Y66877669D02*
X5381661Y66877669D01*
X5381661Y66877669D02*
X5438804Y66849098D01*
X5438804Y66849098D02*
X5467375Y66820526D01*
X5467375Y66820526D02*
X5495947Y66763383D01*
X5495947Y66763383D02*
X5495947Y66677669D01*
X5495947Y66677669D02*
X5467375Y66620526D01*
X5467375Y66620526D02*
X5438804Y66591955D01*
X5438804Y66591955D02*
X5381661Y66563383D01*
X5381661Y66563383D02*
X5153090Y66563383D01*
X5753090Y66277669D02*
X5753090Y66877669D01*
X6381661Y66334812D02*
X6353089Y66306240D01*
X6353089Y66306240D02*
X6267375Y66277669D01*
X6267375Y66277669D02*
X6210232Y66277669D01*
X6210232Y66277669D02*
X6124518Y66306240D01*
X6124518Y66306240D02*
X6067375Y66363383D01*
X6067375Y66363383D02*
X6038804Y66420526D01*
X6038804Y66420526D02*
X6010232Y66534812D01*
X6010232Y66534812D02*
X6010232Y66620526D01*
X6010232Y66620526D02*
X6038804Y66734812D01*
X6038804Y66734812D02*
X6067375Y66791955D01*
X6067375Y66791955D02*
X6124518Y66849098D01*
X6124518Y66849098D02*
X6210232Y66877669D01*
X6210232Y66877669D02*
X6267375Y66877669D01*
X6267375Y66877669D02*
X6353089Y66849098D01*
X6353089Y66849098D02*
X6381661Y66820526D01*
X6753089Y66877669D02*
X6867375Y66877669D01*
X6867375Y66877669D02*
X6924518Y66849098D01*
X6924518Y66849098D02*
X6981661Y66791955D01*
X6981661Y66791955D02*
X7010232Y66677669D01*
X7010232Y66677669D02*
X7010232Y66477669D01*
X7010232Y66477669D02*
X6981661Y66363383D01*
X6981661Y66363383D02*
X6924518Y66306240D01*
X6924518Y66306240D02*
X6867375Y66277669D01*
X6867375Y66277669D02*
X6753089Y66277669D01*
X6753089Y66277669D02*
X6695947Y66306240D01*
X6695947Y66306240D02*
X6638804Y66363383D01*
X6638804Y66363383D02*
X6610232Y66477669D01*
X6610232Y66477669D02*
X6610232Y66677669D01*
X6610232Y66677669D02*
X6638804Y66791955D01*
X6638804Y66791955D02*
X6695947Y66849098D01*
X6695947Y66849098D02*
X6753089Y66877669D01*
X7695946Y66906240D02*
X7181660Y66134812D01*
X7895946Y66277669D02*
X7895946Y66877669D01*
X7895946Y66877669D02*
X8124517Y66877669D01*
X8124517Y66877669D02*
X8181660Y66849098D01*
X8181660Y66849098D02*
X8210231Y66820526D01*
X8210231Y66820526D02*
X8238803Y66763383D01*
X8238803Y66763383D02*
X8238803Y66677669D01*
X8238803Y66677669D02*
X8210231Y66620526D01*
X8210231Y66620526D02*
X8181660Y66591955D01*
X8181660Y66591955D02*
X8124517Y66563383D01*
X8124517Y66563383D02*
X7895946Y66563383D01*
X8495946Y66277669D02*
X8495946Y66877669D01*
X9124517Y66334812D02*
X9095945Y66306240D01*
X9095945Y66306240D02*
X9010231Y66277669D01*
X9010231Y66277669D02*
X8953088Y66277669D01*
X8953088Y66277669D02*
X8867374Y66306240D01*
X8867374Y66306240D02*
X8810231Y66363383D01*
X8810231Y66363383D02*
X8781660Y66420526D01*
X8781660Y66420526D02*
X8753088Y66534812D01*
X8753088Y66534812D02*
X8753088Y66620526D01*
X8753088Y66620526D02*
X8781660Y66734812D01*
X8781660Y66734812D02*
X8810231Y66791955D01*
X8810231Y66791955D02*
X8867374Y66849098D01*
X8867374Y66849098D02*
X8953088Y66877669D01*
X8953088Y66877669D02*
X9010231Y66877669D01*
X9010231Y66877669D02*
X9095945Y66849098D01*
X9095945Y66849098D02*
X9124517Y66820526D01*
X9495945Y66877669D02*
X9610231Y66877669D01*
X9610231Y66877669D02*
X9667374Y66849098D01*
X9667374Y66849098D02*
X9724517Y66791955D01*
X9724517Y66791955D02*
X9753088Y66677669D01*
X9753088Y66677669D02*
X9753088Y66477669D01*
X9753088Y66477669D02*
X9724517Y66363383D01*
X9724517Y66363383D02*
X9667374Y66306240D01*
X9667374Y66306240D02*
X9610231Y66277669D01*
X9610231Y66277669D02*
X9495945Y66277669D01*
X9495945Y66277669D02*
X9438803Y66306240D01*
X9438803Y66306240D02*
X9381660Y66363383D01*
X9381660Y66363383D02*
X9353088Y66477669D01*
X9353088Y66477669D02*
X9353088Y66677669D01*
X9353088Y66677669D02*
X9381660Y66791955D01*
X9381660Y66791955D02*
X9438803Y66849098D01*
X9438803Y66849098D02*
X9495945Y66877669D01*
X9981659Y66820526D02*
X10010231Y66849098D01*
X10010231Y66849098D02*
X10067374Y66877669D01*
X10067374Y66877669D02*
X10210231Y66877669D01*
X10210231Y66877669D02*
X10267374Y66849098D01*
X10267374Y66849098D02*
X10295945Y66820526D01*
X10295945Y66820526D02*
X10324516Y66763383D01*
X10324516Y66763383D02*
X10324516Y66706240D01*
X10324516Y66706240D02*
X10295945Y66620526D01*
X10295945Y66620526D02*
X9953088Y66277669D01*
X9953088Y66277669D02*
X10324516Y66277669D01*
X11381660Y66277669D02*
X11181660Y66563383D01*
X11038803Y66277669D02*
X11038803Y66877669D01*
X11038803Y66877669D02*
X11267374Y66877669D01*
X11267374Y66877669D02*
X11324517Y66849098D01*
X11324517Y66849098D02*
X11353088Y66820526D01*
X11353088Y66820526D02*
X11381660Y66763383D01*
X11381660Y66763383D02*
X11381660Y66677669D01*
X11381660Y66677669D02*
X11353088Y66620526D01*
X11353088Y66620526D02*
X11324517Y66591955D01*
X11324517Y66591955D02*
X11267374Y66563383D01*
X11267374Y66563383D02*
X11038803Y66563383D01*
X11867374Y66306240D02*
X11810231Y66277669D01*
X11810231Y66277669D02*
X11695946Y66277669D01*
X11695946Y66277669D02*
X11638803Y66306240D01*
X11638803Y66306240D02*
X11610231Y66363383D01*
X11610231Y66363383D02*
X11610231Y66591955D01*
X11610231Y66591955D02*
X11638803Y66649098D01*
X11638803Y66649098D02*
X11695946Y66677669D01*
X11695946Y66677669D02*
X11810231Y66677669D01*
X11810231Y66677669D02*
X11867374Y66649098D01*
X11867374Y66649098D02*
X11895946Y66591955D01*
X11895946Y66591955D02*
X11895946Y66534812D01*
X11895946Y66534812D02*
X11610231Y66477669D01*
X12095946Y66677669D02*
X12238803Y66277669D01*
X12238803Y66277669D02*
X12381660Y66677669D01*
X12724517Y66877669D02*
X12781660Y66877669D01*
X12781660Y66877669D02*
X12838803Y66849098D01*
X12838803Y66849098D02*
X12867375Y66820526D01*
X12867375Y66820526D02*
X12895946Y66763383D01*
X12895946Y66763383D02*
X12924517Y66649098D01*
X12924517Y66649098D02*
X12924517Y66506240D01*
X12924517Y66506240D02*
X12895946Y66391955D01*
X12895946Y66391955D02*
X12867375Y66334812D01*
X12867375Y66334812D02*
X12838803Y66306240D01*
X12838803Y66306240D02*
X12781660Y66277669D01*
X12781660Y66277669D02*
X12724517Y66277669D01*
X12724517Y66277669D02*
X12667375Y66306240D01*
X12667375Y66306240D02*
X12638803Y66334812D01*
X12638803Y66334812D02*
X12610232Y66391955D01*
X12610232Y66391955D02*
X12581660Y66506240D01*
X12581660Y66506240D02*
X12581660Y66649098D01*
X12581660Y66649098D02*
X12610232Y66763383D01*
X12610232Y66763383D02*
X12638803Y66820526D01*
X12638803Y66820526D02*
X12667375Y66849098D01*
X12667375Y66849098D02*
X12724517Y66877669D01*
X13181661Y66334812D02*
X13210232Y66306240D01*
X13210232Y66306240D02*
X13181661Y66277669D01*
X13181661Y66277669D02*
X13153089Y66306240D01*
X13153089Y66306240D02*
X13181661Y66334812D01*
X13181661Y66334812D02*
X13181661Y66277669D01*
X13410232Y66877669D02*
X13781660Y66877669D01*
X13781660Y66877669D02*
X13581660Y66649098D01*
X13581660Y66649098D02*
X13667375Y66649098D01*
X13667375Y66649098D02*
X13724518Y66620526D01*
X13724518Y66620526D02*
X13753089Y66591955D01*
X13753089Y66591955D02*
X13781660Y66534812D01*
X13781660Y66534812D02*
X13781660Y66391955D01*
X13781660Y66391955D02*
X13753089Y66334812D01*
X13753089Y66334812D02*
X13724518Y66306240D01*
X13724518Y66306240D02*
X13667375Y66277669D01*
X13667375Y66277669D02*
X13495946Y66277669D01*
X13495946Y66277669D02*
X13438803Y66306240D01*
X13438803Y66306240D02*
X13410232Y66334812D01*
D12*
X21915584Y2276883D02*
X21953680Y2238787D01*
X21953680Y2238787D02*
X21991775Y2124502D01*
X21991775Y2124502D02*
X21991775Y2048311D01*
X21991775Y2048311D02*
X21953680Y1934025D01*
X21953680Y1934025D02*
X21877489Y1857835D01*
X21877489Y1857835D02*
X21801299Y1819740D01*
X21801299Y1819740D02*
X21648918Y1781644D01*
X21648918Y1781644D02*
X21534632Y1781644D01*
X21534632Y1781644D02*
X21382251Y1819740D01*
X21382251Y1819740D02*
X21306060Y1857835D01*
X21306060Y1857835D02*
X21229870Y1934025D01*
X21229870Y1934025D02*
X21191775Y2048311D01*
X21191775Y2048311D02*
X21191775Y2124502D01*
X21191775Y2124502D02*
X21229870Y2238787D01*
X21229870Y2238787D02*
X21267965Y2276883D01*
X21991775Y2619740D02*
X21191775Y2619740D01*
X21991775Y3076883D02*
X21534632Y2734025D01*
X21191775Y3076883D02*
X21648918Y2619740D01*
D10*
X3501666Y64245181D02*
X3501666Y63530896D01*
X3501666Y63530896D02*
X3454047Y63388039D01*
X3454047Y63388039D02*
X3358809Y63292800D01*
X3358809Y63292800D02*
X3215952Y63245181D01*
X3215952Y63245181D02*
X3120714Y63245181D01*
X4406428Y63911848D02*
X4406428Y63245181D01*
X4168333Y64292800D02*
X3930238Y63578515D01*
X3930238Y63578515D02*
X4549285Y63578515D01*
D16*
X13686833Y56696114D02*
X13653500Y56662780D01*
X13653500Y56662780D02*
X13553500Y56629447D01*
X13553500Y56629447D02*
X13486833Y56629447D01*
X13486833Y56629447D02*
X13386833Y56662780D01*
X13386833Y56662780D02*
X13320167Y56729447D01*
X13320167Y56729447D02*
X13286833Y56796114D01*
X13286833Y56796114D02*
X13253500Y56929447D01*
X13253500Y56929447D02*
X13253500Y57029447D01*
X13253500Y57029447D02*
X13286833Y57162780D01*
X13286833Y57162780D02*
X13320167Y57229447D01*
X13320167Y57229447D02*
X13386833Y57296114D01*
X13386833Y57296114D02*
X13486833Y57329447D01*
X13486833Y57329447D02*
X13553500Y57329447D01*
X13553500Y57329447D02*
X13653500Y57296114D01*
X13653500Y57296114D02*
X13686833Y57262780D01*
X13920167Y57329447D02*
X14353500Y57329447D01*
X14353500Y57329447D02*
X14120167Y57062780D01*
X14120167Y57062780D02*
X14220167Y57062780D01*
X14220167Y57062780D02*
X14286833Y57029447D01*
X14286833Y57029447D02*
X14320167Y56996114D01*
X14320167Y56996114D02*
X14353500Y56929447D01*
X14353500Y56929447D02*
X14353500Y56762780D01*
X14353500Y56762780D02*
X14320167Y56696114D01*
X14320167Y56696114D02*
X14286833Y56662780D01*
X14286833Y56662780D02*
X14220167Y56629447D01*
X14220167Y56629447D02*
X14020167Y56629447D01*
X14020167Y56629447D02*
X13953500Y56662780D01*
X13953500Y56662780D02*
X13920167Y56696114D01*
D10*
X12822696Y36089581D02*
X12822696Y35280058D01*
X12822696Y35280058D02*
X12870315Y35184820D01*
X12870315Y35184820D02*
X12917934Y35137200D01*
X12917934Y35137200D02*
X13013172Y35089581D01*
X13013172Y35089581D02*
X13203648Y35089581D01*
X13203648Y35089581D02*
X13298886Y35137200D01*
X13298886Y35137200D02*
X13346505Y35184820D01*
X13346505Y35184820D02*
X13394124Y35280058D01*
X13394124Y35280058D02*
X13394124Y36089581D01*
X13822696Y35994343D02*
X13870315Y36041962D01*
X13870315Y36041962D02*
X13965553Y36089581D01*
X13965553Y36089581D02*
X14203648Y36089581D01*
X14203648Y36089581D02*
X14298886Y36041962D01*
X14298886Y36041962D02*
X14346505Y35994343D01*
X14346505Y35994343D02*
X14394124Y35899105D01*
X14394124Y35899105D02*
X14394124Y35803867D01*
X14394124Y35803867D02*
X14346505Y35661010D01*
X14346505Y35661010D02*
X13775077Y35089581D01*
X13775077Y35089581D02*
X14394124Y35089581D01*
X13155697Y24904581D02*
X13155697Y24095058D01*
X13155697Y24095058D02*
X13203316Y23999820D01*
X13203316Y23999820D02*
X13250935Y23952200D01*
X13250935Y23952200D02*
X13346173Y23904581D01*
X13346173Y23904581D02*
X13536649Y23904581D01*
X13536649Y23904581D02*
X13631887Y23952200D01*
X13631887Y23952200D02*
X13679506Y23999820D01*
X13679506Y23999820D02*
X13727125Y24095058D01*
X13727125Y24095058D02*
X13727125Y24904581D01*
X14727125Y23904581D02*
X14155697Y23904581D01*
X14441411Y23904581D02*
X14441411Y24904581D01*
X14441411Y24904581D02*
X14346173Y24761724D01*
X14346173Y24761724D02*
X14250935Y24666486D01*
X14250935Y24666486D02*
X14155697Y24618867D01*
X21197666Y64042181D02*
X21197666Y63327896D01*
X21197666Y63327896D02*
X21150047Y63185039D01*
X21150047Y63185039D02*
X21054809Y63089800D01*
X21054809Y63089800D02*
X20911952Y63042181D01*
X20911952Y63042181D02*
X20816714Y63042181D01*
X22150047Y64042181D02*
X21673857Y64042181D01*
X21673857Y64042181D02*
X21626238Y63565991D01*
X21626238Y63565991D02*
X21673857Y63613610D01*
X21673857Y63613610D02*
X21769095Y63661229D01*
X21769095Y63661229D02*
X22007190Y63661229D01*
X22007190Y63661229D02*
X22102428Y63613610D01*
X22102428Y63613610D02*
X22150047Y63565991D01*
X22150047Y63565991D02*
X22197666Y63470753D01*
X22197666Y63470753D02*
X22197666Y63232658D01*
X22197666Y63232658D02*
X22150047Y63137420D01*
X22150047Y63137420D02*
X22102428Y63089800D01*
X22102428Y63089800D02*
X22007190Y63042181D01*
X22007190Y63042181D02*
X21769095Y63042181D01*
X21769095Y63042181D02*
X21673857Y63089800D01*
X21673857Y63089800D02*
X21626238Y63137420D01*
X18716666Y8165181D02*
X18716666Y7450896D01*
X18716666Y7450896D02*
X18669047Y7308039D01*
X18669047Y7308039D02*
X18573809Y7212800D01*
X18573809Y7212800D02*
X18430952Y7165181D01*
X18430952Y7165181D02*
X18335714Y7165181D01*
X19716666Y7165181D02*
X19145238Y7165181D01*
X19430952Y7165181D02*
X19430952Y8165181D01*
X19430952Y8165181D02*
X19335714Y8022324D01*
X19335714Y8022324D02*
X19240476Y7927086D01*
X19240476Y7927086D02*
X19145238Y7879467D01*
X18375333Y19859920D02*
X18327714Y19812300D01*
X18327714Y19812300D02*
X18184857Y19764681D01*
X18184857Y19764681D02*
X18089619Y19764681D01*
X18089619Y19764681D02*
X17946762Y19812300D01*
X17946762Y19812300D02*
X17851524Y19907539D01*
X17851524Y19907539D02*
X17803905Y20002777D01*
X17803905Y20002777D02*
X17756286Y20193253D01*
X17756286Y20193253D02*
X17756286Y20336110D01*
X17756286Y20336110D02*
X17803905Y20526586D01*
X17803905Y20526586D02*
X17851524Y20621824D01*
X17851524Y20621824D02*
X17946762Y20717062D01*
X17946762Y20717062D02*
X18089619Y20764681D01*
X18089619Y20764681D02*
X18184857Y20764681D01*
X18184857Y20764681D02*
X18327714Y20717062D01*
X18327714Y20717062D02*
X18375333Y20669443D01*
X18756286Y20669443D02*
X18803905Y20717062D01*
X18803905Y20717062D02*
X18899143Y20764681D01*
X18899143Y20764681D02*
X19137238Y20764681D01*
X19137238Y20764681D02*
X19232476Y20717062D01*
X19232476Y20717062D02*
X19280095Y20669443D01*
X19280095Y20669443D02*
X19327714Y20574205D01*
X19327714Y20574205D02*
X19327714Y20478967D01*
X19327714Y20478967D02*
X19280095Y20336110D01*
X19280095Y20336110D02*
X18708667Y19764681D01*
X18708667Y19764681D02*
X19327714Y19764681D01*
X12206666Y5625181D02*
X12206666Y4910896D01*
X12206666Y4910896D02*
X12159047Y4768039D01*
X12159047Y4768039D02*
X12063809Y4672800D01*
X12063809Y4672800D02*
X11920952Y4625181D01*
X11920952Y4625181D02*
X11825714Y4625181D01*
X12587619Y5625181D02*
X13254285Y5625181D01*
X13254285Y5625181D02*
X12825714Y4625181D01*
X20956666Y69174181D02*
X20956666Y68459896D01*
X20956666Y68459896D02*
X20909047Y68317039D01*
X20909047Y68317039D02*
X20813809Y68221800D01*
X20813809Y68221800D02*
X20670952Y68174181D01*
X20670952Y68174181D02*
X20575714Y68174181D01*
X21861428Y69174181D02*
X21670952Y69174181D01*
X21670952Y69174181D02*
X21575714Y69126562D01*
X21575714Y69126562D02*
X21528095Y69078943D01*
X21528095Y69078943D02*
X21432857Y68936086D01*
X21432857Y68936086D02*
X21385238Y68745610D01*
X21385238Y68745610D02*
X21385238Y68364658D01*
X21385238Y68364658D02*
X21432857Y68269420D01*
X21432857Y68269420D02*
X21480476Y68221800D01*
X21480476Y68221800D02*
X21575714Y68174181D01*
X21575714Y68174181D02*
X21766190Y68174181D01*
X21766190Y68174181D02*
X21861428Y68221800D01*
X21861428Y68221800D02*
X21909047Y68269420D01*
X21909047Y68269420D02*
X21956666Y68364658D01*
X21956666Y68364658D02*
X21956666Y68602753D01*
X21956666Y68602753D02*
X21909047Y68697991D01*
X21909047Y68697991D02*
X21861428Y68745610D01*
X21861428Y68745610D02*
X21766190Y68793229D01*
X21766190Y68793229D02*
X21575714Y68793229D01*
X21575714Y68793229D02*
X21480476Y68745610D01*
X21480476Y68745610D02*
X21432857Y68697991D01*
X21432857Y68697991D02*
X21385238Y68602753D01*
X18346333Y32607420D02*
X18298714Y32559800D01*
X18298714Y32559800D02*
X18155857Y32512181D01*
X18155857Y32512181D02*
X18060619Y32512181D01*
X18060619Y32512181D02*
X17917762Y32559800D01*
X17917762Y32559800D02*
X17822524Y32655039D01*
X17822524Y32655039D02*
X17774905Y32750277D01*
X17774905Y32750277D02*
X17727286Y32940753D01*
X17727286Y32940753D02*
X17727286Y33083610D01*
X17727286Y33083610D02*
X17774905Y33274086D01*
X17774905Y33274086D02*
X17822524Y33369324D01*
X17822524Y33369324D02*
X17917762Y33464562D01*
X17917762Y33464562D02*
X18060619Y33512181D01*
X18060619Y33512181D02*
X18155857Y33512181D01*
X18155857Y33512181D02*
X18298714Y33464562D01*
X18298714Y33464562D02*
X18346333Y33416943D01*
X19298714Y32512181D02*
X18727286Y32512181D01*
X19013000Y32512181D02*
X19013000Y33512181D01*
X19013000Y33512181D02*
X18917762Y33369324D01*
X18917762Y33369324D02*
X18822524Y33274086D01*
X18822524Y33274086D02*
X18727286Y33226467D01*
X18277333Y59883181D02*
X17944000Y60359372D01*
X17705905Y59883181D02*
X17705905Y60883181D01*
X17705905Y60883181D02*
X18086857Y60883181D01*
X18086857Y60883181D02*
X18182095Y60835562D01*
X18182095Y60835562D02*
X18229714Y60787943D01*
X18229714Y60787943D02*
X18277333Y60692705D01*
X18277333Y60692705D02*
X18277333Y60549848D01*
X18277333Y60549848D02*
X18229714Y60454610D01*
X18229714Y60454610D02*
X18182095Y60406991D01*
X18182095Y60406991D02*
X18086857Y60359372D01*
X18086857Y60359372D02*
X17705905Y60359372D01*
X19229714Y59883181D02*
X18658286Y59883181D01*
X18944000Y59883181D02*
X18944000Y60883181D01*
X18944000Y60883181D02*
X18848762Y60740324D01*
X18848762Y60740324D02*
X18753524Y60645086D01*
X18753524Y60645086D02*
X18658286Y60597467D01*
X15190095Y48099181D02*
X15190095Y47289658D01*
X15190095Y47289658D02*
X15237714Y47194420D01*
X15237714Y47194420D02*
X15285333Y47146800D01*
X15285333Y47146800D02*
X15380571Y47099181D01*
X15380571Y47099181D02*
X15571047Y47099181D01*
X15571047Y47099181D02*
X15666285Y47146800D01*
X15666285Y47146800D02*
X15713904Y47194420D01*
X15713904Y47194420D02*
X15761523Y47289658D01*
X15761523Y47289658D02*
X15761523Y48099181D01*
X16142476Y48099181D02*
X16761523Y48099181D01*
X16761523Y48099181D02*
X16428190Y47718229D01*
X16428190Y47718229D02*
X16571047Y47718229D01*
X16571047Y47718229D02*
X16666285Y47670610D01*
X16666285Y47670610D02*
X16713904Y47622991D01*
X16713904Y47622991D02*
X16761523Y47527753D01*
X16761523Y47527753D02*
X16761523Y47289658D01*
X16761523Y47289658D02*
X16713904Y47194420D01*
X16713904Y47194420D02*
X16666285Y47146800D01*
X16666285Y47146800D02*
X16571047Y47099181D01*
X16571047Y47099181D02*
X16285333Y47099181D01*
X16285333Y47099181D02*
X16190095Y47146800D01*
X16190095Y47146800D02*
X16142476Y47194420D01*
D14*
X2505000Y59660000D02*
X2505000Y11340000D01*
X2505000Y59660000D02*
X5165000Y59660000D01*
X2505000Y11340000D02*
X5165000Y11340000D01*
X3835000Y62260000D02*
X5165000Y62260000D01*
X5165000Y62260000D02*
X5165000Y60930000D01*
X5165000Y59660000D02*
X5165000Y11340000D01*
X11557267Y57486000D02*
X11264733Y57486000D01*
X11557267Y56466000D02*
X11264733Y56466000D01*
D17*
X10547002Y33741100D02*
X10547002Y28991300D01*
X17405002Y28991300D02*
X17405002Y33741100D01*
D18*
G36*
X11241504Y35074600D02*
G01*
X10860504Y35074600D01*
X10860504Y35328600D01*
X11241504Y35328600D01*
X11241504Y35074600D01*
G37*
G36*
X17091500Y27403800D02*
G01*
X16710500Y27403800D01*
X16710500Y27657800D01*
X17091500Y27657800D01*
X17091500Y27403800D01*
G37*
D17*
X10541602Y22212300D02*
X10541602Y17462500D01*
X17399602Y17462500D02*
X17399602Y22212300D01*
D18*
G36*
X11236104Y23545800D02*
G01*
X10855104Y23545800D01*
X10855104Y23799800D01*
X11236104Y23799800D01*
X11236104Y23545800D01*
G37*
G36*
X17086100Y15875000D02*
G01*
X16705100Y15875000D01*
X16705100Y16129000D01*
X17086100Y16129000D01*
X17086100Y15875000D01*
G37*
D14*
X20285000Y59660000D02*
X20285000Y11340000D01*
X20285000Y59660000D02*
X22945000Y59660000D01*
X20285000Y11340000D02*
X22945000Y11340000D01*
X21615000Y62260000D02*
X22945000Y62260000D01*
X22945000Y62260000D02*
X22945000Y60930000D01*
X22945000Y59660000D02*
X22945000Y11340000D01*
X15180000Y6410000D02*
X16510000Y6410000D01*
X15180000Y5080000D02*
X15180000Y6410000D01*
X17780000Y6410000D02*
X30540000Y6410000D01*
X17780000Y3750000D02*
X17780000Y6410000D01*
X17780000Y3750000D02*
X30540000Y3750000D01*
X30540000Y3750000D02*
X30540000Y6410000D01*
X18032000Y17633733D02*
X18032000Y17926267D01*
X19052000Y17633733D02*
X19052000Y17926267D01*
X1160000Y6460000D02*
X1160000Y3700000D01*
X8890000Y6460000D02*
X1160000Y6460000D01*
X8890000Y6460000D02*
X8890000Y3700000D01*
X8890000Y3700000D02*
X1160000Y3700000D01*
X10160000Y6460000D02*
X11540000Y6460000D01*
X11540000Y6460000D02*
X11540000Y5080000D01*
X22750000Y69960000D02*
X22750000Y67200000D01*
X25400000Y69960000D02*
X22750000Y69960000D01*
X25400000Y69960000D02*
X25400000Y67200000D01*
X25400000Y67200000D02*
X22750000Y67200000D01*
X26670000Y69960000D02*
X28050000Y69960000D01*
X28050000Y69960000D02*
X28050000Y68580000D01*
X17829000Y29211233D02*
X17829000Y29503767D01*
X18849000Y29211233D02*
X18849000Y29503767D01*
X17825000Y57992564D02*
X17825000Y57538436D01*
X19295000Y57992564D02*
X19295000Y57538436D01*
D17*
X10957002Y54444100D02*
X10957002Y49694300D01*
X17815002Y49694300D02*
X17815002Y54444100D01*
D18*
G36*
X11651504Y55777600D02*
G01*
X11270504Y55777600D01*
X11270504Y56031600D01*
X11651504Y56031600D01*
X11651504Y55777600D01*
G37*
G36*
X17501500Y48106800D02*
G01*
X17120500Y48106800D01*
X17120500Y48360800D01*
X17501500Y48360800D01*
X17501500Y48106800D01*
G37*
M02*
